<?xml version="1.0" encoding="UTF-8"?><svg id="Camada_1" xmlns="http://www.w3.org/2000/svg" viewBox="0 0 51.09 33.45"><defs><style>.cls-1{fill:#010101;}</style></defs><path class="cls-1" d="M8.76,3.84c-.02.74-.1,1.98-.13,2.32-.03.33-.12,1.47-.17,1.78-.05.3-.06,1.07-.07,1.5-.02.43-.09.96-.03,1.59.06.62.1.71.1.96s-.05.33.02.7c.06.37.08.88-.48.96-.56.08-.79.03-.79.03,0,0-.01-.41-.05-.67-.04-.26-.1-.59-.14-.99-.05-.4-.11-.64-.07-1.47.04-.83.06-1.7.11-2.26.06-.56.17-1.71.19-2.29.02-.57.17-2.98.17-2.98,0,0,.31-.04.57-.04s.8.13.77.87M9.74,7c0-.57.04-1.42.14-2.33.1-.91.13-1.63-.35-2.24-.48-.61-1.1-.6-1.61-.58-.44.01-1.19.1-1.39.12-.03,0-.05.03-.06.06-.02.11-.06.44-.11,1.17-.07.96-.17,2-.35,2.95-.18.95-.21,1.98-.26,2.4-.05.43-.1,2.21-.1,2.75,0,.54.13,1.26.17,1.6.04.33.13.66.17.97.03.25.05.72.06.89,0,.04.03.07.07.07.2,0,.85,0,1.53,0,.82.01,1.21-.21,1.74-.76.52-.55.34-1.58.31-1.82-.03-.24.01-.53.02-.75s-.12-1.05-.13-1.41c-.01-.36.11-1.11.12-1.41s.03-1.12.03-1.69"/><path class="cls-1" d="M11.41,2.2s.04-.07.08-.06c.18.04.66.15.89.15.21,0,.63-.07.83-.1.05,0,.09.04.08.09l-.32,1.14s-.04.05-.07.05c-.05,0-.11,0-.17,0-.1.02-.32.05-.51.05-.07.53-.23.98-.36,1.42-.13.44-.28,1.05,0,1.65.28.6.44.74.3,1.63.2.02.57-.02,1.45-.26.05-.01.09.02.09.07-.03.26-.04.44,0,.79,0,.04-.02.07-.06.08-.51.03-1.58.18-1.58.18,0,0,.01.41.06.66.05.24.09.66,0,.87-.09.21-.08.44-.07.59.01.15.11.66.1,1.07-.01.4-.17,1.05-.17,1.05,0,0,.68-.22,1.19-.36.05-.01.09.03.09.08-.04.27-.1.63-.11.92,0,.03-.03.06-.06.06-.53.07-1.72.25-2.3.43-.05.02-.1-.04-.08-.09.2-.52.28-.95.29-1.24.01-.32-.05-1.12-.11-1.41-.06-.29-.03-.44.02-.56.05-.11.1-.27.05-.58-.05-.32-.16-.92-.13-1.28.03-.36.17-.94.16-1.49-.01-.55-.05-1.46-.03-1.9.02-.44.14-1.64.23-2.17.08-.44.19-1.29.22-1.55"/><path class="cls-1" d="M14.14,2.35l1.11.32s.06.05.05.08c-.05.22-.24.97-.25,1.13-.01.19-.03.33-.07.47-.03.14-.16.36-.15.56,0,.2-.03,1.13.65,1.15.68.02.66.52.71.66.05.15.32,1.26.24,1.52-.07.26-.09.45-.09.63,0,.18.02.65,0,1.03-.01.38-.02.7-.04,1.02-.02.31-.07.62-.06.73.02.11.07.33.09.49.01.16.02.53.02.53h.11s.1-1.19.23-1.67c.13-.48.35-1.47.41-1.79.06-.32.16-.88.23-1.09.07-.22.17-.55.14-.87-.03-.32-.07-.64-.09-.74-.02-.11-.06-.27-.3-.28-.24-.01-.39.05-.49-.49-.1-.53.05-1.09.2-1.37.15-.27.35-.54.41-.7.05-.13.15-.38.18-.47,0-.02.03-.04.05-.04l.96-.25c.05-.01.1.04.08.09-.09.24-.29.78-.39,1.03-.12.33-.31,1.03-.27,1.49.03.45.07.78.36.91.29.13.53.3.42,1.16-.11.86-.34,2.05-.44,2.49-.1.44-.31,1.21-.36,1.66-.05.45-.05.69-.1,1.11-.04.34-.07.8-.08.96,0,.04-.03.06-.07.06l-2.23.06s-.06-.02-.07-.06c-.04-.26-.2-1.28-.2-1.74,0-.53,0-1.36.03-1.77.04-.41.07-.82.05-1.02-.03-.2-.04-.35.06-.5.1-.15.11-.31.02-.7-.1-.39-.14-.67-.17-.94-.03-.27-.14-.49-.27-.66-.14-.17-.31-.29-.48-.34-.17-.05-.5-.23-.61-.75-.11-.53-.09-.83.09-1.71.14-.69.24-1.15.27-1.32,0-.04.05-.06.09-.05"/><path class="cls-1" d="M21,10.73c.12-.5.1-.93.03-1.26-.07-.33-.16-.77-.11-1.22.05-.45.12-1.34.05-1.6-.07-.27-.23-.46-.14-.94.09-.48.44-1.84.44-1.84h.11s-.06,1.66-.05,2.17c0,.51.15.63.15,1,0,.37-.01,1.36.03,1.76.04.41.14.88.35,1.36.21.48.41,1,.41,1,0,0-.3-.28-1.26-.43M23.2,11.94c-.14-.26-.33-.68-.55-1.22-.22-.54-.12-1.46-.1-1.87.02-.41.07-1.07.09-1.99.02-.91,0-2.09,0-2.55,0-.39-.07-1.3-.09-1.57,0-.04-.04-.07-.08-.06-.22.05-.86.18-1.06.18s-.86-.08-1.06-.1c-.03,0-.06.02-.07.05-.38,1.13-.64,2.31-.69,2.77-.05.46.09.72.23.89s.21.39.27.7c.05.3.04.9.02,1.57-.02.67-.26,1.75-.33,2.12-.08.36-.32,1.36-.38,1.6-.06.23-.05.42,0,.62.05.19.06.46.01.81,0,.04.02.07.06.08.42.04.84.18,1.02.24.05.02.09-.02.09-.07,0-.07-.02-.18-.05-.31-.07-.25-.07-.44-.04-.63.03-.19.27-1.35.27-1.35l1.61.29s.05.48.03.65c-.02.17-.1,1.1-.11,1.55-.01.37.07.67.1.76,0,.02.02.03.04.04l.92.38s.09-.01.09-.06c.01-.31.06-1.33.1-1.91.05-.7-.19-1.33-.33-1.6"/><path class="cls-1" d="M24.47,15.75c.14.04.53.13,1.04.17.03,0,.06-.02.07-.05.12-.57.09-.9-.12-1.46-.22-.58-.27-.82-.25-1.51.02-.7.02-1.51-.11-1.95-.13-.44-.23-.75-.17-1.34.07-.58.18-1.12.2-1.57.02-.45.05-.91.11-1.41.07-.5.34-2.21.38-2.89.02,0,.05,0,.05,0,0,0-.07.88-.09,1.08-.02.2-.07,1.04-.11,1.42-.04.38-.09.92-.05,1.52.04.6-.03.95,0,1.4.02.45.12.95.32,1.44.2.5.57,1.75.61,2.15.05.4.16.93.18,1.44.02.51.24,1.11.31,1.33.07.21.21.55.26.77,0,.02.02.04.04.05.49.18,1.26.45,2.17.29.03,0,.05-.03.06-.06.06-1.09-.1-1.62-.38-2.74-.29-1.13-.57-2.61-.63-3.14s-.2-2.74-.21-3.33c0-.6-.06-3.03-.06-3.43,0-.34-.02-1.04-.02-1.25,0-.04-.03-.07-.07-.07l-.98-.03s-.07.03-.07.07c0,.38,0,2.17.01,2.88,0,.79.06,2.57.14,3.58.08,1.01.2,2.49.41,3.28.2.79.49,1.65.53,2.02.05.37.04.64.05.78,0,.14.05.55.05.55h-.09s-.13-.55-.14-.79c-.02-.24-.1-.76-.26-1.25-.16-.48-.51-1.44-.66-2-.15-.57-.41-1.7-.5-2.02-.09-.32-.24-1.12-.31-2.19-.08-1.07-.14-2.28-.11-3.33.03-.9.04-1.52.04-1.68,0-.03-.02-.05-.04-.06-.13-.06-.56-.22-1.37-.14-.04,0-.06.04-.06.07.06,1,.16,2.11.03,2.97-.14.88-.22,1.54-.3,2.2-.08.66-.14,1.56-.24,2.11-.1.55-.11.76-.12,1.07,0,.31-.02.57-.05.87-.03.3,0,.99.21,1.45.2.46.48.7.39,1.59-.07.65-.12.96-.14,1.08,0,.03.02.07.05.08"/><path class="cls-1" d="M29.59,2.57c.34.03,1.75.12,2.63-.09.04,0,.08.02.08.07v1.11s-.02.05-.04.06c-.14.05-.6.19-1.53.13-.01.79-.01,2.56.01,3.15.02.59.06,1.85.1,2.22.33,0,1.31-.05,1.58-.06.04,0,.07.03.07.06.01.19.04.74.08.98,0,.04-.02.07-.06.08-.47.05-1.6.13-1.6.13.08.5.26.83.36,1.35.1.52.51,2.46.5,3.16.31-.1.97-.44,1.21-.57.04-.02.1,0,.1.06,0,.21.03.7.09.98,0,.04-.02.07-.05.08-.74.15-1.12.27-1.42.43-.27.14-.63.32-.87.41-.05.02-.1-.02-.09-.07.04-.47,0-1.26-.14-1.79-.15-.57-.46-1.7-.57-2.42-.11-.71-.33-1.46-.38-2.5-.05-1.03-.15-2.4-.16-3.54-.01-1.01,0-2.97,0-3.37,0-.04.03-.07.07-.07"/><path class="cls-1" d="M33.27,2.35s.03-.05.05-.05c.17-.04.77-.16,1.14-.2.43-.05.63,0,.86-.04.16-.02.33-.05.43-.06.04,0,.08.02.08.06.02.19.05.71.03,1.1,0,.03-.02.05-.05.06-.17.05-.45.11-.59.13.06,1.1.08,1.91.06,2.69-.02.78,0,1.36.15,2.22.14.86.26,1.65.55,2.27.29.62.37,1.53.27,2.14-.11.61-.12.96-.11,1.16.2-.02.52-.05.66-.06.04,0,.07.03.07.06l.05,1.11s-.02.07-.06.07c-.56.06-1.19,0-1.5.02-.26.02-.76.12-.93.16-.04,0-.07-.01-.08-.05-.04-.14-.14-.52-.15-1.01,0-.03.02-.06.05-.07.24-.06.32-.12.65-.12-.05-.45,0-.73.08-1.19.07-.45.13-1.19-.11-1.72-.24-.53-.44-.98-.59-2.09-.15-1.1.04-1.72-.04-2.53-.08-.81-.3-2.08-.31-2.9-.16.01-.48.04-.62.05-.04,0-.07-.02-.07-.06-.02-.18-.05-.67.04-1.17"/><path class="cls-1" d="M39.73,13.77c-.82-.12-.56-.66-.47-1.96.08-1.22-.61-2.55-.73-3.09-.15-.65-.34-1.78-.46-2.41s-.25-1.69-.17-2.42c.08-.73.16-1.14.99-1.18.79-.04.32.89.3,1.43-.02.54.29,1.86.48,2.99.19,1.13.35,1.65.71,2.62.36.97.24,1.75.27,2.81.03,1.05-.46,1.28-.92,1.21M41.18,8.21c-.24-.7-.28-1.38-.36-1.86s-.27-1.41-.36-1.87c-.09-.45-.14-.91,0-1.6.14-.69-.04-.86-.47-1.09s-1.1-.26-1.67-.1c-1.24.36-1.54,1.25-1.54,1.74s-.03,1.66,0,2.34c.03.67.27,1.62.46,2.77.18,1.15.43,1.26.67,2.03.24.76.08,1.94,0,2.58-.09.72.58,1.97,2.06,1.77,1.64-.22,1.79-1.65,1.81-2.15.02-.5.06-.64.06-1.5.02-1.29-.43-2.37-.67-3.06"/><path class="cls-1" d="M5.92,28.58c-.48.25-1.01.32-1.01.32,0,0-.07-.51-.28-1.33-.21-.82-.5-1.64-.69-2.56-.19-.91-.33-1.94-.45-2.63-.12-.69-.29-1.32-.33-2.17-.05-.85.22-2.08.22-2.08,0,0,.44.02.69.06.25.04.74.07.58.99-.17.92-.08,1.55.03,2,.11.45.38,1.75.44,2.25.07.5.24,1.55.36,2.1.12.55.42,1.54.54,1.92s.37.88-.11,1.13M7.22,27.27c-.12-.35-.38-1.16-.43-1.54-.05-.38-.13-.63-.27-1.13-.14-.5-.27-1.63-.33-2-.05-.37-.16-1.04-.22-1.44s-.3-1.12-.26-1.79c.04-.67.09-1.26-.19-1.76-.28-.51-1.15-.54-1.59-.55-.38,0-1.3-.12-1.55-.16-.04,0-.07.02-.08.05-.05.28-.27,1.41-.37,1.99-.11.67.08,1.07.17,1.91.08.85.14,1.44.21,2.03.08.58.25,1.89.48,2.94.23,1.05.53,2.15.77,3.06.2.76.42,1.19.49,1.32.01.02.04.04.07.03.09,0,.33-.04,1-.12.96-.11,1.28-.23,1.96-.93.68-.7.24-1.57.12-1.92"/><path class="cls-1" d="M10.54,28.02c-.99.17-.96-1-1.06-1.44-.1-.44-.4-1.51-.8-2.22-.4-.71-.47-1.54-.39-1.91.08-.36.15-.52.1-1.16-.05-.64-.12-.99-.13-1.3-.02-.32-.05-.81-.1-1-.05-.19-.41-1.04.43-1.25.38-.09.93.28.93.68,0,.4,0,.74.06,1.1.06.36.19,1.67,0,2.06-.19.4-.27,1.02,0,1.67.27.65.87,1.89,1.04,2.44.17.54.9,2.15-.09,2.33M11.86,25.76c-.34-1.02-.93-2.31-1.15-2.74-.22-.43-.34-1.05-.08-1.6.26-.54.23-1.34.22-1.66-.01-.32-.09-1.25-.15-1.71s-.26-.65-.52-.91c-.26-.26-.78-.71-1.58-.61-.97.11-1.62,1.01-1.73,1.52-.11.51.08,1.51.13,1.76.05.25.05.65.13.93.08.28.23,1.7.25,2.23.02.53-.01,1.17.24,1.62.25.45.61,1.84.76,2.6.15.76.55,1.54,1.54,1.81.99.27,1.43.14,2.01-.57.58-.7.28-1.66-.06-2.68"/><path class="cls-1" d="M13.9,16.16l1.11-.12s.06.02.07.05c.05.2.24.89.31,1.49.05.44.22,1.74.2,2.23-.02.49-.13.77-.19,1-.06.23-.13.65-.11.86.02.21,0,.54.03.74.02.2-.03.77.02,1.08.05.31.38,1.32.47,1.76.09.44.24,1.34.32,1.53s.32.94.32.94h.06s-.17-.75-.15-1.13c.01-.38,0-1-.1-1.59s-.23-1.17-.18-1.75c.05-.58.18-.83.27-1.22.09-.4.19-1.09.35-1.38s.36-.56.44-1.04c.07-.43.2-3.19.22-3.67,0-.04.04-.07.07-.06l1.02.09s.06.03.06.07c0,.23,0,1.05-.04,1.87-.05.96-.07,1.87-.26,2.26-.19.39-.28.62-.36.9-.08.28-.13.5-.24.83-.11.33-.39,1.13-.39,1.55s-.03.89.14,1.73c.18.84.34,1.68.3,2.35-.03.56-.09,1.24-.1,1.44,0,.03-.03.06-.07.06-.23,0-1.06,0-1.43-.46,0,0-.01-.02-.01-.03-.11-.54-.12-1.2-.67-1.67-.56-.48-.88-1.66-.95-2-.07-.35-.35-1.84-.35-2.7,0-.86.1-1.08.19-1.4.09-.31.19-.83.11-1.41-.08-.58-.16-1.55-.3-2.14-.11-.45-.19-.82-.22-.97,0-.04.02-.08.06-.08"/><path class="cls-1" d="M22.05,16.65c-.03.2-.12.78-.12,1.15,0,.04-.04.07-.08.07-.38-.04-1.16-.24-1.36-.27.08.6.33,2.24.24,2.84-.1.6-.38,1.84-.38,1.84,0,0,.36.2,1.47.45.04,0,.06.05.05.08-.11.45-.19.81-.21.99,0,.04-.05.07-.09.05-.51-.14-1.17-.36-1.52-.48,0,.7-.06,1.41-.03,1.94.03.52.16,2.34.16,2.34l1.49-.07s.07.03.07.06c0,.19.03.72.08,1.01,0,.04-.02.08-.06.08-.53.03-.83.09-1.11.12-.27.04-.94.1-1.24.1-.04,0-.07-.03-.07-.06-.06-.85-.2-2.01-.31-2.61-.11-.61-.27-1.75-.2-2.81.08-1.06.36-1.49.46-2.15.11-.72.33-1.3.29-1.87-.05-.72-.19-2.47-.24-3.17,0-.05.04-.08.08-.07.57.12,1.26.28,2.56.36.04,0,.07.04.06.08"/><path class="cls-1" d="M23.42,17s.05-.08.09-.07c.14.05.41.14.54.16.17.02.34.06.46.13.02.01.02.03.03.04.07.4.08.69.06.97-.02.29-.1.94-.14,1.31-.05.37-.02,1.02.02,1.39.04.37.11,1.09,0,1.64-.07.38-.17.79-.16,1.34-.03,0-.09.02-.09.02,0,0,0,1.3.04,2.01.04.7.08,1.57.08,1.57l1.53-.05s.07.03.07.07l.05,1.07s-.03.07-.07.07c-.14,0-.49.02-.77.03-.36,0-.98,0-1.15,0-.14,0-.57.03-.74.03-.04,0-.07-.03-.07-.07,0-.23-.02-.95-.05-1.39-.04-.53-.08-1.57-.1-2.03-.02-.46-.03-1.23-.03-1.23h.08s0-.4.13-.86c.12-.46.26-1.03.24-1.54-.01-.51-.04-.88-.12-1.28-.08-.4-.11-.6-.1-1.09s.12-1.09.15-1.39c.03-.27.04-.48.03-.85"/><path class="cls-1" d="M26.8,18.1c.17.05.51.13,1,.19.03,0,.06.03.06.06.09.74.16,1.32.21,1.83.05.52.17,1.19.17,1.59,0,.4.06.96-.08,1.11.54-.1.86-.16,1.88-.17.19-.29.2-.48.06-1.41-.14-.88-.38-2.38-.44-2.87,0-.04.02-.07.06-.08.25-.01.69-.07,1.08-.16.04,0,.08.02.08.05.12.71.29,1.88.37,2.34.08.47.2,1.34.15,1.68-.05.34-.08.46-.27.45-.19-.02-.23-.01-.23-.01,0,0-.22.54-.16,1.24.06.69.07,1.21.09,1.69.02.48,0,1.45,0,1.87,0,.34.05,1.09.06,1.36,0,.05-.04.08-.09.07-.18-.06-.58-.17-.89-.21-.03,0-.05-.03-.06-.06-.07-.45-.18-1.37-.21-1.91-.03-.57,0-1.42-.01-1.98,0-.56,0-1.55,0-1.55,0,0-.79-.15-1.74.35,0,.54.07,1.62.09,1.9.02.28.07,1.42.09,1.85l.05,1.22s-.03.07-.07.07c-.21,0-.82,0-1.07.02-.04,0-.07-.03-.07-.07-.01-.41-.09-1.73-.09-2.17,0-.47-.06-2.23-.14-3.03.15-.04.27-.09.27-.09,0,0-.05-.54-.03-.92.02-.38.07-1.26.09-1.61.01-.35-.05-.81-.06-1.05-.01-.23.05-.5-.23-1.49-.01-.05.03-.1.08-.08"/><path class="cls-1" d="M35.26,21.88c-.18.29-.42,1.63-.46,1.83-.04.2-.22,1.74-.22,1.74l-1.31-.6s.16-.74.3-1.18c.14-.44.39-1.37.6-1.49.21-.12.56-.16.6-.83.04-.67.06-1.05-.22-2.91h.05s.4,1.02.5,1.36c.1.34.3,1.07.3,1.29s.04.51-.14.8M35.69,26.57c.03-.43.11-1.17.12-1.76,0-.58.11-.99.2-1.27.1-.28.27-.72.5-1.33.23-.61.02-1.23-.04-1.54-.06-.31-.12-.67-.16-1-.04-.33-.18-.81-.27-.96-.09-.15-.14-.66-.5-1.57-.01-.03-.04-.05-.08-.04-1.08.22-1.96.47-2.18.53-.03,0-.05.04-.05.07.02.25.11,1.28.21,2.11.12.95.03,1.82.03,1.9s-.09.22-.1.37c-.01.15-.13.29-.26.36-.39.22-.46.26-.53.41-.07.15-.32,1.06-.53,2-.21.94-.03,1.7.06,2.35.07.55.02,1.48,0,1.75,0,.04.03.07.07.07.19,0,.67-.03.96-.03.04,0,.08-.04.07-.08-.06-.32-.31-1.33-.35-1.72-.05-.44.09-.75.18-1.3.52.05,1.12.56,1.38.67-.06.64.02.87.14,1.16s.15.86.15,1.04c0,.14.11.33.16.41.01.02.04.03.06.03.15,0,.68-.04.99-.05.05,0,.08-.05.06-.09-.07-.22-.17-.32-.32-.45-.17-.15-.11-.66-.1-.83,0-.17.07-.81.1-1.23"/><path class="cls-1" d="M40.07,18.84l1.09-.19s.06-.04.06-.07c-.02-.25-.19-1.14-1.32-1.43-1.32-.34-1.81.22-1.97.38-.17.16-.29.73-.24,1.2.05.47.05,1.1.05,1.38s.05,1.13.15,1.64c.1.51.17,1.1-.17,1.63-.33.52-.73,1.13-.84,1.28-.11.14-.33.26-.3.98.03.73-.13,1.45-.08,1.84.07.48-.08,1.57.43,1.79.52.23.79.31,1.41.37.24.02.98.12,1.2.12s1,.01.92-1.4c0-.04-.03-.07-.07-.06-.29,0-.92.02-1.13.02-.04,0-.07.03-.07.07,0,.19-.06.74-.62.74-.68,0-.82-.56-.85-1.09-.03-.53-.04-1.07-.07-1.59-.03-.52-.19-1.31.3-1.83.49-.52,1.2-1.4,1.05-2.25-.14-.85-.27-2.15-.29-2.5-.02-.34-.05-.7-.08-1-.03-.3.23-.65.6-.64.35,0,.67.19.74.56,0,.04.04.06.08.05"/><path class="cls-1" d="M44.15,18.15c-.17.21-.6.74-.63,1.71-.02.98-.05,2.05-.03,2.98.01.92.06,1.46.1,1.82.03.36.13,1.11.02,1.55-.11.44-.21,1.09-.06,1.51s.46.95-.08,1.12-.88-.22-1-.73c-.12-.51-.11-.94-.17-1.45-.06-.51-.13-1.42-.15-2.03-.02-.61-.05-1.88-.05-2.53,0-.65-.06-1.59.28-2.08.34-.49.67-.9.73-1.21.06-.31.13-1.19.77-1.15.4.02.4.31.26.48M45.09,17.53c.15-.42.15-.56-.26-.87-.41-.32-1.16-.26-1.7-.09-.8.26-1.24,1.12-1.15,1.83.09.71.11,1.23.02,1.69-.1.45-.65,1.02-.89,1.28-.23.31-.24,1.46-.24,2.23s.09,2.53.23,3.94c.14,1.41.46,1.89,1.06,2.22.6.33,1.84.53,2.48-.1.64-.64.19-1.32-.03-1.75-.23-.43-.2-.92.13-1.71.33-.79.16-1.69.13-2.06-.03-.37-.06-.46-.1-1.57-.05-1.1.02-2.28.03-3.27.01-.99.15-1.34.3-1.76"/></svg>