<?xml version="1.0" encoding="UTF-8"?><svg id="Camada_1" xmlns="http://www.w3.org/2000/svg" viewBox="0 0 45.1 27.09"><defs><style>.cls-1{fill:#010101;}</style></defs><path class="cls-1" d="M6.33,9.83c-.22.12-1.1.57-1.1.57,0,0-.03-.4-.12-.7-.09-.3-.25-.48-.28-.85-.03-.37.11-.66.03-1.13-.07-.47-.14-.93-.35-1.44s-.57-1.26-.61-1.95c-.04-.69.03-1.24.23-1.57.2-.33.34-.48.29-.84,0,0,.59-.06.71-.1.12-.03.46-.04.36.13-.1.17-.33.58-.26,1.69.07,1.11.11,1.42.38,1.97.27.56.46.85.54,1.37.08.52.11.68.03.9-.09.22,0,.57.09.85.09.28.18.46.22.65.04.19.06.31-.16.43M7.6,8.83c-.03-.29-.14-.64-.17-.8-.03-.15-.01-.4.04-.51s0-.36-.08-.82c-.08-.46-.32-.91-.62-1.41-.3-.5-.26-1.15-.26-1.8s.04-1.56.07-1.98c.03-.41-.03-.42-.57-.68-.54-.26-1.14-.15-1.69-.13-.42.02-.9,0-1.09-.01-.05,0-.09.04-.08.08.05.48.17,1.65-.04,2.13-.16.39-.35.57-.42,1.24-.05.5.08,1.11.27,1.57.18.47.5,1.31.55,1.53.04.22.08.52.15.87.06.34-.03,1.13.02,1.41.05.26.29.87.37,1.32,0,.04.05.07.1.06.22-.06.86-.24,1.35-.28.61-.06.96-.07,1.61-.57.61-.48.52-.94.49-1.23"/><path class="cls-1" d="M8.08.2s.02-.03.04-.04c.09-.04.44-.19,1-.15.55.04,1.49.13,1.76.15.04,0,.07.04.07.08l-.05,1.16s-.04.08-.09.07c-.28-.03-1.18-.14-1.58-.17-.04.77-.09,1.74-.14,2.18-.04.43-.09,1.41.43,2.18.53-.02,1.37-.03,1.55-.03.02,0,.04,0,.06.03.06.07.22.26.33.58.02.05-.02.1-.07.1-.49.01-1.2.06-1.53.16.12.36.13.78.15.85.03.07.08.23.08.5s0,.84.04,1.21c.05.37.11.62.11.62,0,0,1.27.15,1.59.31.03.01.05.04.04.07,0,.27-.05.72-.07.92,0,.05-.05.08-.1.07-.28-.09-1.2-.35-2.68-.46-.04,0-.07-.04-.07-.08.04-.46.05-1.06-.07-1.37-.12-.32-.06-.65-.09-1.01-.03-.36-.08-.71-.08-.91s-.12-.99-.2-1.1c-.08-.11-.64-.85-.68-1.76-.04-.89.08-3.73.25-4.15"/><path class="cls-1" d="M11.96.26l1.07.07s.07.03.07.07c.02.19.09.78.09,1.1,0,.39,0,1.78.09,2.06.08.27.25.66.25,1.04s.04.89.17,1.33c.13.44.47.77.58.96.11.19.27.54.28.99.01.45.07.78.18.94.11.17.24.34.19.95-.05.61-.07,1.08-.07,1.08l.08.03s.1-.47.19-.88c.09-.41.16-.64.06-1.03-.1-.38,0-.45.05-.7.05-.25,0-.89-.17-1.16-.17-.27-.35-.62-.24-1.33.11-.71.15-.96.11-1.19-.03-.24-.05-.4.03-.73.08-.33.22-1.34.22-1.77,0-.35-.05-1.15-.06-1.43,0-.05.04-.09.09-.08.17.03.54.07.96.07.04,0,.07.03.08.07.08.77.16,1.59.1,2.21-.07.64-.21,1.27-.23,1.63-.02.35.09.74.05,1-.04.26-.16.64-.19.96-.03.32-.03.76.15,1.11.18.34.41.62.24,1.42-.17.8.15.79-.13,1.82-.2.72-.26,1.07-.28,1.21,0,.05-.05.07-.1.06l-2.02-.59s-.06-.04-.05-.08c.01-.13.04-.46-.02-.79-.08-.43-.11-.74-.09-1.22.03-.48.11-.82-.13-1.21-.24-.39-.19-.68-.22-.94-.03-.25-.15-.79-.43-1.07-.27-.28-.51-.47-.61-1.24-.1-.78-.11-1.07-.23-1.58-.11-.46-.16-2.63-.17-3.09,0-.05.04-.08.08-.08"/><path class="cls-1" d="M19.91,10.02c-.41-.12-.82-.18-1.03-.26-.21-.07-.37-.13-.37-.13,0,0,.03-.59.17-.98.13-.39.25-.81.26-1.33,0-.52-.02-1.07.03-1.48.06-.41.2-1.09.23-1.65.02-.56-.02-1.05.02-1.29.04-.24.06-.85.06-.85l.11.02s0,.68.07,1.17c.06.49.18.89.21,1.39.03.49.03,1.04.03,1.51,0,.47.07,1.22.16,1.7.09.47.23,1.03.06,2.18M21.3,12.61c-.27-.36-.26-.7-.26-.99,0-.3.04-.45.09-.78.04-.33-.03-1.01-.09-1.46-.06-.45-.08-.84-.09-1.31-.01-.47,0-1.43,0-1.83,0-.4-.05-1.54-.09-1.95-.04-.41-.13-1.19-.27-1.99-.12-.65-.28-1.1-.33-1.24-.01-.03-.04-.05-.07-.05-.13-.01-.5-.04-.72-.06-.26-.02-.65-.2-1.28-.22-.04,0-.07.03-.08.07-.02.2-.08.76-.11,1.17-.03.5.01,1.36,0,1.93-.02.57-.14.91-.19,1.27-.05.37-.03.65,0,.97.04.32-.03.73-.11,1.13-.08.4-.22.92-.23,1.1,0,.17,0,.46.26.8.26.34.22.75.2.92s-.12.53-.15.76.04.7.02.94c-.02.21-.2.59-.23.79,0,.04.02.08.06.09.53.09.81.23.94.32.05.03.12,0,.12-.06.01-.22.04-.61.04-.76,0-.2.09-.41.11-.62.03-.2.11-.33.14-.51.03-.17.03-.45-.1-.72.44.44.81.71,1.04.88.04.18.23.4.5.69s.23.51.22.76c0,.23-.03.55-.06.89,0,.04.03.08.07.08.3.03.68.14.96.25.05.02.1-.01.1-.06.06-.6-.19-.87-.44-1.21"/><path class="cls-1" d="M22.6,14.33l.81.48c.05.03.12-.01.11-.07-.04-.29-.1-.91-.05-1.44.07-.71.2-1.75.18-2.67s-.13-1.45-.31-2.6c-.18-1.15-.31-2.85-.34-3.54-.03-.7-.15-2.75-.15-2.75h.06s.26,2.63.62,4.2c.37,1.57.93,3.59,1.1,4.6.17,1,.34,2.65.47,4.61,0,.04.03.07.07.07.56.04,1.01.02,1.43,0,.32-.02.61-.06.74-.07.04,0,.07-.04.07-.08-.02-.26-.1-1.15-.09-1.76.02-.71.08-1.56,0-2.63-.07-1.06-.2-2.29-.61-3.37-.42-1.07-.79-1.87-.85-3.34-.05-1.31.19-3.02.24-3.38,0-.04-.02-.08-.06-.09l-.52-.12s-.09.02-.09.07c-.03.37-.16,1.85-.1,3.16.07,1.51.29,2.28.45,3.04.16.76.4,1.9.5,3.23.1,1.33.1,2.23.08,2.67-.03.44-.08,1.47-.08,1.47h-.09s.03-1.05-.03-1.72c-.05-.66-.37-2.23-.58-3.14-.2-.91-.51-2.1-.81-3.62-.3-1.52-.57-2.97-.71-3.93-.11-.74-.18-1.15-.21-1.29,0-.04-.04-.06-.08-.06-.25,0-1.15.04-1.79.35-.03.01-.04.04-.04.08.08.72.35,1.4.41,2.31.06.93-.11,1.84-.14,2.3-.03.47-.05,1.39.08,2.12.13.73.15,1.26.14,1.67,0,.41-.09,1.5-.08,1.95,0,.44-.03,1-.06,1.18-.03.18-.14.72-.04,1.14.1.39.26.7.27.9,0,.03.02.05.04.06"/><path class="cls-1" d="M27.22.66c.57.08.81.09,2.69.04.04,0,.08.03.08.08,0,.46-.03.83,0,1.16,0,.04-.03.08-.08.08-.48,0-1.64,0-1.64,0,0,0,.03.75.12,1.45.09.7.08.92.13,1.38.06.45.12.87.17,1.23.05.36.14.94.14.94,0,0,.27-.07,1.49-.07.04,0,.07.03.08.06.07.41.08.66.17,1,.01.05-.02.09-.07.1-.39,0-1.26.05-1.52.15.06.5.2,1.54.29,2.39.08.85.21,2.31.32,2.95.43-.03,1.29-.13,1.54-.16.04,0,.08.03.08.07l.12,1.05s-.03.08-.07.08c-.24.03-1.01.11-1.33.16-.31.04-.97.15-1.19.19-.04,0-.08-.02-.09-.06-.04-.16-.13-.56-.19-1.03-.07-.6-.18-1.94-.22-2.58-.04-.64-.04-1.77-.29-2.87-.25-1.11-.45-1.92-.58-2.88-.13-.96-.34-2.8-.32-3.35.02-.45.06-1.23.07-1.48,0-.04.04-.08.09-.07"/><path class="cls-1" d="M31.25.79c.88-.02,1.68-.07,2.49-.07.04,0,.08.03.08.08,0,.38,0,.88,0,1.07,0,.04-.03.08-.08.08h-.68s.04.8.03,1.17c0,.37,0,1.24.05,1.64.05.4.3,1.22.36,1.63.06.41.16,1.2.16,1.67s.06,1.49.22,2.24c.16.75.39,1.5.42,2.79.23,0,.51-.04.64-.06.04,0,.08.02.09.07l.13,1.07s-.02.08-.07.09c-.22.03-.86.11-1.3.15-.44.04-1.01.13-1.21.16-.04,0-.08-.02-.09-.07l-.12-1.11s.03-.08.07-.08l.65-.06s-.07-.49-.15-1.31c-.08-.82-.2-1.67-.32-2.15-.12-.48-.26-1.22-.29-1.79-.03-.57,0-1.4-.09-1.84-.09-.43-.38-1.51-.41-2.25-.03-.74,0-1.9,0-1.9,0,0-.28.03-.63.03-.04,0-.08-.04-.08-.08.02-.29.04-.87.05-1.07,0-.04.03-.07.07-.07"/><path class="cls-1" d="M38.15,13.2c-.56.09-1-.4-1.05-1.26-.04-.68-.13-1.59-.29-2.03-.15-.44-.76-1.24-.69-1.97s.11-1.17.06-1.84c-.06-.67-.04-1.34-.06-1.85-.02-.5-.04-1.34-.04-1.7s.15-.77.68-.8c.53-.03.73.34.75.85.01.52.02,1.72.03,2.14.01.41.04,1.5.04,1.82s-.2,1.46-.17,1.84c.03.38.02,1.11.52,1.88.5.77.61.87.67,1.54.06.66.28,1.25-.44,1.36M39.33,11.15c-.51-.43-.62-.81-.71-1.18-.08-.37-.03-2.01-.01-2.34.02-.33.07-.95.11-1.03.04-.08.07-.8.08-1.28.01-.48-.01-1.54-.06-2.79-.05-1.25-.87-1.98-1.8-1.98-1.56,0-1.96,1.04-2.08,1.55-.12.51-.05,1.45-.03,1.87.02.41.03.96.09,1.19.06.24.12.62.12.9s-.03.59-.04,1.13c-.01.54.19.96.38,1.43.19.47.24,1.33.27,1.68.03.36-.05.38.31,2.07.36,1.68,1.52,1.77,2.47,1.77s1.54-.68,1.58-1.32c.04-.64-.16-1.24-.67-1.66"/><path class="cls-1" d="M3.11,20.52c-.36.54-.57.84-.57,1.4s.3,1.04.27,1.55c-.03.51-.07,1.03-.11,1.2-.04.17-.16.54-.4.47-.24-.06-.53-.11-.53-.11,0,0-.04-.72-.2-1.22-.17-.5-.43-1.05-.38-1.56.05-.51.21-.67.62-1.2.41-.54.38-1.26.32-1.87-.06-.61-.17-2.12-.2-2.69-.03-.57-.15-2.21-.15-2.21,0,0,.47-.03.69-.04.22,0,.68.08.75.79.07.71.14,1.91.17,2.38.03.47.11,1.38.11,1.73,0,.35-.03.84-.39,1.38M4.64,18.08c-.03-.62-.09-1.64-.22-3.21-.13-1.57-1.49-1.87-2.01-1.87-.46,0-1.56.09-1.86.11-.04,0-.07.04-.07.08.03.48.18,3.14.2,3.59.03.49.19,2.59.26,3.27.07.68,0,1.2-.42,1.7-.42.5-.55.83-.52,1.27.03.44.47,1.54.63,2.08.13.42.2.84.22,1,0,.04.04.06.08.06.19,0,.79.02,1.34.17.68.19.88-.15,1.02-.52.14-.37.2-1.15.42-2.15.22-1,.01-1.49,0-1.76,0-.27.16-.93.6-1.82.44-.89.35-1.39.33-2.01"/><path class="cls-1" d="M7.88,20.79c-.15.5-.17.94-.21,1.45-.04.51-.2,1.21-.27,1.56-.08.36-.12,1.06-.22,1.3-.1.24-.4.65-.97.45-.57-.2-.37-.77-.31-1.11.06-.34.2-1.56.23-1.91.03-.36.21-1.22.37-1.67.15-.45.37-1.28.35-1.79-.02-.51-.19-1.16-.19-1.72s.03-2.04.03-2.49.08-.99.44-1.03c.3-.04.51.2.45.99-.06.8-.17,1.76-.14,2.37.03.61.23,1.53.35,1.99.12.46.24,1.1.09,1.61M8.95,19.6c-.11-.51-.25-1.29-.37-2.1-.13-.81-.13-1.6-.07-2.18.06-.58.14-1.33-.07-1.9-.21-.56-.67-.93-1.31-.82-.74.13-1.13.51-1.39,1.1-.24.56-.12,1.75-.07,2.74s.07,1.9.09,2.4c.03.5-.33,1.43-.49,1.88-.16.45-.34,1.06-.36,1.4-.02.34-.21,1.67-.25,2.22-.04.54-.18,1.17.32,1.81.49.64,1.64.88,2.55.41.91-.48.87-1.67.9-2.1.03-.43.18-1.16.34-1.74.16-.58.27-1.27.29-1.67.02-.4,0-.93-.12-1.44"/><path class="cls-1" d="M11.87,13.35l1.05.29s.06.04.06.08c-.02.21-.1.9-.14,1.19-.04.34-.23.85.15,1.64.37.78.32,1.13.27,1.71-.04.59-.06,1.1.21,1.76.27.66.33,1.31.33,1.84,0,.54,0,1.05-.05,1.58-.05.54-.17,1.42-.15,2.01.03.01.1,0,.1,0,0,0,.11-.79.26-1.32.15-.53.28-.81.36-1.36.08-.55.22-1.48.11-1.93-.11-.45-.13-.78-.04-1.19.08-.4.22-.85.2-1.15-.03-.3-.24-.82-.24-1.08s.11-.52.08-.8c-.03-.29-.04-.84.06-1.23.09-.33.33-.97.4-1.17.01-.03.05-.05.09-.05.15.03.55.11.83.23.04.02.05.06.04.09-.17.51-.35,1.01-.37,1.34-.03.34-.02.55.03.87.05.31.09.73.06,1.19s.03.83.05,1.09c.02.26.06.8-.03,1.3-.08.5-.03.83,0,1.26.03.43-.03,1.31-.13,1.83-.11.52-.5,1.6-.56,1.98-.05.36-.13.81-.09,1.28,0,.05-.03.08-.08.08-.58-.02-1.64-.12-1.98-.11-.03,0-.07-.02-.07-.06-.2-.74-.24-1.34-.23-1.83.01-.5.13-1.5.13-2.12s.02-1.89-.04-2.38c-.06-.49-.11-1.1-.35-1.69-.24-.59-.19-.89-.17-1.27s.11-.89-.15-1.6c-.27-.71-.22-1.15-.19-1.5.02-.26.08-.61.11-.77,0-.04.05-.07.1-.06"/><path class="cls-1" d="M16.91,14.79l2.51.82s.06.05.05.08c-.02.13-.06.44-.07.66,0,.05-.04.08-.09.07-.43-.07-1.57-.28-1.57-.28,0,0-.1.49-.1,1.04s.39.58.42,1.13c.02.4.05,1.25.31,1.73.45-.01,1.24.1,1.48.18.02,0,.04.02.04.04.15.29.23.47.22.75,0,.04-.03.07-.07.07-.42.02-1.2.08-1.55.06-.06.38.08,1.14.07,1.88-.03,1.38-.35,2.04-.37,2.57.43.03,1.31.07,1.58.09.05,0,.08.04.07.09-.03.19-.09.67-.03,1.09,0,.05-.03.09-.08.09-.67-.03-2.29-.1-2.72-.11-.04,0-.07-.03-.08-.07-.09-.79-.02-1.24.1-1.84.13-.62.32-1.33.31-1.85,0-.52-.16-1.2-.16-1.63s0-1.33-.05-1.56c-.06-.24-.26-.67-.26-1.21s-.06-1.12-.21-1.35c-.15-.23-.31-.64-.15-1.39.13-.66.24-1,.33-1.13.02-.03.05-.04.09-.03"/><path class="cls-1" d="M20.93,16l1.06.25s.06.04.06.08c-.01.13-.05.43-.06.57-.02.19.04.52,0,.76-.04.25-.06.72-.06.97s.05.57.19.7c.14.13.31.09.3.64-.02.55-.03,1.5.2,1.8.22.31.22.72.2,1.06-.02.34,0,1.16-.07,1.44-.07.28-.18,1.1-.17,1.49.47-.01,1.37.22,1.6.28.03,0,.05.04.06.07l.04.89s-.03.08-.08.08c-.43,0-2.45-.01-2.86-.07-.04,0-.07-.04-.07-.08,0-.64.03-1.45.1-1.9.08-.47.22-1.19.23-1.5,0-.31-.08-.82-.05-1.09.03-.27.04-.82-.03-1.08s-.31-.54-.32-1.06c0-.52.07-1.03-.15-1.27-.22-.25-.43-.26-.36-.96s.09-.97.1-1.31c0-.25.04-.56.06-.71,0-.05.05-.08.09-.07"/><path class="cls-1" d="M24.67,16.87l1.07.21s.07.05.06.09c-.04.16-.12.53-.11.69.01.21,0,.37.08.43.08.06.12.19.1.42-.02.23-.04.85-.04,1.12s.02.59.11.7c.09.11.18.27.19.41.3.07,1.74.44,1.74.44,0,0-.08-.34-.08-.56,0-.22-.02-.91-.01-1.3,0-.4-.03-.87-.11-.96s-.13-.3-.13-.55c0-.2.04-.54.05-.68,0-.04.03-.07.07-.07l1.02-.09s.08.03.08.08c0,.18-.02.6,0,.81.03.28.07.49.16.62.09.13.11.42.12.64,0,.22.03,1.1.03,1.4,0,.29.11.96.11,1.41s0,1.4,0,1.9c0,.5.01,1.12.13,1.49.11.34.41.97.48,1.39,0,.05-.03.09-.08.09-.28,0-.95,0-1.17,0-.04,0-.07-.03-.08-.07,0-.13-.03-.42-.08-.53-.06-.15-.34-.6-.4-1.13-.06-.53-.08-1.63-.07-2.01.01-.38.03-1.22.03-1.22l-1.82-.22s-.04,1.02-.04,1.39c0,.37.08.98.09,1.37.01.4.04,1.2.13,1.45.09.24.24.44.23.95,0,.04-.03.07-.07.08-.33.01-.95.04-1.16.04-.04,0-.08-.03-.08-.07,0-.11,0-.32-.01-.54,0-.31-.16-.17-.18-.55-.02-.38.13-.94.16-1.27s0-.85-.16-1.2c-.16-.35-.17-.54-.16-.83.01-.29.06-1.25.06-1.54,0-.29.04-.62-.17-.82-.2-.19-.24-.41-.22-.69.01-.28.04-.96.04-1.33s-.15-.17-.13-.59c.01-.32.07-.61.1-.74,0-.04.05-.07.09-.06"/><path class="cls-1" d="M32,23.89s.12-.71.2-1.09c.08-.38.24-1.1.28-1.81.04-.71.13-1.4.08-1.94-.05-.54-.1-.85-.15-1.06h.11s.04.22.15.33c.1.11.27.28.36.8s.2,1.07.22,1.52c.02.45.08,1.42.1,1.72.01.31.03,1.06.15,1.44-.37.02-1.49.09-1.49.09M35.23,25.39c-.36-.58-.5-1.4-.54-1.7-.04-.31-.03-1.44-.05-1.89-.02-.45-.14-1.52-.26-2.32-.12-.8-.27-1.12-.49-1.42-.22-.3-.43-1.34-.43-1.34l-2.3.26s-.01.29,0,.75c0,.46.09,1.18.11,1.71.02.53-.08,1.38-.15,1.94-.06.55-.17,1.06-.26,1.62-.1.55-.11,1.08-.11,1.61s.05.91.14,1.29c.09.38.18,1.09.18,1.09l1.3-.04s-.08-.4-.12-.61c-.04-.21-.25-.85-.23-1.26.39,0,1.29-.03,1.71-.08.06.41.99,1.84.99,1.84l1.29-.23s-.41-.64-.76-1.22"/><path class="cls-1" d="M38.51,17.79c.19,0,.72-.01,1.14-.1.05,0,.07-.06.06-.1-.24-.66-.82-1.25-1.48-1.35-.69-.1-1.48-.04-1.91.41-.43.45-.64.78-.47,1.34.18.55.27,1.26.3,1.67.03.41.08,1.52.08,1.98,0,.47-.05.81-.15.94-.1.13-.29.2-.23.75.06.55.19,1.28.36,1.74.17.46.2.72.94.96.75.24,1.35.43,1.94.28.58-.14,1.44-.66,1.28-1.59,0-.04-.05-.07-.09-.06-.32.08-.94.23-1.14.28-.03,0-.06.04-.06.07,0,.13-.08.42-.74.46-.84.04-.81-.36-1.03-1.13-.22-.77-.25-1.32-.23-1.62s.13-.4.28-.51c.15-.11.22-.41.22-.88,0-.47-.15-1.65-.24-2.17-.09-.52-.17-1.13-.22-1.33-.05-.2-.08-.49.48-.59.51-.09.8.28.84.49,0,.04.04.06.08.06"/><path class="cls-1" d="M43.04,22.67c.14.38.31.68.51.97.2.29.36.73,0,.92-.36.19-1.01.06-1.39-.58-.38-.64-.65-1.57-.69-2.04-.04-.47-.03-.81.37-.91.4-.09.57-.22.48-.95-.09-.73-.4-2.19-.54-2.62-.14-.43.21-.71.61-.71.4,0,.75.07.87.68.08.42.4,1.45.46,1.85.06.4.2.85-.07,1.19-.36.46-.85.13-.87.61-.02.43.12,1.21.26,1.59M44.45,22.7c-.26-.43-.42-1.37-.43-1.79-.01-.43-.05-.37.58-.55.63-.18.5-1.13.23-2.4-.27-1.27-.5-1.43-.82-1.7-.32-.27-1.07-.78-2.01-.57-1.68.38-1.67,1.51-1.46,2.21.2.67.48,2.08.52,2.73.03.65-.23.77-.51.84-.28.07-.3.15-.31.39,0,.24.08.81.25,1.51.18.7.64,1.29.91,1.53.27.24.48.49,1.01.82.53.33.91.2,1.52-.08.61-.28,1.03-.75,1.16-1.29.13-.54-.37-1.22-.64-1.64"/></svg>