<?xml version="1.0" encoding="UTF-8"?><svg id="Camada_1" xmlns="http://www.w3.org/2000/svg" viewBox="0 0 40.52 28.69"><defs><style>.cls-1{fill:#010101;}</style></defs><path class="cls-1" d="M5.67,10.71c-.04.59-.05,1.02-.08,1.17-.04.15-.2.51-.69.46-.48-.05-.69-.07-.69-.07,0,0,.11-1.15.17-1.71s.03-1.47-.26-2.49c-.29-1.03-.33-1.17-.26-1.62.06-.45.11-.79.07-1.03-.04-.24-.02-.41,0-.61.02-.2,0-.48.02-.79.02-.31-.02-1.3-.08-1.59,0,0,.37.02.71.04.34.02.61.3.64.65.03.36.06,1.27.04,1.44-.02.17-.09.76-.08,1.01,0,.25.08.78.05,1.06-.02.28-.13.77-.15,1.06-.02.29-.03.78.19,1.25s.45,1.17.42,1.76M6.3,9.54c-.18-.45-.11-.98-.05-1.34.05-.36.14-.74.14-1.04,0-.3-.02-.76-.03-.98,0-.22.04-.69.06-.91.02-.22-.02-.65,0-1.39.02-.74.03-1.35-.48-1.97-.52-.62-1.4-.71-1.89-.71-.4,0-1.12-.07-1.36-.1-.04,0-.08.03-.08.07.02.35.12,1.73.14,2.17.02.5-.02.94-.04,1.29-.02.36-.08.69-.05,1.26.02.57.26,1.44.39,2.17.13.73.2,1.35.19,1.89,0,.55-.14,1.58-.18,2.06-.04.4-.07,1.08-.08,1.3,0,.04.03.07.07.07.24,0,1.05,0,1.66.09.73.1,1,.02,1.54-.44.54-.46.54-1.22.56-1.92.02-.69-.32-1.13-.5-1.58"/><path class="cls-1" d="M9.74,1.82c.21.33.34.6.42.8.02.05-.03.1-.08.09-.33-.07-.92-.14-1.3-.12.03.63-.01,1.56,0,2.08.01.52-.01,1.25-.05,1.61-.04.37-.07.83-.04,1.28.38-.04.9-.15,1.25-.26.04-.01.08.02.09.06.04.4.08.91.09,1.08,0,.04-.02.07-.06.07-.22.04-.99.16-1.44.05-.01.56-.06.86-.09,1.14-.03.29-.06.6.1,1.18.16.58.43,1.11.42,1.89.37,0,1,.16,1.4.21.02,0,.04.02.05.04.11.26.05.79.02.98,0,.04-.04.06-.08.06-.14-.03-.49-.08-.74-.1-.34-.02-.92-.04-1.2-.08-.21-.03-.52-.05-.65-.06-.04,0-.07-.04-.06-.07.02-.23.09-.97.12-1.41.03-.53.05-.96-.35-1.75-.39-.79-.2-1.29-.16-1.62.05-.33.11-1.36.12-1.72,0-.36.09-1.27.09-1.81,0-.54-.01-2.09,0-2.58,0-.41-.01-1.22-.02-1.46,0-.04.03-.07.07-.07.23,0,.99.03,2.06.47.01,0,.02.01.03.03"/><path class="cls-1" d="M10.55,1.94c.29,0,.73-.04,1.04-.12.04,0,.07.01.08.05.12.53.26,1.09.49,1.63.24.56.45,1.05.43,1.69-.02.86-.37.81-.27,1.51.11.82.29,1.45.44,2.13.15.68.31,1.57.42,2.18.11.61.19,1.39.11,1.88.03.01.06,0,.06,0,0,0,.19-1.3.19-1.64s-.02-1.64-.04-2.1c-.02-.47,0-1.26-.02-1.76-.02-.5-.07-1.43.1-1.66.21-.29.45-.24.52-.63.03-.21.03-.34,0-.44-.03-.1-.03-.21-.04-.4-.01-.19-.06-.76-.08-1.05-.02-.27-.1-1.17-.26-1.62-.02-.04.02-.09.06-.09.3,0,.72,0,.84,0,.02,0,.04.01.06.03.08.11.34.55.44,1.39.12.99.12,1.27.12,1.57,0,.41-.06.41-.29.53-.23.13-.31.39-.3.94,0,.55.03,1.06.03,1.63s.01,1.59-.05,2.28c-.06.7-.2,1.65-.28,2.25-.07.53-.25,1.67-.3,1.94,0,.03-.03.06-.07.06-.23,0-1.05-.03-1.61,0-.04,0-.07-.03-.07-.07.04-.58.12-1.3-.16-2.43-.3-1.17-.38-1.86-.47-2.24-.09-.37-.27-.94-.35-1.38-.08-.44-.18-1.19-.12-1.69s.29-.71.24-1.6c-.05-.89-.26-1.33-.48-1.79-.17-.33-.38-.71-.48-.89-.03-.05,0-.1.06-.1"/><path class="cls-1" d="M17.33,9.72c.03-.6.12-1.54.14-1.96.02-.42.03-1.58.06-2.1.03-.52.09-1.71.05-2.17-.04-.47-.11-1.53-.15-1.77l.07-.04s.14.47.23.73c.1.26.27.82.32,1.27.05.45.11,1.48.13,1.94.02.47.05,1.53.05,2.01,0,.48.01,1.65.06,2.01-.42.05-.83.07-.95.07M19.2,10.71c-.14-.9-.26-2.42-.29-3.01-.03-.59-.05-1.98-.05-2.67s.03-1.59,0-2.32c-.03-.71-.22-1.4-.7-2.29-.02-.03-.06-.04-.09-.03-.56.27-1.62.63-1.89.72-.04.01-.06.05-.04.09.1.29.51,1.48.53,1.94.02.52-.28.47-.27.9s.01,1.35.01,1.92-.09,2.02-.14,2.67c-.05.65-.15,1.77-.21,2.32-.06.55-.18,1.8-.24,2.35-.04.38-.09.66-.11.79,0,.04.03.08.07.08.19-.02.66-.07.9-.1.03,0,.06-.03.06-.06.02-.29.12-.76.2-1.17.08-.43.19-1.45.26-1.93.32,0,1.11-.06,1.11-.06,0,0,.07,1.51.12,2.09.04.46.14.8.18.93,0,.03.04.05.07.05l.97-.1s.07-.04.06-.08c-.07-.39-.38-2.21-.51-3.01"/><path class="cls-1" d="M19.97.46c.19.13.57.34,1.2.37.03,0,.05.02.06.04.13.35.28.79.49,1.18.22.4.53.95.74,1.45.21.5.57,1.27.69,2.16.12.89.23,1.81.3,2.31.06.5.25,1.44.34,1.91.09.47.44,2.37.44,2.37h.05s-.06-.73-.09-1.23c-.02-.5-.08-1.36-.09-1.87,0-.51-.03-.8-.06-1.3-.02-.5-.07-1.3-.17-1.97-.1-.67-.36-1.38-.57-1.91-.21-.53-.35-1.33-.38-1.91-.03-.51-.06-1.12-.1-1.38,0-.04.03-.08.07-.08.28,0,.77.03.91.04.03,0,.05.02.06.04.05.13.2.54.27,1.2.09.79.11,1.37.14,1.67.02.3.14.99.31,1.63.18.64.34,1.8.36,1.98.02.19.17.68.23.85.06.17.07.61.08.82s0,.6.04.83.05.59.03.91c-.02.33,0,.93.08,1.45.07.42.12.89.14,1.06,0,.04-.02.07-.05.07-.15.03-.52.1-.64.11-.15.02-.34.07-.59.1-.21.02-.66.1-.82.12-.03,0-.07-.01-.08-.05-.05-.15-.18-.59-.21-.8-.03-.27-.26-1.16-.36-1.61-.1-.45-.21-1.03-.26-1.41-.05-.38-.23-1.33-.27-1.8-.05-.46-.15-1.37-.18-1.72-.03-.35-.14-1.17-.18-1.59-.05-.42-.17-1.31-.32-1.75-.15-.44-.44-1.06-.53-1.21h-.06s.43.7.49,1.58c.06.88,0,1.75,0,2.29,0,.54-.02,2.6-.02,2.99s0,.86.02,1.29c.02.43.1,1.44.14,1.9.04.4.18,1.67.21,1.98,0,.04-.02.07-.06.08-.2.02-.79.07-1.02.06-.03,0-.06-.02-.06-.06-.11-.61-.18-1.46-.21-1.92-.03-.47-.11-1.73-.13-2.11-.02-.38-.03-1-.04-1.55,0-.54,0-1.64,0-2.09s.03-1.57.04-1.96c0-.39.06-1.34.03-1.89s-.1-1.11-.24-1.36c-.07-.12-.15-.23-.21-.32-.01-.02.01-.05.03-.03"/><path class="cls-1" d="M24.96.95s0-.08.05-.07c.23.04.75.12,1.19.17.45.05.78.05.9.05.03,0,.06.02.07.05.05.16.23.69.32.94.02.05-.02.1-.07.09-.35-.02-.66-.07-.78-.09-.12-.02-.31-.06-.4-.06.02.33.14.91.2,1.19.06.28.16.54.32.79.17.25.26.6.31.89.05.29.22,1.08.23,1.39.31-.11.96-.36,1.49-.4.04,0,.07.03.07.06.02.23.04.49.08.65.01.04-.01.08-.05.09-.44.09-.58.11-.71.15-.14.05-.34.12-.75.2.07.35.21.95.25,1.3s.03.73-.04.99c-.07.25-.11.5-.07.84.04.34.19,1.35.25,1.47.43-.07,1.14-.2,1.41-.23.04,0,.07.03.07.07,0,.27,0,.8,0,.97,0,.03-.02.06-.05.07-.3.07-1.81.43-2.33.42-.03,0-.06-.02-.07-.06-.13-.81-.22-1.37-.28-1.73-.06-.37-.06-.82,0-1.12.05-.3.08-.59.01-1.05-.07-.46-.08-.56-.09-.75,0-.19-.03-.5-.09-.65-.06-.15-.09-.26-.11-.41-.02-.15-.08-.41-.11-.49-.03-.09-.13-.53-.18-.79-.05-.25-.16-.81-.19-1.08-.03-.28-.12-.87-.18-1.06-.06-.19-.12-.63-.19-1-.07-.34-.25-1.39-.5-1.79"/><path class="cls-1" d="M28.18,1.11s.02-.07.06-.08c.2-.03.82-.14,1.12-.19.36-.06.64-.06.88-.11.15-.03.28-.06.36-.07.04,0,.08.02.08.06.01.11.03.32.07.45.03.15.09.45.11.59,0,.04-.02.07-.06.08l-.58.07s.08.57.28.96c.2.39.51.81.86,1.18.35.37.55.82.53,1.72-.02.9,0,1.67,0,2.17,0,.5.02,1.39.08,1.96.06.58.09.9.09,1.07.24-.05.45-.1.56-.12.04,0,.08.02.08.06l.07.95s-.03.07-.07.07c-.14,0-.46-.01-.73.03-.3.05-1.23.34-1.51.43-.04.01-.08-.02-.09-.06l-.09-1.02s.02-.07.06-.07l.61-.08s-.07-.49-.09-.74c-.02-.25-.05-.85-.1-1.19-.05-.34-.08-1.02-.08-1.58s0-1.41-.01-1.78c0-.37.05-1.16-.43-1.82-.48-.67-.78-.8-1.16-1.97-.16.02-.44.06-.55.06-.03,0-.06-.02-.07-.04-.1-.24-.26-.7-.29-.98"/><path class="cls-1" d="M36.05,8.47c0,.39-.01,1.81-.08,2.05-.07.25-.24.46-.45.52-.21.06-.65.06-.76-.35-.11-.41-.04-1.2-.03-1.78,0-.58.04-1.93.07-2.34.02-.4.03-1.33-.37-1.75-.4-.42-.89-.82-1.07-1.44-.18-.63-.66-1.71-.03-2.06.25-.14.85-.19.97.39.11.58.21,1.38.34,1.78.13.41.35.88.67,1.17.32.3.8.87.83,1.79.03.91-.09,1.63-.09,2.02M36.76,5.36c-.15-.3-.27-.46-.57-.82-.3-.37-.41-1.04-.53-1.79-.13-.75-.11-1.37-.53-2.02-.42-.65-1.27-.87-1.98-.64-.64.21-1.07.69-1.23,1.31-.16.62.14,1.43.36,1.99.24.59.83.87,1.11,1.36.25.43.2,1.44.17,1.83s0,1.45-.02,1.85c-.02.4.05,1.36.07,1.63.03.27.07,1.09.65,1.72.58.63,1.32.53,1.91.24.59-.29.92-.93.95-1.34.03-.41.07-1.4.09-1.73.01-.34.1-.77.1-1.67,0-.9-.4-1.62-.56-1.92"/><path class="cls-1" d="M2.7,26.67c-.3.58-.7.62-1.25.78.12-.39.25-.96.15-1.35-.12-.43-.46-.6-.45-1.36,0-.58,0-1.33.06-2.02.06-.69.07-2.17.07-2.71,0-.55-.01-1.96-.02-2.4-.01-.44-.06-.87-.06-.87h.53c.22,0,.58.1.52.73-.06.63-.16,1.51-.19,1.94-.03.43-.04,1.12-.07,1.56s-.13,1.01-.19,1.28c-.06.27-.11,1.02.17,1.65.28.64.52,1.04.66,1.36.14.32.38.84.08,1.41M3.55,24.38c-.22-.42-.73-1.39-.87-1.69-.14-.3-.08-1-.03-2.06s.13-1.53.2-2.13c.07-.6.23-.94.12-1.9-.11-.96-.83-1.02-1.17-1.04-.3-.01-1.43,0-1.73,0-.04,0-.07.03-.07.07.01.18.05.68.05,1.03,0,.44.07,2.16.1,2.79.03.63.07,2.16.09,2.67.02.51.06,1.91.07,2.35.01.44.02,1.15.11,1.56.09.41.01,1.32-.03,1.58-.04.24-.18.64-.21,1,0,.04.03.08.07.07.31,0,.92-.15,1.74-.3.89-.16,1.19-.72,1.41-1.16.23-.44.15-.75.32-1.35.17-.6.04-1.08-.18-1.51"/><path class="cls-1" d="M6.79,25.89c-.45.23-1,.18-1.11-.55-.11-.73.03-1.03.03-1.32,0-.29-.09-.71-.26-1.08-.2-.43-.42-.32-.54-.53-.11-.19-.16-.42-.13-.79.02-.37.05-1.18.11-1.56.05-.38.2-1.15.22-1.51.02-.36,0-1.18.23-1.39.22-.21.53-.37.83-.17.3.2.36.36.3.83-.03.31-.14,1.21-.18,1.59-.03.38-.12,1.29-.14,1.67s-.02,1.12.05,1.31c.07.19.13.2.44.18.16.28.32.44.28.94-.04.51-.09.87,0,1.25.1.38.3.9-.15,1.13M8.05,24.49c-.07-.3-.01-1.01,0-1.43.01-.42.02-.42-.39-.43-.45-.02-.3-1.27-.26-1.95.04-.68.15-1.77.26-3.03.11-1.26-.96-1.87-1.54-1.93-.54-.06-.99-.02-1.56.57-.57.58-.54,1.2-.57,1.58-.03.38-.2,1.69-.24,1.92-.03.22-.08.9-.1,1.06-.02.16-.02.48-.02.87,0,.38.1.71.28.92.19.21.3.45.55.95.24.5.3.86.26,1.21-.04.35-.21.76-.03,1.31.18.54.59,1.04,1.68.98,1.09-.07,1.35-.31,1.74-.92.39-.6.04-1.35-.03-1.65"/><path class="cls-1" d="M10.78,16.19c.14,0,.48.01.74,0,.04,0,.07.03.07.07.01.45.01,1.23.09,1.67.08.46.2,1.15.27,1.66s.14,1.09.2,1.43c.06.34.14,1.01.15,1.17.01.17.08.79.28.84.26.06.42.01.42.53,0,.6,0,1.29.02,1.69.02.4.08.74.08.74l.08.02s.05-.79.12-1.33c.07-.53.17-.88.17-1.15.02-.55-.14-.17-.14-.63,0-.4.01-1.07.04-1.5.03-.44.09-1.27.1-1.92,0-.65.03-1.29.06-1.76.03-.45.08-.97.09-1.37,0-.04.03-.07.07-.07.2,0,.46-.02.58-.02.1,0,.33,0,.45,0,.04,0,.07.03.07.07-.02.29-.11,1.36-.13,1.86-.05.86-.03,1.39-.03,1.91,0,.26-.06,1.14-.08,1.47-.02.33-.03.59-.02,1.03.01.43,0,.6.05.81s.02.57-.04.95-.21,1.14-.26,1.58c-.05.42-.06.67.03,1.06,0,.02-.01.03-.03.03-.44-.13-.9-.28-1.12-.34-.17-.04-.57-.11-.73-.13-.04,0-.06-.04-.06-.07,0-.09-.07-.34-.14-.58-.11-.34-.28-.57-.34-1.28-.06-.7-.03-1.31-.04-1.39-.01-.08-.05-.16-.06-.2,0-.04.02-.14-.1-.14-.12,0-.5.05-.55-.36-.05-.41-.08-.8-.12-1.19-.04-.39-.12-1.21-.21-1.64-.09-.43-.22-1-.24-1.62-.01-.54.11-1.6.15-1.86,0-.03.03-.06.07-.06"/><path class="cls-1" d="M15.72,16.38s.03-.06.07-.06c.11,0,.36,0,.55-.04.25-.04.61-.1.78-.09.14,0,.96-.11,1.21-.15.04,0,.07.02.08.06.03.17.09.62.07.95,0,.03-.02.05-.04.06-.41.19-1.52.21-1.52.21,0,0,0,.85.02,1.3.03.45.1,1.24.13,1.55.03.31.12,1.17.12,1.17,0,0,1.08-.08,1.5-.15.04,0,.07.02.08.06.04.39.06.77.07,1.04,0,.03-.02.06-.06.07-.38.07-1.09.16-1.5.19.05.49.06.86.06,1.09s.02.49.06.73c.04.24,0,.93-.03,1.31-.03.38-.05.7-.05.7l1.44.11s.06.03.06.07l-.05,1.03s-.04.07-.07.06c-.2-.02-.8-.07-1.12-.09-.33-.02-1.17-.08-1.42-.09-.04,0-.07-.04-.06-.07.01-.16.04-.57.06-.9.02-.42.09-1.54.11-1.82.02-.28.02-.46-.07-.93-.09-.47-.13-1.56-.17-2.01-.05-.44-.11-1.16-.15-1.75s-.12-1.42-.14-1.92c-.02-.47-.06-1.36-.03-1.7"/><path class="cls-1" d="M19.65,15.89s.02-.06.05-.07c.21-.06.32-.04.51-.04.18,0,.33-.07.51-.02.03,0,.05.03.05.06.04.44.08.98.1,1.49.02.53.04,1.76.11,2.21.07.45.29,1.12.28,1.62,0,.5-.04,1.77-.02,2.2.02.43.07,1.38.02,2.08-.05.7-.09,1.42-.09,1.42,0,0,.69.22,1.36.26.04,0,.06.03.06.07,0,.26,0,.75,0,.94,0,.04-.03.07-.07.07-.2-.01-.8-.06-1.33-.2-.58-.14-.88-.2-1.06-.22-.04,0-.06-.04-.06-.07.02-.45.13-1.61.13-2.33,0-.75-.08-2.05-.08-2.53s-.02-1.86-.09-2.25c-.07-.39-.19-.62-.24-1.65-.05-.93-.1-2.7-.15-3.04"/><path class="cls-1" d="M23.21,15.65s.02-.07.06-.08c.14-.01.43-.05.54-.05.11,0,.36-.02.49-.03.04,0,.07.03.07.07,0,.33.02,1.65.04,2.09.03.5.08,1.18.12,1.68.05.5.12,2.04.12,2.04,0,0,.62-.02.85-.05.23-.03.73-.16.73-.16,0,0-.07-.82-.07-1.27s-.01-1.27-.03-1.59c-.02-.32-.03-.47-.06-.65-.03-.18-.13-.98-.14-1.39-.01-.39-.05-.66-.02-.99,0-.02.02-.05.04-.06.2-.09.59-.21.91-.24.04,0,.07.02.07.06.04.44.09.87.11,1.07.03.22.14.94.07,1.54-.07.6-.15,1.16-.06,1.92.1.75.19,1.36.28,1.81.09.45.22.99-.06,1.7-.28.71-.55,1.08-.41,2.25.11.96.18,1.64.2,1.85,0,.04-.02.07-.06.07l-.97.14s-.07-.02-.08-.06c-.03-.17-.09-.61-.1-1.01-.01-.49.05-1.09.24-1.71.2-.61.51-.9.19-2.34-.57.13-.9.13-1.61.19,0,.54.09,1.41.04,2.3-.04.87-.19,2.3-.27,2.98,0,.03-.02.05-.04.06-.29.11-.59.24-.87.28-.04,0-.08-.03-.08-.07,0-.66.05-2.26.05-2.7,0-.45.02-1.61.05-2.22s.07-1.48-.09-2.56c-.15-1.08-.21-2.35-.22-2.8-.01-.43,0-1.62-.06-2.07"/><path class="cls-1" d="M29.23,22.7c-.01-.68.1-1.2.18-1.68.08-.48.24-1.06.32-1.86.06-.62-.05-.85.04-1.69.1-.94.05-1.75.07-2.21l.07-.03s.06.6.12.84c.06.23.13.75.14,1.07,0,.32.03.97.08,1.34.05.37.1,1.53.12,2.13.02.6.12,1.74.23,2-.47-.03-1.02.04-1.37.09M31.62,21.66c-.03-.33-.13-1.79-.15-2.12-.02-.32-.11-1.61-.13-1.9-.03-.3-.02-.63-.02-.92,0-.29-.07-.7-.13-.98-.06-.28-.12-.7-.14-.9-.02-.18-.03-.58-.09-.8,0-.03-.04-.05-.07-.05-.14,0-.48.06-.79.18-.33.13-.64.29-.98.43-.02,0-.04.03-.04.06-.02.21-.11.58-.16.82-.06.25-.21.84-.25,1.33-.04.49.04,1.29.12,1.82.08.52.09,1.29.06,1.73-.03.44-.22,1.02-.41,1.59-.19.57-.34,1.19-.36,1.47-.02.28.05,1.2.05,1.56,0,.35-.03.85-.06,1.19-.03.26-.04.64-.05.8,0,.04.04.08.08.07.2-.03.71-.1,1.02-.12.04,0,.06-.03.06-.07-.01-.49-.01-.97-.01-1.47,0-.52.04-1.53.04-1.53,0,0,.51-.04.85-.07.34-.03.72-.04.72-.04,0,0-.02.2.04.25.06.05.05.41.08.78.03.37-.02.88-.03,1.15-.01.26-.03.39,0,.76,0,.04.03.06.07.06.16,0,.35-.02.47-.04.09-.01.24,0,.33,0,.04,0,.07-.03.07-.07,0-.14-.03-.44-.04-.7-.02-.34.06-1.16.08-1.87.01-.71-.2-2.04-.23-2.37"/><path class="cls-1" d="M34.51,15.95l.97.08s.07-.02.07-.06c.02-.2.03-.78-.36-1.25-.47-.58-1.36-.96-2.17-.26-.81.7-.47,1.34-.31,1.74.15.4.31.9.21,1.89-.1.99-.09,1.89-.09,2.43s-.03,2.28-.07,2.93c-.05.64-.27,1.93-.04,2.44.23.5.44,1.02,1.41,1.02s1.81,0,1.95-1.09c0-.04-.02-.07-.05-.08-.33-.07-.85-.19-1.05-.24-.04,0-.08.02-.08.06-.01.1-.05.26-.18.36-.2.15-.66.21-.87-.19-.21-.39-.08-.63-.04-1.02.04-.39.1-1.44.08-1.79-.02-.35.1-1.27.13-1.8.03-.54.03-1.49.06-1.94.03-.45.08-1.46-.13-1.94-.27-.64-.52-1.16-.52-1.46s.27-.51.48-.51.56.21.54.64c0,.04.03.07.06.07"/><path class="cls-1" d="M38.71,26.58c-.92.09-.72-1.11-.71-1.29.01-.18.05-1.06.03-1.36-.02-.3-.25-1.03-.28-1.31-.03-.28-.05-.76-.07-1.2-.02-.44-.12-1.48-.35-2.05-.22-.57-.19-1.4-.16-1.88.03-.48.16-1.2.25-1.4.09-.2.43-.52.82-.41.39.11.52.41.35.71-.18.34-.17,1.04-.18,1.34-.02.58-.04,1.77.1,2.45.14.68.32,1.68.44,2.14.12.46.42,1.29.35,2.3-.07,1,.33,1.87-.59,1.96M40.45,25.04c-.02-.43-.04-1.16-.11-1.94-.07-.78-.44-2.14-.63-2.96-.19-.82-.11-1.41-.09-1.7.02-.29.02-.52-.04-1.33-.05-.81.25-.79.28-1.27.03-.48-.59-1.07-1.11-1.25-.52-.17-1.37-.12-2.01.41-.51.43-.61,1.44-.66,1.92-.05.48-.14,1.11.43,2.15.58,1.04.5,1.71.47,2.14-.03.43-.14,1.03-.19,1.44-.05.41.04.71.02,1.22-.02.51-.05,1.25-.07,1.98-.02.72.35,1.21,1.48,1.54,1.13.33,1.56.07,2.01-.43.45-.5.23-1.5.21-1.93"/></svg>