<?xml version="1.0" encoding="UTF-8"?><svg id="Camada_1" xmlns="http://www.w3.org/2000/svg" viewBox="0 0 42.14 29.83"><defs><style>.cls-1{fill:#010101;}</style></defs><path class="cls-1" d="M6.04,13.76c0,.24-.05.78-.63.79-.58,0-.7,0-.7,0,0,0-.04-2.39-.05-2.74,0-.35.02-1.34-.24-1.85-.25-.51-.77-1.02-.99-1.65-.23-.62-.47-1.59-.47-2.89s.08-1.6.08-1.6c0,0,.56.02.73.03.18.02.54.35.48.75-.06.4-.09.7-.08.89,0,.19.08,1.17.11,1.48.03.31.06.89.13,1.24.07.35.18.87.4,1.26.21.38.44.68.7,1.02.27.34.42.73.45,1.48.03.75.08,1.55.07,1.79M7.18,12.33c-.02-.61-.22-.83-.55-1.22-.33-.39-.51-.78-.7-1.33-.19-.55-.25-1.12-.32-1.64-.07-.51-.17-1.88-.18-2.07-.01-.18-.02-.41,0-1.26.02-.86-.37-1.45-.65-1.75-.29-.3-1-.41-1.24-.43-.24-.02-.81-.06-1.04-.07h-.17s-.06.03-.07.06c-.03.25-.16,1.26-.24,1.84-.1.67-.19,1.23-.07,2.14.12.91.61,1.5.96,1.99s.53,1.29.53,1.7.1,4.38.1,5.23c0,.04.03.07.07.07.73-.04,1.02-.22,1.26-.25.25-.03.67-.03,1.07-.09.4-.06.77-.27.96-.43.19-.15.34-.59.34-.84,0-.25-.05-1.06-.07-1.66"/><path class="cls-1" d="M6.86,3.71s.06-.05.1-.03c.16.1.58.34.79.36.26.02.28.13,1.49-.31.04-.02.09.01.09.06.02.15.02.27.02.33,0,.03-.01.05-.04.06-.15.07-.7.33-1.45.56,0,.41.16.99.16,1.45s-.15,1.14-.15,1.44.17,1.05.17,1.05l1.39-.34s.07.01.08.05l.26,1s-.01.07-.05.08l-1.3.34s.22.51.3.87c.09.36.3,1.12.41,1.42.11.29.47.91.48,1.5,0,.58.02.77.02.77l1.54-.18s.08.03.08.07l-.03.41s-.03.06-.06.06l-2.66.31s-.08-.03-.08-.07c.02-.21.06-.74.04-.95-.02-.26-.06-.68-.06-.9s-.06-.73-.21-.94c-.15-.22-.48-.59-.59-.95-.11-.36-.36-1.35-.43-1.66-.07-.3-.37-.99-.38-1.41-.01-.42.01-1.09,0-1.5-.01-.41-.17-1.2-.16-1.71.01-.46.1-.99.22-1.26"/><path class="cls-1" d="M10.19,3.33l.99-.44s.08,0,.09.04c.1.27.49,1.26.52,1.66.04.45-.11.62-.12.9,0,.28,0,.5.05.76.05.26.08.5.13.81.05.31.05.59.21,1.07.17.48.53,1.07.72,1.48s.56,1.36.7,1.74c.14.37.58,1.38.62,1.96l.08-.02s0-.84-.17-1.61c-.17-.77-.36-1.54-.5-2.15-.14-.61-.38-1.32-.43-2.09-.05-.76.06-1.29.07-1.57,0-.27-.05-.7-.02-1.05.03-.35.27-.81.28-1.27.01-.44.02-.87-.19-1.56,0-.03,0-.07.04-.08.26-.11.78-.29.96-.35.03-.01.07,0,.09.04.07.17.24.7.18,1.26-.08.69-.19.98-.18,1.55.02.57.02.53,0,.97-.02.44-.11.59-.11,1.01s-.05.81.18,1.66c.22.85.3,1.28.43,1.84.12.56.27,1.44.34,2.5.05.85.08,1.21.08,1.32,0,.03-.01.05-.03.06-.18.11-1.04.58-1.9.69-.04,0-.07-.02-.08-.06-.12-.71-.26-1.25-.38-1.59-.12-.35-.58-1.43-.89-2.15-.31-.72-1-1.98-1.09-2.38-.09-.4-.13-.85-.18-1.13s-.21-.72-.14-1.1c.06-.37.21-.65.13-1.13-.07-.41-.43-1.3-.52-1.54-.01-.03,0-.07.04-.09"/><path class="cls-1" d="M17.62,9.3s-.29-1.57-.32-1.86c-.03-.3-.21-1.15-.25-1.42-.04-.27-.07-.37-.09-.65-.02-.28-.03-.59,0-.98.03-.4.11-.98.12-1.28.01-.3-.03-.49-.04-.58,0-.09,0-.22,0-.22,0,0,.05,0,.08,0,.05.13.21,1.14.25,1.66.05.51.39,1.54.54,1.97.15.43.54,1.62.65,1.95.11.33.35.82.42,1.32-.62,0-1.35.1-1.35.1M20.41,10.38c-.11-.58-.44-1.96-.59-2.51-.15-.55-.51-1.54-.66-1.98-.15-.44-.38-1.19-.46-1.45-.07-.26-.34-1.25-.39-1.67-.05-.42-.13-.72-.19-1.1-.05-.29-.17-.6-.23-.73-.01-.03-.05-.05-.09-.04-.08.03-.26.09-.55.15-.37.08-1.07.18-1.27.21-.03,0-.06.03-.06.07-.05,1.35,0,1.76.04,2.02.03.27.05.8-.01,1.24-.06.45-.16.88-.07,1.84.05.5.31,1.74.39,2.1.08.36.27,1.62.3,1.91.03.27.28,2.57.33,2.98,0,.03.03.06.07.06h.83s.07-.03.07-.07c-.05-.64-.02-1.24-.03-1.72-.01-.5-.09-1.3-.09-1.3,0,0,1.11-.09,1.54-.1.1.17.4,2.66.45,3.09,0,.04.04.06.07.06.18,0,.7-.03.97-.04.04,0,.07-.03.07-.07-.07-1.03-.32-2.38-.43-2.94"/><path class="cls-1" d="M21.65,13.49s-.06-.03-.06-.07c0-.29,0-1.5-.12-2.5-.13-1.14-.37-2.46-.37-2.89s-.18-1.41-.22-1.61c-.04-.2-.11-.63-.14-1-.03-.37-.09-.81-.18-1.08-.08-.27-.2-.88-.28-1.39-.08-.45-.42-2.44-.48-2.84,0-.04.02-.07.06-.08.12-.02.39-.05.57-.04.24.02.72.2.85.21.1.01.26.02.34.02.03,0,.06.02.06.06.04.21.2,1.01.3,1.53.12.6.46,1.97.56,2.25.09.27.43,1.16.75,1.73.31.57.62,1.24.89,2.05.27.81.48,1.84.59,2.47.11.63.27,1.98.27,1.98h.06s-.02-1.2-.05-1.51c-.02-.3-.13-1.71-.35-2.41-.22-.7-.56-1.45-.8-2.11-.24-.65-.43-1.57-.49-2.33-.05-.76-.12-1.71-.11-2.01,0-.28-.05-1.13-.14-1.63,0-.04.03-.08.07-.08.26,0,.47.03.82,0,.04,0,.07.02.07.06.09.61.33,1.9.36,2.44.04.56.06,1.03.11,1.8.05.78.1,1.61.19,2.07.09.46.3,1.38.62,2.18.31.8.93,2.64.97,4.59,0,.04-.03.07-.06.07-.47.04-1.05.12-2.17.15-.03,0-.06-.02-.07-.06-.25-1.34-.42-2.57-.56-3.41-.14-.85-.45-2.76-.55-3.17-.1-.41-.43-1.33-.73-1.9-.3-.56-.49-.9-.74-1.96-.24-1.06-.21-.8-.39-1.86h-.08c.09.61.14,1.1.23,1.59.09.49.13.98.24,1.33.11.35.39.86.5,1.5.11.64.12,1.39.14,1.76.02.37.11,1.63.14,1.98.03.35.21,2.23.22,2.71.02.4.03,1.12.04,1.35,0,.04-.03.07-.07.07l-.81-.05Z"/><path class="cls-1" d="M25.55.26s.05-.08.09-.06c.33.12,1.45.51,1.65.55.17.03.37.05.46.06.03,0,.05.03.06.06.02.14.09.53.16.8.02.05-.04.1-.09.08-.36-.14-.86-.33-1.15-.32.05.32.06.76.05,1.35,0,.59,0,1.13.05,1.59.05.46.31,1.64.35,2.15.31.03,1.04.11,1.24.13.03,0,.05.03.06.05l.2.99s-.03.09-.08.08c-.26-.04-.96-.15-1.33-.07.02.31.1,2.22.16,2.76.06.53.18,1.66.46,2.25.45.1.78.11,1.07.1.04,0,.07.02.07.06.04.28.12.8.15,1.01,0,.05-.03.09-.08.08-.15-.02-.46-.08-.62-.16-.22-.11-.48-.27-.83-.28-.03,0-.05-.02-.06-.05-.2-.68-.42-1.14-.54-1.57-.12-.43-.5-1.35-.64-2.12-.14-.77-.27-1.42-.33-2.72-.06-1.3-.11-2.07-.23-2.76-.12-.68-.37-1.52-.31-4.05"/><path class="cls-1" d="M28.95.99s.04-.06.07-.06c.2,0,.82.04,1.15.04.33,0,1.03-.01,1.25-.02.04,0,.07.03.07.07v1.08s-.03.07-.07.07h-.64s-.02.69.04,1.27c.06.58.15,1.37.26,1.99.11.62.42,1.57.46,2.22s.06,1.24.07,1.58.09,1.42.17,1.91c.08.5.2,1.74.2,1.74l.57.07s.06.03.06.06l.04.99s-.04.08-.08.07c-.26-.04-1.13-.16-2.34-.07-.04,0-.07-.03-.07-.07-.01-.46-.03-.88-.04-1.04,0-.04.03-.07.07-.07h.62s0-.72-.07-1.48c-.06-.76-.2-1.57-.28-2.13-.08-.56-.13-.82-.13-1.87s-.07-1.38-.13-1.82c-.05-.44-.23-1.49-.39-2.05-.15-.56-.2-1.05-.2-1.34-.15-.02-.47-.04-.6-.05-.03,0-.06-.03-.06-.06-.01-.17-.04-.69,0-1.02"/><path class="cls-1" d="M35.5,13.21c-.66.1-.8-.59-.78-.91.02-.32.03-1.13-.05-1.86-.08-.73-.24-1.66-.36-2.28-.11-.62-.15-.88-.23-1.53-.08-.65-.29-1.3-.35-1.74-.06-.43-.14-1.34-.11-1.88s.1-.94.69-.99c.33-.03.66.24.67.64,0,.4-.02,1.15,0,1.47.02.32.06.65.2,1.07.14.43.3.97.33,1.51.04.53.12,1.63.16,1.9.04.27.24,1.53.29,2.12.05.59.12,1.1.16,1.44.04.34.04.94-.62,1.04M37.37,12.51c-.07-.88-.37-2.83-.41-3.53-.05-.7-.22-1.74-.27-2.52-.06-.79-.21-1.1-.32-1.39-.11-.3-.21-.46-.19-1.36.01-.9-.02-1.46-.15-1.74-.13-.27-.53-1.15-1.64-1.11-.98.03-1.28.37-1.66.93-.39.56-.29,1.24-.27,1.88.01.64.08,1.1.13,1.47.05.38.26,1.2.31,1.71.05.51.27,1.18.35,1.4.08.23.17,1.07.19,1.5.02.42-.02,1.79.08,2.93.1,1.14,1,1.67,1.95,1.7.95.03,1.98-1,1.91-1.88"/><path class="cls-1" d="M3.35,25.26c-.05.65-.11,1.25-.31,1.83-.2.59-.3,1.32-1.16,1.3h-.61s.4-.94.51-1.39c.11-.46.25-.95.25-1.77s-.02-1.18-.17-2.06c-.14-.88-.33-1.79-.42-2.65s-.18-1.88-.18-1.88c0,0,.54-.08.72-.08.18,0,.65.22.71.66.06.44.25,1.51.29,1.95.04.44.19,1.46.24,1.9.05.43.17,1.55.11,2.2M4.34,21.81c-.02-.37-.23-1.45-.35-2.38-.13-.93-.32-1.2-.73-1.54-.41-.34-.91-.49-1.23-.5-.43-.02-.73,0-.98.01-.21,0-.68.05-.86.06-.04,0-.07.04-.06.08.02.11.06.32.08.57.03.36,0,.82.03,1.81.03.99.12,1.85.21,2.5.09.65.16.96.24,1.19.08.23.13.53.16,1,.03.47.02.62.01,1.51-.01.89-.64,2.07-.77,2.59-.1.41-.08.75-.06.89,0,.04.03.06.07.06h1.44c.87,0,1.03-.07,1.69-.59.66-.53.85-1.59,1.07-2.49.23-.9.22-1.7.23-2.47.01-.77-.15-1.94-.17-2.31"/><path class="cls-1" d="M8,23.12c-.12.42-.46,1.08-.45,1.77,0,.69.06,1.08.08,1.77s-.04,1.96-.84,1.91c-.8-.05-.51-.77-.48-.86.03-.09.22-1.02.33-2.12.11-1.1.25-1.29.12-3.02-.13-1.73-.17-2.09-.24-2.62-.07-.53-.21-1.04-.23-1.39-.02-.35.16-.73.43-.81.47-.14.8.04.87.45.07.41.3,1.96.36,2.72.06.76.17,1.79.05,2.21M9.15,21c-.02-.46-.21-1.83-.37-2.95-.16-1.12-1.07-1.67-2.1-1.48-1.59.29-1.69,1.66-1.52,2.59.18.93.27,1.79.34,2.5.08.71.12,1.96.16,2.59.04.62-.15,1.71-.23,2.28-.08.56-.27.75-.42,1.68-.15.93.76,1.58,1.71,1.63.94.05,1.44-.57,1.72-1.27.28-.7.16-1.74.15-2.19,0-.45.06-1.61.06-2.46s.22-1.07.38-1.48c.16-.41.13-.97.11-1.42"/><path class="cls-1" d="M11.66,16.18l1.14-.08s.06.02.07.04c.06.16.27.71.38,1.39.13.81.15,1.22.16,1.83,0,.62.07,1.12.11,1.48.04.36.07.47.06.67-.01.19-.06.51-.03.79.03.29.07.58.11.82.05.24.08.88.11,1.13.03.25.14,1.04.18,1.64.04.61.08,1.57.22,2.06h.13s-.06-.36-.07-.71.14-1.2.16-1.84c.02-.63,0-1.16.06-1.79.07-.62.14-1.06.11-1.39-.03-.34-.05-.73.12-1.26.17-.53.29-.94.35-1.66.05-.69.12-2.8.12-3.28,0-.04.03-.07.06-.07.32-.03.79-.09.97-.11.04,0,.07.02.08.06.01.28.06,1.31.06,1.89,0,.67-.34,1.93-.44,2.28-.1.35-.15.54-.16.9-.01.36-.01,1-.12,1.62-.11.62-.2,1.23-.15,1.86.05.63.05,1.05.03,1.8-.02.66,0,1.44,0,1.61,0,.02-.01.04-.03.06-.15.11-.83.59-1.16.7-.35.12-.42.17-1.07.31-.03,0-.07-.01-.08-.05-.19-.64-.3-1.3-.36-2.13-.06-.85-.17-2.42-.21-2.64-.04-.22-.17-.87-.16-1.34,0-.47.02-.71,0-.87-.01-.15-.07-.48-.07-.95s0-1.54-.03-1.98c-.03-.43-.28-2.01-.65-2.81"/><path class="cls-1" d="M19.36,15.6c.06.11.26.49.25.91,0,.03-.02.06-.06.07-.33.05-1.1.14-1.49.12,0,.27.03.63.1.81.07.18.14.44.11.77-.03.33-.1.53-.09.83.01.31.06.75.02.99-.03.25-.18.75-.15.89.52-.1,1.04-.14,1.53-.11.03,0,.06.03.06.06.02.15.05.34.03.55-.01.18-.04.4-.05.49,0,.03-.03.06-.06.06-.17.02-.73.08-1.45.07.02.46-.05.86.02,1.24.07.38.33,1.46.41,1.94.08.48.24,1.42,0,1.66.41.01.96.07,1.41-.06.05-.01.09.02.09.07-.01.18-.14.38-.28.46-.02.01-.04.01-.06,0-.38-.12-1.19-.45-1.54-.44-.24,0-.49.07-.63.1-.05.01-.1-.03-.08-.08.02-.1.05-.25.03-.35-.02-.17-.2-1.66-.27-1.99-.07-.33-.25-1.12-.29-1.68-.04-.57-.07-1.03,0-1.47.07-.45.13-.58.13-.85,0-.26-.07-.9,0-1.24.07-.34.21-.78.23-.98.02-.21.01-.66-.18-1.12-.19-.45-.34-.91-.3-1.54,0-.03.03-.06.06-.06.5-.07,1.13-.17,2.42-.14.02,0,.05.01.06.03"/><path class="cls-1" d="M20.66,15.65s.02-.09.06-.09c.13,0,.36-.01.49-.04.15-.03.37-.07.46-.09.03,0,.06,0,.07.04.03.06.09.18.11.3.03.17.11.43.19.65.08.22.18.61.15.98-.02.37-.05.46-.03.6.02.14.06.53.03.72-.03.19,0,.53,0,.71.01.18,0,.65-.06.96-.05.31-.24,1.13-.24,1.74s.18,1.01.33,1.32c.15.3.29.65.26.99-.03.34-.14.63-.18.87-.03.24-.18,1.07-.18,1.07,0,0,.62.4,1.38.49.04,0,.07.04.06.08-.05.37-.17.88-.22,1.08-.01.04-.06.07-.1.04-.07-.04-.18-.09-.25-.11-.12-.02-.46-.11-.77-.27-.3-.15-.56-.33-.75-.37-.13-.02-.33,0-.45,0-.05,0-.08-.04-.07-.08.02-.09.05-.22.06-.3.02-.14.04-.41.13-.99.09-.58.29-1.09.24-1.45-.05-.37-.26-.88-.39-1.26-.13-.38-.27-.69-.14-1.58.13-.89.18-1.32.16-1.64-.02-.33-.05-.62,0-.81.05-.19.05-.57.02-.71-.04-.14-.06-.43-.05-.62s.04-.69-.02-1.03c-.05-.28-.27-.96-.34-1.21"/><path class="cls-1" d="M24.24,15.14l.82.2s.02,0,.02.01c.06.04.33.25.41.46.09.24.24.67.24,1.14s.08.77.08,1.06-.02.6-.12,1.04-.19,1.26-.14,1.65c.25-.06.35-.06.53-.03.18.02.25.03.5.03.25,0,.49,0,.49,0,0,0,.03-.71.1-1.03.07-.31.24-.59.26-1.03s.07-.94.03-1.18c-.04-.23-.15-.53-.36-.84-.19-.28-.32-.61-.32-.85,0-.04.03-.07.07-.07.25,0,.87-.04,1.08-.05.04,0,.07.03.07.07,0,.14-.01.44,0,.68.02.33.03.73.3,1.25.27.52.35.89.18,1.38-.18.49-.49,1.28-.54,1.79-.05.51-.07,1.23-.07,1.54s-.09,1.51-.12,1.92c-.03.41-.04,1,.04,1.68.07.61.2,2.18.23,2.5,0,.03-.02.07-.05.07-.08.02-.22.04-.37.04-.17,0-.52-.06-.66-.08-.03,0-.06-.04-.06-.07.01-.27.05-1.4.05-1.93,0-.61.02-1.98.07-2.67.06-.69.08-1.39.07-1.91-.3-.03-1.22-.11-1.53-.11-.02.52-.05,2.29-.05,2.58s-.03,1.63-.05,1.82c-.01.17-.16,1.7-.19,2.05,0,.04-.04.07-.08.06l-.87-.13s-.07-.04-.06-.08c.05-.24.21-1,.25-1.45.06-.54.05-1.43-.06-1.95-.1-.51-.1-.89-.1-1.38s0-2.27.05-2.78c.05-.51.14-.88.21-1.26.07-.38.1-.72.08-.94-.02-.22-.07-.59-.09-.76-.01-.17-.08-.92-.08-1.04s-.06-.57-.09-.7c-.02-.11-.11-.41-.25-.63-.03-.05.01-.12.07-.1"/><path class="cls-1" d="M31.94,24.51s-1.18-.24-1.47-.27c.03-.17.07-.73.1-.84.03-.11.05-.32.06-.4.01-.08-.02-.24-.12-.3-.1-.06-.14-.15-.11-.25.03-.1.1-.34.16-.44.06-.09.14-.24.18-.39.05-.15.22-.63.33-1.15.1-.52.27-.93.21-1.48-.06-.55-.11-.89-.59-1.87h.07s.69,1.16.85,2.1c.16.94.11,1.87,0,2.46s-.21,1.05-.25,1.21-.05.31.14.37c.18.05.43.07.46.47.03.4,0,.79,0,.79M33.15,23.87c-.1-.29-.3-.27-.47-.28-.17,0-.24-.2-.25-.26-.02-.06.02-.08.04-.1.02-.02.02-.33.09-.64.07-.31.08-.56.05-1.23-.03-.67-.38-1.64-.54-2.06-.16-.42-.51-1.2-.64-1.53-.13-.32-.33-1.18-.46-1.58,0-.03-.04-.05-.07-.05-.4.04-.75-.13-1.01-.28-.06-.03-.12.03-.1.09.15.36.4,1.07.42,1.15.02.11,0,.28.04.38.03.1.03.24,0,.33s0,.56,0,.63c0,.07-.19,1.29-.17,1.44.02.15-.04.36-.12.58-.08.22-.3.62-.38.84-.09.22-.07,1.02-.09,1.1-.02.08-.06.07-.08.18-.02.11-.11.61-.15,1.07-.04.46-.08,1.16-.06,1.55.01.38.05,1.66.05,1.9,0,.19-.07.53-.16.86-.02.06.06.11.11.07.26-.2.56-.34.65-.38.02,0,.03-.02.04-.04.04-.1.16-.46.22-.71.07-.3.08-.67.09-.93,0-.26.03-.49.1-.96.87-.07,1.67.26,1.67.26,0,0-.03,1.53-.05,2.25,0,.03.02.06.06.07.52.08.9.23,1.07.3.04.02.09-.01.09-.06.01-.25.05-.89.04-1.27-.01-.47.08-1.54.1-1.82.02-.28,0-.59-.11-.88"/><path class="cls-1" d="M35.33,18.08s.03.06.06.06c.1,0,.32,0,.51,0,.2-.01.46-.04.58-.06.04,0,.07-.04.06-.08-.03-.19-.12-.72-.47-1.02-.43-.38-.96-.57-1.51-.65-.55-.08-.95-.04-1.31.4-.35.44-.47.83-.42,1.65.06.82.12,1.54.23,2.07.11.53.23,1.18.26,1.5.03.32.05.84.22,1.11.17.27.59.45.7.76.11.31.27.93.09,1.87-.19.94-.6,1.62.26,2.54.37.4,1.47,1.22,2.46.75.78-.36.91-.88.93-1.07,0-.04-.02-.07-.06-.08-.19-.01-.72-.05-1.12-.09-.03,0-.05.01-.07.03-.13.23-.28.38-.64.34-.38-.05-.87-.42-.77-.89.11-.47.3-1.38.22-2.06-.08-.69-.1-1.4-.62-2.1s-.79-.99-.83-1.79c-.03-.79-.06-2.88-.06-3.23,0-.46.27-.78.79-.57.39.16.48.48.5.6"/><path class="cls-1" d="M41.15,27.4c-.09.47-.13.73-.53.89-.4.16-.66.13-.75-.23-.09-.36.1-.25.02-.78s-.55-1.74-.78-2.65c-.23-.91-.55-2.03-.61-2.84-.06-.81-.22-2.59-.29-3.2-.07-.61-.22-1.17.11-1.48.33-.3.7-.08.75.22.06.3.16,1.04.16,1.04.08.55.22,1.5.29,1.86.07.37.13.62.21.99.08.38.41,2.01.55,2.47.14.46.53,1.88.63,2.23.1.34.32,1.02.23,1.48M41.88,24.58c-.13-.48-.58-2.15-.67-2.5s-.22-1.07-.26-1.27c-.05-.2-.1-.5-.19-.78-.09-.29-.31-1.02-.37-1.82-.16-2.44-1.49-2.57-2.17-2.34-.76.25-1,1.41-1.03,1.69-.02.29.07.82.11,1.34.04.51.01,1.66,0,2.31s.01.97.23,2.01c.22,1.04.79,2.77,1,3.38.22.61.18.9.16,1.22-.02.32-.03.51.08.97.11.46.97.73,2.16.16,1.19-.57,1.12-1.29,1.19-2.18.07-.89-.11-1.7-.24-2.18"/></svg>