<?xml version="1.0" encoding="UTF-8"?><svg id="Camada_1" xmlns="http://www.w3.org/2000/svg" viewBox="0 0 42.17 25.51"><defs><style>.cls-1{fill:#010101;}</style></defs><path class="cls-1" d="M5.14,2.41l.84.11s.39.04.28.36c-.46,1.44.05,2.4.44,2.99.3.45,1,2.88.96,3.92-.02.53-.15.93,0,1.71-.05.43-.41.52-.46.56-.05.03-.82.14-.82.14,0,0-.2-.66-.13-1.28.25-1.97-.14-2.65-.42-3.39-.2-.53-.02-.84-.65-2.19-.56-1.21-.06-2.94-.06-2.94M5.16,10.75c-.12.93.13,2.41.13,2.41,0,0,1.66-.3,2.21-.41.45-.09,1.38-.63,1.38-1.21,0-.89-.21-1.26-.08-1.92.13-.66-.42-2.46-.57-2.89-.2-.6-1.53-2.07-.96-3.95.34-1.12-.98-1.38-.98-1.38l-2.11-.22s-.27,1.8-.27,2.55c0,1.38.45,2.36.51,3,.15,1.53,1.01,1.85.74,4.01"/><path class="cls-1" d="M12.78,12.29v-1.04s-1.02.06-1.53.15c-.2-.96-.01-3.43-.6-4.17.64-.11,1.45.03,1.3-.13-.15-.16-.43-.58-.43-.58,0,0-.87.02-1.31.05-.85-.89-.56-4.66-.56-4.66l1.55.11s.12-.59.07-1.16c-1.16-.07-1.64.17-2.46.43-.46.69-.46,1.61-.35,3.14.15,2.25,1.06,1.61,1.46,4.09.07.44.05,1.53.13,2.12.13.97.1,1.83.1,1.83l2.64-.19Z"/><path class="cls-1" d="M12.99,6.4c.11,1.14.99.89,1.18,1.79.15.69.63,2.63.52,3.83,1.16-.23,2.04-.27,2.04-.27,0,0,.33-.69.37-2.01.05-1.52-.27-1.32-.5-2.01-.3-.9.13-1.09-.39-1.7-.21-.24-.05-.71-.12-.99-.3-1.21.35-2.66.45-3.92-.45-.07-1.09-.08-1.09-.08,0,0-.46,2.28-.49,2.75-.03.47-.03.32.01.95.01.2-.07.63-.02.79.11.3.3.3.36.91.03.31.04.86.13,1.06.11.27.44.52.47.91.05.67.08,2.49-.07,2.7-.18-1.54-.39-2.28-.41-2.57-.02-.28-.1-.5-.24-.67-.11-.14-.24-.19-.43-.31-.62-.37-.47-1.42-.75-1.9-.14-.25-.55-.59-.6-1.64-.04-.72-.06-3.11-.06-3.11h-1.14s-.23,3.15.25,4.01c.48.85.48,1.09.52,1.48"/><path class="cls-1" d="M18.72,3.55c.02-.46.32-1.35.32-1.35,0,0-.07,1.28-.01,1.7.14,1.04.71,1.18.91,2.72.08.61.95.36,1.05,1.62-.53.11-1.46.16-1.46.16,0,0-.05-.37-.05-.66-.01-.73-.15-.83-.33-.93-.34-.18-.08-.6-.27-1.54-.06-.29-.2-.89-.16-1.71M17.8,5.77c-.03,1.08.43.6.43,1.25,0,1.45.59,2.02.51,2.95-.04.42-.39,2.05-.39,2.05l1.13.2s.46-2.08.27-3.01c.47-.03.8-.06,1.49,0,.21.76-.34,1.29-.17,2.95.31.06.71,0,1.14.06-.05-.8.19-2.15.04-3.55-.17-1.55-.87-.65-1.19-2.21-.07-.36-.24-1.09-.4-1.43-.34-.72-.73-.95-.48-2.99.07-.56-.03-1.02-.03-1.02l-1.95.08s-.74,2.52-.63,3.42.23.91.22,1.25"/><path class="cls-1" d="M22.65,6.37c.03.45.08,1.13.3,1.44.27.39.7.69.59,1.79-.12,1.24-.3,2.62-.3,2.62h1.11s.09-1.34.19-1.78c.12-.52.14-1.27-.22-2-.33-.65-.37-1.16-.43-1.61-.06-.43-.16-1.11-.21-1.44-.06-.39-.35-.39-.35-.81,0-.61-.44-2.1-.2-2.53.05.9.31,1.41.38,1.53.05.1.15.82.2,1.02.16.61.6.71.68,1.15.06.32.47,1.54.58,2.09.12.58.71,1.47.71,1.77,0,.17.13,2.04.27,2.21.3-.07,2.23-.33,2.23-.33,0,0-.15-2.19-.32-3.31-.17-1.12-.18-2.31-.36-2.54-.18-.23-.28-1.15-.26-1.44.02-.29-.32-.97-.53-1.67-.21-.7-.24-1.43-.24-1.43l-1-.08s-.12.84.11,1.54c.23.7.49,1.28.49,1.62s.07.99.12,1.16c.07.22.21.25.31.97.21,1.53.7,4.32.48,4.64-.16-.69-.84-2.92-.92-3.36-.03-.15-.28-1.37-.43-1.76-.12-.31-.17-.2-.47-.63-.34-.48-.37-1.17-.47-1.52-.19-.64-.68-1.29-.58-2.79-.8-.17-2.04-.1-2.04-.1,0,0-.12,2.99,0,3.54.12.55.52.7.59,2.02"/><path class="cls-1" d="M28.72,5.51c0,.35.21.43.23.67.04.44.14,1.61.23,2,.19.88.28,1.78.47,3.23,1.02-.05,2.33.44,2.33.44,0,0,.12-.93.09-1.13-.16-.2-1.12-.24-1.41-.3-.06-1.69-.56-2.76-.5-4.04.44.03,1.49.23,1.49.23l-.1-.58s-1.2-.01-1.56-.06c-.13-.51-.1-.75-.11-.99-.07-1.49-.72-1.75-.86-2.9.39-.02,1.5-.11,1.5-.11l-.14-1.18-2.6.22c0,1.41.4,1.9.57,2.37s.36,1.64.35,2.12"/><path class="cls-1" d="M32.3,1.81c.03,1.28.99,3.01,1.09,3.64.09.6,0,1.49,0,1.49,0,0,.15.74.14.9s-.15.99-.15.99c0,0-.06,1.7.05,2.25-.26.08-.44-.11-.44-.11l-.27,1.12s1.4.61,2,.52c.11-.62.11-1.06.11-1.06l-.55-.15s.06-1.37.15-1.69c.09-.32.18-1.31.17-1.61-.02-.3.12-1.87,0-2.49-.12-.62-1.31-3.07-1.11-3.92.3-.08.61-.09.61-.09l-.02-1.12-2.51.26.08,1.17s.51-.18.65-.09"/><path class="cls-1" d="M36.8,1.08c.65-.15.84.64.84.64,0,0,.47,2.17.73,2.73.25.55.14,1.14.09,1.52-.14,1-.36,2.96-.15,4.02.2,1.01-.43,1.32-.69,1.43-.23.09-.84.25-.57-.77.23-.88.22-2.22.2-2.62-.02-.39-.08-1.05-.02-1.49.06-.44.19-1.29-.12-1.94-.32-.65-.77-2.03-.8-2.64,0,0-.15-.73.5-.88M35.86,4.61c.38.49.36,1.58.36,1.58,0,0,.05,1.78,0,2.29-.03.33-.27,1.84-.27,1.84,0,0-.41,1.37.24,1.81.65.44,2.19-.58,2.19-.58,0,0,1.03-.86,1.05-1.85.02-.94-.35-1.79-.03-3.45.25-.96.28-1.61.14-1.94-.36-.85-.78-2.55-.85-3.08-.08-.56-.56-1.55-2.16-1.14-1.59.41-1.4,1.87-1.4,1.87,0,0,.35,2.16.73,2.64"/><path class="cls-1" d="M3.43,16.97c.1,1.11.28,1.47.26,2.36-.02.98-.48,3.91-.56,4.05-.08.14-.17.68-.75.75-.55.07-.75-.02-.99-.06.32-.52.72-1.46.76-2.52.03-1.06.47-2.57.15-3.35-.17-.41-.47-1.73.09-2.17.55-.44,1.47-.46,1.47-.46,0,0-.52.27-.42,1.38M5.04,15.18c-.27-.35-2.9-.44-2.9-.44,0,0-.04.57-.09.75-.12.43-.4.6-.81.78-.36.16-.44,1.14-.32,1.63.09.39.3.4.29.99-.01.73-.25,3.07-.28,3.31-.09.73-.95,2-.91,2.98.84.06,1.47.03,2-.02.57-.05,1.72-.65,2.08-1.26.39-.66.76-3.79.76-4.58s-.03-1.62-.19-2.31c-.15-.62-.05-1.55.39-1.85"/><path class="cls-1" d="M8.09,18.95c-.25.67-.54,2.38-.23,3.56.31,1.18-.47,1.53-.47,1.53,0,0-.9.51-1.13,0,.16-.16.42-.51.39-1.23-.05-1.06-.19-2.03.19-3.02.39-.99.25-2.36.24-2.68-.01-.32-.1-1.25-.11-1.68,0-.25,0-.71.54-.87.55-.16.78.11.82.34.01.08.02,1.48.07,1.83.05.35-.07,1.54-.32,2.21M8.74,13.87s-1.62.6-2.3.87c-.68.26-.64.79-.64.79,0,0,.05,1.36.15,2.58.1,1.23-.3,2.82-.35,3.18-.05.34.18,1.91-.56,3.03.63,1.1,1.72,1.05,2.17.73.41-.29.74-.7,1.43-1.23.7-.53.43-1.21.26-2.94-.17-1.73.24-2.21.56-3.4.32-1.2.09-2.73-.08-3.25-.17-.51-.65-.35-.65-.35"/><path class="cls-1" d="M16.08,13.73s-.63,2.57-.83,3.43c-.26,1.05-.67.39-.67,1.12.02,1.63-.76,5.16-.76,5.16,0,0-.09-.41.04-1.05.08-.39-.1-.9-.08-1.27.03-.61,0-1.34-.21-2.38-.05-.74.07-.82.02-1.4-.02-.26.56-2.86.35-3.94-.67-.16-1.14.07-1.15,0,0,0,.12,1.41,0,2-.2,1.01-.4,1.98-.42,2.16-.03.21.11.93.08,1.08-.03.15.04,1.37.16,1.62s.21,1.81.17,2.12c-.04.3-.35,1.19-.07,2.18.22-.05,1.01-.16,2.25-.18.05-.56.47-3.08.48-3.12.33-1.56.28-3.5.39-3.56.29-.17.46.04.66-.62.2-.67.74-3.09.74-3.09l-1.14-.24Z"/><path class="cls-1" d="M18.11,14.15s-.29,2.54-.35,2.98c-.06.44-.36.39-.36.39,0,0-.15,0-.27.05.16,1.3.03,3.29-.02,4.21-.03.62.19,1.37-.05,2.49,1.89,0,1.53.23,2.66.59.11-.21.2-1.02.2-1.02,0,0-1-.24-1.57-.29-.02-.75-.03-4.06-.03-4.06l1.5-.06-.03-1.11h-1.52l.03-.94.28-.07c.32-.08.36-.16.37-.49,0-.34.19-1.36.19-1.36h1.46s.17-.68.15-1.14c-.62.05-2.64-.17-2.64-.17"/><path class="cls-1" d="M22.26,24.33c-.23-.02-.5-3.4-.46-3.97.05-.57.51-1.7.46-2.62-.06-.92-.03-1.87-.03-1.87l.65-.35s.18.01.23-.43c.05-.44-.06-.83-.06-.83l-1.04.07s-.09,1.07,0,1.29c.09.22-.12.52-.34.61-.23.09-.58.27-.58.27,0,0,.11,2.23.09,2.84-.02.6,0,2.87-.02,3.27-.01.3-.07,1.21-.07,1.21,0,0,.23,1.08-.06,1.47.43.33,2.41.3,2.73,0-.09-.51-.25-1.07-.25-1.07,0,0-1.01.15-1.24.13"/><path class="cls-1" d="M27.91,22.56c-.6-.58-.72-2.01-.52-2.98.12-.59.14-1.07.14-1.07,0,0,.38-1.9.5-2.31.14-.49.98-3.11.98-3.11,0,0-.9-.48-1.04-.25-.56.97-1.34,4.79-1.59,5.49-.65-.16-1.29-.2-1.29-.2,0,0,.45-1.23.49-2.14.03-.91.2-2.12.26-2.21.06-.09-1.28.77-1.28.77,0,0-.36,2.97-.46,3.39-.07.33-.29,1.52-.35,2.14-.16,1.59.93,4.91.93,4.91,0,0,.67-.13,1.09-.31-.03-1.05-.41-1.76-1.01-2.78-.53-.9-.04-2.68-.04-2.68,0,0,1.31.25,1.52.24-.06.46-.3,1.89.23,2.93.38.75.83.34,1.14,2.17.42-.14,1.09-.3,1.09-.3,0,0,.17-.75-.8-1.7"/><path class="cls-1" d="M31.33,18.84c.05.68.24,1.07.22,1.91-.44-.02-1.41.02-1.46,0-.01-.35.04-1.1.09-1.31.05-.21.22-.14.26-.36.05-.26.35-1.43.58-1.87.23-.44.54-1.31.6-1.93.18.71-.34,2.88-.29,3.56M32.79,14.34c-.08,0-1.7-.41-1.7-.41,0,0-1.69,3.88-1.84,5.17-.07.25-.23.23-.28.41-.08.33.04,1.12-.14,1.43-.18.3-.06.88.32,1.34.38.46.76,1.69.76,1.69l.87-.2s-.26-1.26-.53-1.67c-.27-.41-.5-.85-.33-1.08.26.02.95-.03,1.61.05-.08.47.38,2.7.38,2.7l.92-.08s-.08-2.55-.08-2.91.02-1.06-.14-1.67c-.15-.61.02-1.29.05-1.37.03-.08.23-1.19.24-1.57.01-.4-.12-.9-.09-1.83"/><path class="cls-1" d="M36.62,14c-1.84.03-1.99,1.84-1.99,1.84,0,0,.03.64-.39,1.23-.43.59-.26,1.18-.26,1.47s-.05.26-.09.34c-.05.09.02.14.07.45.14.99-.18,1.7-.26,2.42-.07.62-.02,2.01,1.52,2.17,1.52.15,2.11-1.38,2.11-1.38,0,0-.61-.18-1.12-.2-.4.61-.83.47-.83.47,0,0-.56-.03-.52-.74.05-.71.33-1.46.33-2,0-.15-.12-1.03-.08-1.37.01-.11.07-.36-.04-.68-.11-.32,0-.89.11-1.04.13-.18.4-.59.49-.87.09-.28.24-.59.24-.59,0,0,.18-.44.65-.38.26,0,.23.12.27.29.24-.06.7-.59.79-.76.09-.17.12-.29.05-.36-.18-.18-.56-.31-1.07-.3"/><path class="cls-1" d="M40.73,19.62c-.36,1.12-.03,1.93-.02,2.75,0,.31.12,1.06-.65,1.05-.77-.02-.85-.38-.77-.61.08-.23.2-1.38.27-2.28.08-1.02.31-1.59-.3-3.92-.51-1.93-.36-1.31-.44-1.81-.05-.33-.14-.9.43-1.18.31-.15.79,0,.82.67,0,.06.23,1.33.35,1.61.11.27.49,1.47.5,1.75.02.27.18.85-.18,1.97M41.52,19.89c.05-.79,1.03-1.76.49-3.13-.61-1.52-.57-2.03-.77-2.76-.14-.51-.41-1.5-1.49-1.5-.68.67-1.61,1.65-1.61,1.65,0,0-.36.32-.36,1.4,0,0,.43,1.85.56,2.58.14.73.34,2.7-.23,4.16s1.25,1.84,1.86,1.81c.64-.03,1.87-.13,1.84-1.33-.09-1.41-.36-1.7-.29-2.88"/></svg>