<?xml version="1.0" encoding="UTF-8"?><svg id="Camada_1" xmlns="http://www.w3.org/2000/svg" viewBox="0 0 62.71 14.21"><defs><style>.cls-1{fill:#010101;}</style></defs><path class="cls-1" d="M2.48,11.73c-.23.35-.92.22-.92.22,0,0,0-.32.04-.66.04-.33-.03-2.63-.04-3.24-.02-.61-.13-1.35-.18-1.53-.04-.19-.36-1.66-.43-1.91-.07-.25.14-1,.14-1,0,0,.37-.09.57-.13s.37.13.39.33c.03.21.18.93.21,1.14s.16,1.05.2,1.48c.04.43.16.93.21,1.35.04.42.03,1.74.04,2.16,0,.42.02,1.43-.22,1.78M3.57,7.61c-.04-.3-.13-.84-.16-1.19s-.05-1.26-.15-1.73c-.1-.48-.18-1.03-.41-1.42-.14-.24-.55-.71-1.03-.67-.31.02-1.14.28-1.43.37-.06.02-.11.08-.11.14-.02.18-.06.55-.21,1-.2.62.11,1.78.11,1.78,0,0,.35,1.14.42,1.6.07.49.08,3.97.07,4.54,0,.38-.03.67-.04.81,0,.06.04.11.1.11.21,0,.67-.02.98-.15,0,0,.95-.49,1.52-1.21.63-.79.41-3.5.35-3.96"/><path class="cls-1" d="M6.28,6.6c-.07.03-.2.07-.28.08-.12.02-.55.04-.55.04,0,0-.07-1.55-.21-2.32-.13-.76-.31-1.68-.31-1.68,0,0,.4-.11.8-.13.29-.02.43,0,.49,0,.02,0,.03-.01.02-.03l-.24-.7s0-.01-.02-.01c-.1-.01-.71-.07-1.19,0-.4.06-.8.17-.97.21-.04.01-.07.06-.06.1.09.34.43,1.72.5,2.4.08.78.32,2.58.32,3.53s-.03,2.22-.62,3.01c-.42.57-.68.91-.8,1.05-.02.03,0,.07.04.07.16-.03.49-.07.8-.05.35.01.84.05,1.03.07.04,0,.07-.03.06-.07-.03-.1-.07-.29-.03-.45.04-.15.07-.3.09-.38,0-.04-.02-.07-.06-.07-.13,0-.42.02-.59.04-.12.02-.2.03-.25.03-.03,0-.04-.03-.03-.05.16-.22.78-1.12.94-1.6.19-.55.29-1.08.3-1.46,0-.39,0-.58,0-.58,0,0,.32.02.51-.04.12-.04.2-.06.23-.07.02,0,.03-.02.03-.04l.08-.85s-.03-.05-.05-.04"/><path class="cls-1" d="M10.3,3.46c.13-.17.22-.92.24-1.1.01-.12,0-.22,0-.28,0-.03-.03-.06-.06-.06l-.84-.05s-.07.03-.07.06c0,.22-.04.88-.06,1.06-.03.22-.13.63-.29.77-.15.14-.51.43-.69.69-.18.26-.43.74-.5,1.45-.07.72-.18,1.3-.23,1.62-.05.32-.13.73-.05,1.18.07.45.13.84.07,1.09-.04.18,0,.87.01,1.26,0,.05-.07.06-.08.02-.07-.19-.16-.44-.19-.58-.05-.25-.04-.56.03-.79.06-.23.03-.47-.08-.76-.11-.3-.42-1.24-.4-1.86.02-.62.17-1.9.29-2.37.12-.47.6-.89.65-1.29.04-.4.07-.49-.09-.94-.12-.34-.2-.57-.23-.66,0-.02-.03-.04-.06-.04h-.8s-.06.03-.06.07c.01.08.05.23.13.37.12.21.37.74.22,1.09-.15.36-.3.64-.34,1.02-.04.39.06.84.03,1.36-.03.42-.18,1.02-.15,1.67s.32,1.69.32,2.02c0,.54-.43.83-.37,1.37,0,0,.07.5.14.72.04.12.08.22.11.28.02.05.08.07.12.05l1.56-.76s.04-.03.05-.06c.02-.07.05-.2.12-.34.09-.2.04-.46,0-.81-.04-.35-.15-1.09-.05-1.71.1-.62.38-2.52.5-3.16.13-.64.31-.97.45-1.09.13-.12.53-.38.66-.55"/><path class="cls-1" d="M12.29,3.14c.03.32,0,1.15-.11,1.6-.1.45-.02,1.05,0,1.34.02.29-.1.76-.05.96.05.19.2,1.06.2,1.06l-1.22.21s-.1-.34,0-.7c.1-.36.21-.49.26-.9.05-.4.13-1.24.26-1.7.13-.46.28-.69.34-1.09.06-.4.12-1.21.36-1.53,0,0-.07.44-.04.76M13.42,9.5c.04-.3,0-.78,0-.78,0-.4-.31-1.35-.35-2.15-.03-.52.04-2.23.11-2.87.06-.64.06-1.18.05-1.57,0-.25,0-.42,0-.5,0-.04-.03-.07-.08-.07-.07,0-.19.02-.35.08-.24.08-.65.27-.8.34-.04.02-.07.05-.08.09-.03.09-.1.29-.19.5-.13.3-.31.29-.58.7-.28.41-.39,1.77-.47,1.91-.07.14-.16.66-.23,1.23-.07.57-.15.87-.26,1.42-.11.55-.07.66-.02,1.09.05.43.08.68-.03,1.03-.08.25-.12.53-.13.66,0,.04.03.07.07.07l.84-.14s.05-.03.05-.06c0-.16-.02-.64.07-.92.11-.35.12-.47.12-.47l1.29-.48.32,1.85s.05.08.09.08h.72c.07,0,.11-.07.08-.13-.09-.22-.26-.67-.23-.89"/><path class="cls-1" d="M18.78,1.76l-.77-.06s-.05.02-.05.05c-.04.51-.35,4.73-.36,4.9-.02.19.02.28-.03.52-.04.2-.64,2.58-.86,3.42,0,.04-.07.03-.06,0,.02-.34.05-.88.11-1.25.1-.57.31-1.79.31-2.13,0-.33.03-.29-.03-.37-.05-.08-.13-.1-.13-.26,0-.15-.22-4.38-.25-4.92,0-.03-.03-.06-.06-.06l-1.58-.04s-.06.02-.06.05c-.03.19-.15.85-.21,1.61-.11,1.19-.16,2.61-.22,2.78-.09.31-.19.46-.16.88.03.42.17,1.47.08,1.82-.09.35-.32.85-.3,1.26.03.4.23.67.23.67l.66.25s.02,0,.01-.01c-.05-.08-.21-.34-.19-.56.03-.26.36-1.42.44-1.74.08-.32.13-.59.06-1.04-.06-.45-.02-.66.03-.92.04-.23.27-3.22.33-4.09,0-.02.03-.02.03,0,.05.77.19,3.14.2,3.42.02.32,0,.48.04.56.04.07.16.11.13.31-.03.21-.04.67.05.92.09.24-.22,1.21-.26,1.58-.04.37-.17,1.08-.08,1.44.05.2.09.34.12.43.02.07.07.12.13.15.18.08.56.25.82.34.22.07.4.13.5.16.05.01.1-.02.1-.07.02-.24.07-.86.16-1.3.12-.55.68-2.23.75-2.68.07-.45.15-1.72.18-2.54.02-.75.18-3.04.2-3.41,0-.03-.02-.05-.05-.05"/><path class="cls-1" d="M21.43,7.45c-.08-.15-.21-.32-.24-.35,0,0,0,0-.01,0-.04-.01-.17-.05-.34-.1-.17-.05-.41-.05-.46-.05,0,0-.02,0-.02,0-.02-.02-.09-.1-.19-.29-.12-.23-.2-.56-.29-1.25-.08-.63.02-2.2.04-2.49,0-.03.02-.05.05-.04l1.11.11s.05-.02.05-.04l.07-.86s-.02-.05-.04-.05l-1.6-.2s-.05.01-.05.04c-.02.13-.07.49-.11.82-.03.25.1,2.95.11,3.2,0,.24.1.85.12,1.09.02.24-.01.29-.08.96-.04.38-.25.82-.44,1.3-.14.36-.26.78-.34,1.06-.17.58-.12,1.4-.11,1.57,0,.02.02.03.03.04l2.04.37s.05-.02.05-.05c0-.06-.02-.18-.01-.34,0-.16.02-.28.03-.34,0-.02-.01-.04-.03-.05l-1.21-.19s-.04-.02-.03-.04c.02-.14.07-.63.17-1.01.11-.45.43-1.16.6-1.51.15-.31.18-.84.19-.96,0-.02.01-.03.03-.03.12,0,.56-.02.72,0,.12,0,.24.04.31.06.03,0,.05-.02.04-.04-.03-.07-.08-.2-.14-.32"/><path class="cls-1" d="M23.92,2.3c-.1,0-.34,0-.63-.02-.32-.02-.92-.1-1.1-.13-.03,0-.05.02-.06.04l-.06.82s.02.05.04.05l.38.06s.04.03.04.05c-.01.25-.07,1.52-.09,1.82-.02.34-.13,1.82-.12,2.13,0,.32.13.52.2.69.06.17.14.47.09.83-.05.36-.18,1.48-.2,1.75-.02.23-.12.97-.14,1.15,0,.02-.02.04-.05.04h-.45s-.05.02-.05.04v.68s.01.05.04.05c.16,0,.67.03.92.02.26,0,.84-.03,1.01-.03.03,0,.05-.02.05-.05l-.06-.79s-.03-.05-.06-.04l-.41.06s-.06-.02-.06-.05c.03-.29.17-1.56.21-1.99.04-.49-.15-2.34-.18-2.63s.11-.9.15-1.43c.04-.47.08-1.9.09-2.17,0-.03.02-.05.05-.05l.44-.02s.05-.02.05-.05v-.79s-.02-.05-.05-.05"/><path class="cls-1" d="M25.98,7.43c.01.48.44,2.91.48,3.28.04.38-.32.54-.42.55-.1.01-.42.07-.63-.34-.17-.33-.27-2.02-.29-2.34-.04-.82.4-1.37.38-2.25-.02-.89-.22-1.33-.16-2.03.05-.71.01-1.27.26-1.49.25-.23.44-.22.44-.22.17.03.22.2.22.32,0,.12.04.75.11,1.08.07.34.21,1.05.05,1.51-.15.46-.45,1.34-.44,1.92M26.72,6.49c-.09-.95.28-1.58.4-1.91.12-.33.13-.49.13-1.02,0-.53-.11-1.09-.28-1.35-.18-.28-.36-.46-.67-.48-.31-.01-.58.16-.88.4-.3.24-.5.69-.61.9s-.15.8-.15.8c0,0-.15,1.15-.15,1.66s.13,1.57.15,1.97c.05.65-.29,1.74-.29,2.19,0,.22-.05.7.04,1.13.13.67.24.86.59,1.12.32.24.79.36,1.41.2.61-.16.95-.78.94-1.2,0-.59-.13-1.14-.17-1.37s-.38-2.09-.46-3.04"/><path class="cls-1" d="M31.93,9.4c-.09.3-.48.51-.64.58-.03.01-.07,0-.07-.04,0-.08-.02-.2-.04-.3-.05-.21-.19-.48-.31-.81-.12-.33-.39-.75-.36-1.33.03-.57.14-2.47.04-3.54-.09-.96-.24-2.42-.27-2.71,0-.03.02-.05.04-.06.1-.01.32-.05.49-.06.33-.03.49.21.5.45.01.24.03,1.62,0,2.79-.03,1.18.05,1.82.07,2.41.03.59.26,1.07.39,1.51.13.44.27.66.14,1.1M32.85,8.98c0-.44-.46-1.84-.57-2.34-.11-.5-.11-4.06-.11-4.06,0,0,0-1.28-.13-1.68-.13-.4-.67-.68-1.13-.68s-.91.43-1.01.51c-.1.08-.34.57-.42.96-.11.51.02,1.14.13,2,.11.86.33,2.85.36,3.3.03.44-.06.98-.06,1.56s.59,1.8.63,2.01c.02.13-.02.3-.06.41-.01.04.03.08.07.06.07-.03.17-.08.27-.14.19-.11.57-.22.9-.32.33-.11.54-.21.86-.54.32-.33.26-.61.26-1.04"/><path class="cls-1" d="M35.54,8.98c-.1.2-.21.32-.47.36-.26.04-.51-.2-.55-.35-.04-.15,0-.71-.04-.88-.1-.58-.19-.77-.21-1.03-.02-.42-.16-1.58-.25-2.39-.1-.85-.09-1.92-.09-1.92.02-.57-.05-1.38.03-1.52.09-.16.29-.34.55-.3.35.06.54.22.5.75-.04.54-.06,1.88,0,2.44.07.57.26,1.58.32,2.23.06.66.04,1.07.09,1.42.05.35.2.98.1,1.18M35.97,4.87c-.13-.63-.07-3.12-.07-3.46,0-.67-.41-1.31-1.33-1.4-1.02-.09-1.29.64-1.42.98-.13.33-.05,1.21-.05,1.21.02.42,0,1.42,0,1.99,0,.53.13,2.33.21,2.84.08.5.21.55.22.98,0,.43.12,1.31.41,1.67.3.36.63.6,1.36.55.73-.05,1.01-.77,1.12-1.23.11-.45-.06-2.13-.13-2.63-.06-.5-.19-.86-.31-1.49"/><path class="cls-1" d="M42.11.24l-.87-.02s-.04.01-.04.03c-.05.49-.61,6.16-.64,6.85-.04.72.04,1.74-.02,2.13-.03.22-.23.57-.4.83-.03.05-.11.01-.09-.04.1-.29.24-.67.28-.87.05-.23-.15-.95-.33-1.84-.18-.89-.23-2.23-.26-2.86-.03-.6-.28-3.89-.31-4.26,0-.02-.02-.03-.04-.03h-.85s-.04,0-.04.03c.03.5.35,5.45.44,6.04.09.63.52,1.96.57,2.33.04.38-.15.93-.32,1.44-.14.42-.09.71-.07.8,0,.02.02.03.03.03l1.43.16s.03,0,.04-.02c.05-.14.28-.81.47-1.18.21-.42.28-.55.37-1.02.09-.48.04-2.52.2-3.78.14-1.18.45-4.3.49-4.69,0-.02-.01-.04-.04-.04"/><path class="cls-1" d="M45.09.4c-.14-.03-.76-.14-1.23-.14-.44,0-.81-.02-.92-.02-.02,0-.04.02-.04.04-.01.48-.13,5.22-.13,5.85,0,.66.13,1.07.09,1.47-.04.4-.22,1.16-.31,1.62-.09.46-.18,1.3-.27,1.49-.06.13-.08.25-.08.31,0,.02.02.04.04.04.2,0,1.09-.03,1.36-.04.26,0,.59-.09.67-.11.01,0,.02-.01.03-.03.01-.05.05-.17.05-.32s-.02-.43-.02-.52c0-.02-.02-.03-.03-.03-.11,0-.47-.04-.64,0-.13.03-.3.06-.41.08-.03,0-.06-.03-.04-.06.06-.1.17-.27.21-.44.05-.24.29-1.52.29-2.09,0-.49.01-.98.02-1.12,0-.02.02-.04.04-.04l1.2.06s.04-.02.04-.04l.04-.9s-.02-.04-.04-.04l-1.21-.03s-.04-.02-.04-.04l.1-4.1s.02-.04.04-.04l1.21.02s.04-.02.04-.04l-.02-.76s-.01-.03-.03-.04"/><path class="cls-1" d="M47.51,9.84c-.07-.03-.38-.16-.64-.18-.24-.01-.48.01-.57.02-.02,0-.03-.01-.03-.03.02-.14.11-.65.13-.92.02-.31,0-.88.19-1.38.19-.5.42-.7.46-1.27.04-.57.13-3.5.13-3.5,0,0,.02-.48-.04-.76-.06-.25-.22-.69-.25-.76,0,0,0-.01-.02-.02l-.75-.3s-.05.02-.03.04c.06.11.15.32.14.54-.02.31-.12,4.54-.12,4.54,0,0,0,1.3-.1,1.5-.09.2-.53.77-.55,1.1-.02.33.04.81.02,1.09-.02.25-.1.85-.12,1.01,0,.02.02.03.03.03.15-.04.7-.18,1.07-.18s.87.05.99.07c.02,0,.03,0,.03-.02l.05-.6s0-.02-.02-.03"/><path class="cls-1" d="M51.53,11.02c-.04-.15-.12-.31-.25-.48-.13-.16-.37-.53-.41-1-.04-.47.13-1.17.34-1.5.21-.33.74-1.48.95-2.03.22-.55.05-.9.12-1.55.06-.66.09-.92.09-1.5,0-.53-.42-1.25-.49-1.35,0,0-.01-.01-.02-.02l-.6-.17s-.05.02-.05.05c.05.18.19.69.22.92.04.28-.06,1.21-.06,1.51s.14.51.22.85c.07.34-.35,1.04-.35,1.04,0,0-.4-.16-.66-.29-.25-.13-.6-.15-.6-.15,0,0,.16-.84.19-1.19.03-.35-.07-.63-.16-.86-.09-.23-.13-.37-.11-.92.02-.48,0-1.03-.02-1.17,0-.02-.02-.03-.04-.03l-.89.02s-.04.02-.04.04c0,.1.02.38,0,.69-.03.39,0,.63.18,1.05.18.42.13.82.11,1.27-.02.46-.09.75-.27,1.32-.18.57-.36,1.5-.39,2.17-.03.67-.13,1.43-.22,1.94-.08.44-.07.84-.06.94,0,.02.01.03.03.03l.85.24s.05,0,.05-.03c0-.13.03-.52.07-.87.05-.42.06-.63-.03-1.11-.09-.48-.17-.86-.09-1.32.08-.46.57-1.35.57-1.35,0,0,.28.09.54.18.26.09.57.25.57.25,0,0-.43.8-.68,1.56-.25.76.51,2.23.57,2.48.05.2.02.44,0,.53,0,.02.01.04.04.04l.79.02s.04-.02.04-.04c0-.04-.02-.12-.05-.21"/><path class="cls-1" d="M54.55,8.34c-.07.31-.15.62-.15.62l-1.16-.39s.23-.6.55-.94c.31-.34.59-.81.69-1.23.1-.42.13-.91-.04-1.57-.17-.66-.16-.87-.1-1.25.03-.2.08-.51.12-.74,0-.02.03-.02.03,0-.03.48-.06,1.33.03,1.58.13.36.5,1.09.56,1.45.05.36.12.74-.06,1.2-.18.46-.4.96-.48,1.27M54.87,11.83c-.06-.26.03-.72.11-1.17.08-.45.69-2.4.84-2.92s.14-.72.11-1c-.04-.28-.47-1.03-.69-1.44-.22-.4-.18-1.06-.22-1.56-.04-.46.02-1.41.03-1.57,0-.01,0-.03-.02-.03-.08-.02-.38-.11-.67-.18-.27-.06-.61-.08-.75-.09-.03,0-.05.03-.04.05.02.06.06.18.12.42.1.39.1.81.06,1.35-.04.55.07.73.08,1.26,0,.63-.4,1.64-.57,2.12-.17.48-.54.83-.76,1.03s-.35.64-.57,1.53c-.22.89-.03,1.09.04,1.29.11.3.57.68.74.81.01.01.03,0,.03-.02-.03-.06-.07-.15-.13-.28-.1-.23-.03-.54,0-.74.02-.21.3-1.18.3-1.18l1.27.36s-.04.33-.1.67c-.05.34.06.67.11.99.04.25,0,.49-.03.58,0,.02,0,.04.03.05.1.02.38.08.54.14.11.03.19.07.25.1.03.01.06-.01.05-.05-.03-.12-.09-.34-.13-.52"/><path class="cls-1" d="M59.25,4.16s.02-.15.02-.37c0-.36-.38-1.22-1.43-1.28-1.05-.05-1.47.74-1.55,1.09,0,0-.07.39-.12.94-.05.55-.07,1.33,0,1.72.07.38.5.94.67,1.39.18.46-.15,1.07-.55,2-.39.93-.62,1.66-.67,2.21-.05.55.44,1.19,1.09,1.45.65.26,1.09.03,1.26-.09.21-.15.19-.56.18-.67,0-.02-.01-.03-.03-.04l-.67-.28s-.06,0-.06.03c-.01.07-.05.18-.14.23-.13.07-.45-.07-.58-.24-.13-.16-.22-.32-.22-.81,0-.48.57-1.23.71-1.55.15-.32.22-.55.26-1,.04-.44-.3-.98-.45-1.27-.15-.3-.15-.71-.1-1.33.05-.61.31-2.38.32-2.46.01-.08.17-.45.68-.4.43.05.45.46.45.59,0,.02.02.04.04.04l.83.1s.04-.01.05-.03"/><path class="cls-1" d="M61.73,4.23c-.02.31-.35,4.15-.41,4.71-.06.57-.35,3.63-.49,4-.14.37-.41.45-.61.41-.2-.04-.6-.25-.5-.78.1-.53.41-3.37.48-3.95.06-.57.52-4.33.52-4.33.04-.26.24-.57.54-.55.3.02.5.18.48.48M62.71,3.97c0-.41-.44-1.14-1.25-1.2s-1.45.46-1.61.98c-.16.52-.19,1.74-.33,2.73-.14.98-.77,5.9-.79,6.34-.01.44.24.97,1.27,1.3,1.07.34,1.44-.32,1.57-.65.13-.32.08-.91.28-1.85.2-.94.42-2.32.52-3.14.11-.86.33-3.86.32-4.51"/></svg>