<?xml version="1.0" encoding="UTF-8"?><svg id="Camada_1" xmlns="http://www.w3.org/2000/svg" viewBox="0 0 70.06 15.28"><defs><style>.cls-1{fill:#010101;}</style></defs><path class="cls-1" d="M3.42,14.12c-.17.07-.89.08-.89.08,0,0-.21-3.39-.31-4.01-.09-.63-.26-1.27-.38-1.75-.12-.47-.66-3.21-.66-3.21,0,0,.4-.08.66-.11.26-.02.53.18.6.53.07.35.2,1.05.33,1.77.13.72.38,1.78.53,2.4.15.61.22,1.2.25,1.69.02.48.17,2.04.19,2.21.02.17-.17.33-.33.4M4.56,11.05c-.08-.44-.42-2.3-.65-3.34-.22-1.04-.44-2.25-.58-2.66-.16-.47-.8-.92-1.34-.92s-.79.08-1.18.15c-.33.06-.67.16-.78.19-.02,0-.03.02-.02.04.03.08.12.3.16.51.06.27.97,4.48,1,5.15.04.66.19,3.64.25,3.98.06.34.11.78.35.96.25.18.38.18.71.15.33-.02,1.14-.18,1.4-.33.26-.15.89-.58.93-.91.05-.33.01-.67-.08-1.22-.09-.54-.09-1.32-.18-1.76"/><path class="cls-1" d="M7.83,13.35s-.03-.02-.05-.02l-.88.31s-.12-.32-.39-.71c-.27-.39-.45-.96-.26-1.56.19-.6.2-.91.18-1.18-.02-.27-.11-.44-.11-.44,0,0,1.04-.2,1.07-.26s-.37-.74-.46-.81c-.09-.07-.84.08-.84.08,0,0-.17-.86-.4-1.4-.24-.54-.38-1.02-.6-1.42-.22-.4-.58-1.25-.58-1.25l.56-.1s.04-.03.04-.05l-.13-.93s-.02-.03-.03-.04c-.05-.01-.15-.03-.29,0-.17.04-.46.13-.56.17-.02,0-.03.02-.03.04.01.14.06.68.25,1.38.21.81.94,4.06,1.04,4.63.09.57.21,1.09.11,1.57-.11.48-.12.92.06,1.31.18.39.39.6.46,1.18.06.45.1.74.11.84,0,.02.03.04.05.04.15-.02.65-.11,1.17-.24.5-.12.88-.24,1.02-.28.03,0,.04-.04.02-.06l-.53-.81Z"/><path class="cls-1" d="M10.15,7.72c-.31-.68-.3-3.92-.3-4.47,0-.04-.04-.08-.08-.07l-.89.1s-.07.04-.06.07l.08,2.64s-.05.48.33,1.23c.38.74.68,2.53.76,2.93.08.4.11.85-.13,1.49-.15.42-.22.9-.26,1.25,0,.05-.07.05-.08,0-.03-.22-.04-.52,0-.83.09-.57.17-1.28.04-1.87-.16-.69-.35-.99-.76-1.59-.68-1-1.33-2.68-1.81-4.37-.06-.22-.1-.49-.11-.61,0-.04-.03-.06-.07-.06h-.93s-.08.04-.07.09c.09.34.43,1.6.66,2.27.27.78.77,1.96,1.22,2.48.45.52,1.26,1.42,1.04,2.68-.21,1.26-.29,1.56.03,2.09.26.43.42.75.48.86.01.03.04.04.07.04l1.15-.17s.05-.03.06-.06c.02-.24.11-1.28.2-1.97.09-.78.19-1.96.08-2.74-.11-.78-.44-.89-.67-1.4"/><path class="cls-1" d="M13.17,10.75c-.24.01-.51-.02-.51-.02,0,0-.07-1.1-.04-1.52.04-.43-.25-1.59-.39-2.35-.14-.76-.06-1.38.04-1.83.07-.35.08-.81.07-.99,0-.01.02-.02.02,0,.05.17.15.57.19,1.01.05.57.02,1.26.12,1.82.09.55.68,1.96.8,2.4.12.44.25,1.43.25,1.43,0,0-.32.06-.55.07M14.98,11.24c-.11-.28-.32-.39-.53-.71-.21-.32-.19-1.06-.27-1.53-.08-.47-.24-.8-.4-1.43s-.15-1.33-.25-2.53c-.08-1.01-.25-1.8-.29-2.01,0-.03-.04-.06-.07-.05l-1.76.07s-.07.03-.07.07c0,.19.03.7.04.98.01.34-.13,1.57-.15,1.9-.02.33.17,1.07.26,1.58.09.51.12,1.33.17,1.61.05.27.33.83.48,1.23.15.4.13.96.07,1.62-.05.6-.16,1.64-.17,1.82,0,.01,0,.03.02.03.06.02.21.08.37.11.16.03.38.03.47.04.02,0,.04-.02.03-.04-.02-.12-.07-.5-.1-.85-.04-.42.04-1.53.04-1.53,0,0,.28.07.54.07s.71-.07.71-.07c0,0,.13.54.19.86.06.32.35,1.18.46,1.22.11.04.66-.25.66-.25,0,0,0-.34-.04-.7-.05-.43-.29-1.21-.4-1.49"/><path class="cls-1" d="M19.59,9.75c-.04-1-.06-2.95-.21-3.33-.15-.38-.58-1.02-.6-1.53-.02-.46,0-1.29,0-1.47,0-.02-.01-.04-.03-.04l-.96-.09s-.04.01-.04.03c-.02.17-.09.91.15,1.36.27.51.6,1.02.6,2.17s.08,2.97.09,3.33c.01.35.01.83.22,1.06.21.24.45.43.48.81,0,.06.03.15.03.22,0,.05-.07.06-.08.01-.07-.22-.15-.56-.44-.84-.51-.49-.55-.58-.69-1.57-.14-.99-.66-4.17-.76-4.56-.09-.39-.2-.84-.53-1.25-.28-.35-.37-.67-.38-.76,0-.01-.01-.02-.03-.03l-1.48-.21s-.05.02-.04.05c.07.17.26.68.27,1.5.01,1-.01,3.05.02,3.92.04.87.08,1.62.37,1.89.22.21.45.32.54.73.08.41.1.4.13.92.02.38-.06.89-.1,1.1,0,.05.03.09.08.1h.77s.08-.02.08-.06c.02-.26.1-1.16.08-1.57-.02-.48-.04-.79-.31-.97-.27-.18-.52-.26-.58-1.05-.06-.79.01-3.97-.05-4.44-.05-.4-.13-.99-.15-1.16,0,0,.01-.01.02,0,.06.12.24.52.33,1.22.12.86.52,3.8.59,4.18.07.38.11.89.37,1.14.26.26.68.51.78.83.09.29.26,1.6.29,1.84,0,.02.02.04.04.04l1.76.07s.04-.02.05-.04c.02-.16.08-.78-.34-1.37-.48-.67-.32-1.2-.35-2.21"/><path class="cls-1" d="M23.27,13.02s-.19,0-.48,0c-.29,0-.83-.07-.83-.07,0,0-.07-.46-.11-.74-.04-.28,0-1.26-.08-1.7-.08-.44-.15-1.37-.15-1.37h1.22s.07-.04.06-.07c-.03-.1-.08-.27-.15-.38-.09-.17-.17-.2-.43-.31-.26-.1-.76-.17-.76-.17,0,0-.02-.09-.09-.32-.07-.23-.18-.39-.46-.79-.28-.41-.13-1.49-.11-1.77.02-.28-.12-.6-.12-.6,0,0,.44.22.67.28.17.05.37.08.47.09.03,0,.06-.02.06-.05l.07-.81s-.02-.06-.05-.06c-.23-.03-1.1-.14-1.34-.18-.2-.04-.55-.16-.71-.22-.04-.01-.08.02-.08.06.02.2.08.69.05,1.02-.03.42-.06.77.02,1.25.09.48.39.67.55,1.25.17.58.16,1.27.15,1.72,0,.44.17,1.86.19,2.34.02.49.06.88.24,1.28.15.33.24.63.27.73,0,.02.02.04.04.04.13.02.63.11,1,.2.34.08.76.13.93.14.04,0,.07-.03.06-.07l-.14-.72Z"/><path class="cls-1" d="M26.37,12.92s-.02-.04-.05-.04l-.5.02s-.06-.63-.16-.89-.16-.66-.18-1.19c-.02-.38-.4-.79-.55-.99-.15-.2-.14-.8-.17-1.24-.02-.44-.05-.55-.13-.7-.09-.15-.17-.43-.23-.85-.06-.42-.07-.54-.18-.88-.11-.34-.17-.79-.17-.79l.42.04s.06-.02.05-.06l-.14-.88s-.02-.04-.04-.04l-1.31-.17s-.05.02-.06.04l-.07.86s.02.05.04.05l.4.06s.13.9.11,1.38c-.02.48.24.62.32,1.02.09.42.02.57.02,1.05,0,.48.36.8.54,1.05.18.24.21.7.23,1.2.02.5.18.93.23,1.15.05.22.07.88.07.88l-.56.03s-.05.03-.05.06l.11.77s.02.04.04.04c.08,0,.26.02.46.04.24.01,1.31-.05,1.56-.06.03,0,.05-.03.05-.05l-.09-.88Z"/><path class="cls-1" d="M29.04,12.94c-.14.11-.38.11-.58.03s-.42-.12-.5-.5c-.07-.39-.05-.65-.23-1.04-.18-.39-.32-.87-.43-1.53-.11-.66-.46-2.57-.57-2.97-.12-.4-.34-1.27-.34-1.27-.06-.22.14-.54.36-.6.22-.06.57-.06.65.21.08.27.58,2.37.75,3.2.17.83.65,3.07.75,3.39.1.32.29.96.15,1.07M29.26,9.16c-.1-.42-.17-.87-.23-1.22-.05-.35-.28-1.18-.38-1.51s-.4-1.24-.55-1.6c-.15-.36-.46-.61-.46-.61,0,0-.5-.49-1.53.09-1.03.58-.64,1.65-.64,1.65,0,0,.28.98.35,1.28.07.3.09.69.19,1.05.1.35.24,1.23.29,1.63.05.4.15.74.38,1.09.23.35.24.68.28,1.14.05.46.35.79.63,1.09.28.3.7.56,1.32.51.62-.05.98-.46,1.09-.57.1-.11.07-.27.06-.51-.02-.24-.69-3.09-.79-3.52"/><path class="cls-1" d="M34.89,11.52c-.31.17-.76.31-.76.31,0,0-.13-.44-.19-.75-.06-.31-.32-1.51-.46-1.94-.14-.43-.49-1.64-.5-2.17,0-.54-.32-1.5-.53-2.2-.2-.71-.27-1.03-.52-1.63,0,0,.39-.15.61-.22.23-.07.43.06.52.24s.65,1.73.68,2.03c.02.3.02.96.1,1.26.09.3.91,3.84,1.01,4.15.1.31.33.76.02.93M35.35,8.63c-.23-.76-.46-2.05-.61-2.56-.15-.51-.2-1.01-.23-1.48-.02-.47-.35-1.24-.5-1.72-.16-.48-.42-.61-.63-.77-.21-.17-.72-.2-.99-.13-.24.07-1.34.45-1.64.56-.04.01-.06.06-.05.1.08.21.33.83.56,1.4.28.7.44,1.52.6,2.06.16.54.31.79.4,1.69.09.9.22,1.21.41,1.93.17.64.72,2.79.84,3.25.01.05.06.07.11.06.3-.09,1.27-.39,1.68-.56.49-.2.81-.94.68-1.5-.13-.56-.4-1.57-.63-2.33"/><path class="cls-1" d="M38.28,10.74c-.53.2-.67-.31-.73-.54-.06-.23-.37-1.91-.52-2.63-.15-.72-.43-2.02-.65-2.79-.21-.77-.38-1.6-.44-2.06-.04-.29-.14-.56-.17-.68-.07-.33.22-.55.38-.59.12-.03.59-.02.68.56.09.58.35,1.64.52,2.23.17.59.34,1.3.52,2.5.18,1.2.6,2.75.65,3.01.05.26.28.79-.24.98M38.34,4.12c-.08-.45-.58-2.13-.65-2.44-.07-.31-.12-.51-.39-.79-.28-.28-.77-.42-1.53-.24-.76.18-1.05,1.09-.94,1.53,0,0,.21.65.35,1.23.14.58.07.66.24,1.53.09.44.79,3.08,1.1,4.48.31,1.4.34,1.69.71,2.04.36.34.81.37,1.16.25.4-.13.85-1.2.93-1.53.13-.51.03-1.17-.26-2.36-.29-1.19-.65-3.25-.73-3.7"/><path class="cls-1" d="M44.05,5c-.02-.46-.22-.96-.44-1.52-.22-.56,0-1.04.06-1.19.06-.15-.04-.18-.09-.22-.05-.04.02-.17-.02-.23-.04-.06-.98-.17-.98-.17,0,0,.02.06.07.08.05.02.1.07.06.25-.04.18-.14.4.05.85s.31,1.09.29,1.77c-.02.68.04,1,.17,1.33.13.33.09.88.05,1.31-.03.32-.22,1.66-.32,2.36,0,.05-.08.04-.08,0-.03-.92-.12-3.03-.17-3.54-.06-.66-.3-.82-.51-1.14-.21-.32-.28-1.19-.38-1.81-.1-.62-.45-1.24-.52-1.44-.06-.16-.02-.29,0-.33,0-.01,0-.02-.01-.03-.06-.02-.24-.08-.43-.13-.2-.06-.51-.1-.58-.11,0,0-.02,0-.02.01-.01.04-.03.14.09.35.14.26.31.82.39,1.33.08.51.15.67.31,1.24.16.57.56.96.65,1.5.09.53.3,1.49.43,2.56.11.94.11,2.27.1,2.57,0,.03.03.06.06.06l1.41-.09s.05-.02.05-.05c.02-.14.09-.59.16-.99.08-.48.24-1.87.13-2.48-.11-.61.06-1.64.04-2.11"/><path class="cls-1" d="M47.42,10.42l-1.21-.12s.1-1.22.11-1.96c0-.74-.65-2.14-.65-2.14,0,0,.31.11.43.17.08.04.24.07.34.09.05,0,.09-.03.1-.08l.05-.81s-.02-.05-.05-.05c-.11,0-.38-.03-.54-.05-.21-.02-.52-.13-.52-.13,0,0-.05-.36-.09-.89-.05-.52.17-1.44.18-1.48,0,0,0,0,0,0,0,0-.07-.05-.12-.09-.03-.03-.04-.09-.03-.13,0-.02.02-.03.03-.03l1.24.14c.05,0,.1-.03.1-.09l.03-.76s-.04-.09-.09-.1c-.16-.01-.51-.03-.92-.06-.46-.03-1.1,0-1.3,0-.04,0-.07.03-.07.07l-.04.45s.02.06.05.08l.12.05s.03.03.03.05c0,.06,0,.21-.05.48-.06.39-.06.7-.04,1.04.02.34.49,1.41.71,2.09.22.68.11,2.26.06,2.8-.05.5.02,1.77.04,1.97,0,.02.01.03.03.04.14.06.85.32,1.24.41.38.09.77.07.86.06.01,0,.02-.01.02-.02l-.02-.96s-.01-.03-.03-.03"/><path class="cls-1" d="M49.42,11.01s-.14,0-.26-.02c-.17-.02-.61-.16-.61-.16,0,0-.22-1.27-.2-1.9.02-.63.26-2.99.43-4.02.17-1.03.24-1.91.23-2.27-.01-.33-.2-.44-.23-.45,0,0,0,0,0,0l-.84-.16s-.03.01-.02.03c.17.4,0,1.52-.12,2.66-.13,1.17-.2,2.34-.23,2.89-.05,1.09.3,2.15.48,2.82.17.62.27,1.07.29,1.14,0,0,0,.01.01.01.05.02.3.1.5.19.19.09.47.16.56.18.01,0,.02,0,.02-.02v-.91s0-.02-.02-.02"/><path class="cls-1" d="M54.78,4.29c-.1-.47-.17-.64-.35-.68-.17-.04-.88-.19-1.04-.23,0,0-.01,0,0,.01.09.06.33.27.37.67.06.61-.15,1.34-.29,1.75-.14.42-.18.53-.18.53l-1.52-.3s.42-1.35.44-1.83c.02-.47.05-1.03-.24-1.13-.23-.08-.76-.23-.97-.29-.02,0-.03.02-.01.03.13.11.37.42.24,1.17-.18,1-.36,1.32-.47,2.08-.1.71-.58,5.39-.63,5.92,0,.03.02.05.04.05l.87.1s.05-.02.05-.04l.52-5.14,1.46.14-.42,5.13s.03.07.06.07l.82.04c.06,0,.11-.04.11-.1.03-.47.17-2.35.24-3.13.07-.89.14-1.88.42-2.56.28-.68.58-1.79.48-2.26"/><path class="cls-1" d="M57.68,6.77c-.15.61-.04,2.3-.04,2.3l-1.3-.15s.21-1.29.32-1.77c.11-.48.5-.96.73-1.53.23-.57.15-.91.1-1.17-.05-.26-.25-.39-.31-.41-.06-.02-.09-.08.01-.06.1.02.64.13.75.85.11.72-.1,1.33-.25,1.94M58.69,7.55c-.01-.67.07-1.05.25-1.77.15-.62-.03-1.06-.17-1.3-.21-.35-.72-.33-1.05-.38-.29-.04-.46-.43-.5-.52,0-.01-.02-.02-.03-.02-.06,0-.24,0-.55.05-.32.04-.99.03-1.19.02-.02,0-.04.03-.03.05.11.16.26.12.44.13.19.01.67.07.67.93s-.51,1.56-.79,2.08c-.28.52-.68,3.41-.83,4.08-.12.57-.37,1.15-.44,1.31,0,.02,0,.04.03.04l.8-.05s.02-.01.03-.02c.01-.06.06-.25.11-.46.07-.26.31-.71.47-1.04.17-.33.2-.7.2-.7h1.31s-.27.47-.38.96c-.09.43-.01,1.12,0,1.26,0,.02.02.03.03.03l.92-.02s.03-.01.03-.03c0-.08-.02-.32-.07-.87-.06-.7-.02-1.04.4-1.63.42-.59.32-1.45.31-2.12"/><path class="cls-1" d="M62,3.75c-.18-.15-.56-.61-1.18-.71-.61-.09-1.06.17-1.28.34,0,0-.28.18-.34.5-.06.31.09.35.52.41.46.06.61.55.65.84.05.32-.19,1.09-.31,1.33-.22.44-.12,1.4-.28,2.15-.1.48-.38.59-.8,1.13-.5.66-.16,1.57-.16,1.57,0,0,.33,1.07,1.63.98,1.15-.08,1.29-1.18,1.31-1.43,0-.03-.02-.05-.05-.05l-.83-.02s-.04.02-.05.04l-.04.17c-.05.21-.35.37-.54.35-.19-.01-.36-.13-.48-.34-.12-.21-.06-.76-.01-1.14.05-.39.21-.63.47-.87.25-.24.43-.41.52-.54.09-.14.25-.48.3-1.26.05-.78.2-1.09.31-1.55.11-.46-.06-.84-.24-1.06-.18-.22-.6-.32-.78-.36-.15-.03-.14-.29.32-.32.39-.03.62.18.67.25.01.01.03.02.04.01l.86-.12s.05-.05.03-.08c-.05-.06-.14-.16-.25-.25"/><path class="cls-1" d="M65.63,6.23c-.28.29-.7.47-.86.67-.14.18-.29.46-.33,1.3-.04.84-.04,2.46-.06,2.74s-.29.46-.58.44c-.3-.02-.5-.27-.5-.46s-.05-2.99.28-3.39c.41-.5.93-.68,1.07-1.02.14-.34.26-.71.15-1.23-.11-.53-.18-.81-.74-1.19-.51-.34-.3-.63-.24-.7.1-.12.47-.26.76,0,.22.2.51.49.62.65.35.48.52.83.64,1.2.06.19.14.63-.2.98M66.72,5c-.07-.2-.88-1.43-1.07-1.74,0,0-.44-.84-1.29-.96-.84-.12-1.44.55-1.62.9-.18.35-.02.76.23.92.25.17,1.04.55.99,1.6-.05,1.04-.17,1.12-.4,1.42-.24.32-.78.63-1.01,1.04-.29.5-.2,2.68-.18,3.06.02.38.51,1.13,1.5,1.13s1.45-.97,1.48-1.43.08-3.69.15-4.1c.07-.41.45-.67.84-.93.39-.26.45-.71.38-.91"/></svg>