<?xml version="1.0" encoding="UTF-8"?><svg id="Camada_1" xmlns="http://www.w3.org/2000/svg" viewBox="0 0 65.29 13.1"><defs><style>.cls-1{fill:#010101;}</style></defs><path class="cls-1" d="M3.66,8.03c-.04.44-.25.85-.33,1.08-.08.24-.37.56-.58.61-.16.04-.35.02-.45,0-.03,0-.04-.03-.03-.06.03-.07.08-.22.16-.45.11-.32.34-2.67.4-3.29.06-.62.15-1.74.15-2.26s-.24-.85-.47-1.09c-.18-.18-.78-.53-1.04-.67-.02-.01-.01-.05.02-.04.95.17.88.4,1.57.83.72.45.82,1.29.9,1.89.08.6-.24,3-.29,3.43M4.75,6.08c.02-.67.08-1.6-.3-2.16-.37-.57-.47-.7-.82-1.01-.16-.15-.35-.5-.44-.74-.11-.28-.15-.55-.61-.79-.46-.24-.72-.28-1.08-.22-.17.03-1.14.18-1.46.22-.04,0-.06.06-.02.09.1.07.32.2.78.37.74.27,1.11.53,1.15.92.03.39.13,1.12.05,2.07-.08.96-.31,3.67-.44,4.44-.11.62-.24,1.1-.28,1.25,0,.03.01.05.04.05.19,0,.82-.04,1.09-.11.32-.09.82-.31,1.17-.78.35-.47.84-1.2.96-1.81.12-.61.2-1.12.22-1.8"/><path class="cls-1" d="M7.23,5.57s-.02-.02-.03-.03l-.88-.24s-.1-.53-.46-.99c-.35-.46-.34-1.31-.4-1.63-.06-.31-.14-.49-.2-.57-.02-.03-.04-.05-.06-.08-.02-.03,0-.06.04-.05l.97.31s.05-.02.04-.04l-.22-.64s-.02-.03-.04-.02c-.12.03-.55.12-.92.08-.32-.03-.78-.13-1.01-.18-.02,0-.04.02-.02.04.09.08.2.23.25.53.08.51.08,1.22.61,1.84.54.63.71.94.71,1.67,0,.73.09,1.51-.26,2.23-.35.72-.81,1.31-.87,1.96-.04.49-.06.76-.07.86,0,.02.02.05.04.04.1,0,.33-.02.49-.06.21-.05.67-.24,1.09-.22.32.01.52.01.6.01.02,0,.04-.01.04-.03l.1-.53s-.02-.06-.05-.05c-.17.04-.62.16-.87.19-.31.04-.38.03-.38.03,0,0-.09-.88.31-1.57.4-.69.71-1.41.69-1.81-.02-.4-.03-.47-.03-.47l.97.13s.06-.03.04-.06l-.26-.67Z"/><path class="cls-1" d="M11.02,7.8c.14-.36.16-.64.1-1.18-.06-.51-.72-5.3-.79-5.8,0-.02-.02-.04-.05-.03l-.8.15s-.04.02-.03.04c.05.39.46,3.66.53,4.29.08.67.22.59.2,1.62-.02,1.03-.19,1.14-.33,1.48-.14.33-.23.99-.32,1.28-.03.1-.08.19-.12.27-.03.05-.1.02-.09-.04.02-.08.04-.17.06-.28.08-.38.1-.95.13-1.46.03-.51-.05-1.26-.15-2.26-.1-.99-.63-1.65-.88-2.29-.22-.59-.65-2.03-.72-2.27,0-.02-.03-.03-.05-.03l-.89.15s-.04.03-.03.06c.05.12.19.43.31.85.16.53.39,1.02.74,1.54.35.52.39,1.14.42,1.45.03.31.09.82.26,1.2.16.37.1.8.01,1.04-.08.24-.06,1.36-.07,2.02-.01.52-.18.89-.26,1.02-.01.02,0,.05.03.05l1.12-.08s.03,0,.04-.02c.06-.09.32-.46.65-.71.39-.29.6-.79.66-1.09.06-.29.18-.62.32-.98"/><path class="cls-1" d="M13.32,7.61l-.45.23s.1-.2.25-.57c.16-.37.16-.68.07-1.8-.07-.94-.47-3.42-.59-4.18,0-.02.03-.03.04,0,.23.67.93,2.76,1.14,4.18.15.99-.45,2.14-.45,2.14M14.11,3.9c-.09-1.04-.62-2.31-.83-2.74-.18-.37-.32-.83-.36-.95,0-.02-.02-.02-.04-.02l-1.21.32s-.02.02-.02.03c.05.41.74,5.55.8,6.6.06,1.1-.9,1.84-1.4,2.39-.44.48-.51,1.07-.52,1.22,0,.02.01.03.03.03h.93s.03,0,.03-.02c0-.08.02-.34.04-.67.02-.41.45-1.37.74-1.53.26-.14.67-.09.77-.07.02,0,.03.02.02.03,0,.08-.02.32.07.76.09.45.08.86.07.99,0,.02.02.04.04.03l.83-.26s.02-.02.02-.03c-.01-.18-.09-1.35-.19-1.86-.11-.56.02-1.14.14-1.91.15-.96.12-1.3.03-2.34"/><path class="cls-1" d="M18.37,1.53c.02-.47.23-.98.29-1.11,0-.01,0-.03-.02-.03l-.93-.11s-.02,0-.02.01c-.05.09-.32.63-.3,1.59.02.7.23,2.02.41,3.06.18,1.05.17,2.81.2,3.31.02.24.02.47.02.66,0,.04-.06.04-.06,0-.07-.46-.19-1.25-.26-1.59-.1-.51-.14-1.12-.39-1.99s-.92-2.92-.96-3.68c-.03-.62.02-1.28.04-1.49,0-.04-.03-.07-.07-.08L14.62,0s-.08.02-.09.06c-.04.15-.12.53.05,1.08.22.72.22,1.01.17,1.9-.05.89-.09,2.24.08,3.37.17,1.14.26,1.88.16,2.54-.09.56-.03.9-.02.99,0,.01.01.02.02.02h.89s.03-.01.03-.03c-.02-.17-.1-1.13-.05-1.83.05-.77,0-1.36-.1-2.12-.1-.76-.51-2.33-.44-3.25.07-.92-.06-1.84-.01-2.02l.04-.18s.04-.02.04,0c0,.16,0,.39,0,.53.03.24.12,1.65.4,2.59.33,1.11.61,1.7.71,2.3.09.57.6,3.55.67,3.91,0,.02.02.04.04.04h1.69s.04-.03.04-.06c0-.27-.04-1.77-.13-3.37-.1-1.77-.5-3.88-.46-4.95"/><path class="cls-1" d="M22.14,8.88l-1.15.05s-.07-.03-.07-.06c-.01-.27-.05-1.28-.06-1.79,0-.59-.14-2.23-.14-2.23,0,0,.74.04,1.25.06,0-.23-.13-.29-.29-.37-.16-.08-1.03-.24-1.11-.3-.08-.06-.28-.37-.36-.69-.08-.31.06-.95.19-1.58.13-.62.16-1,.16-1l1.26.26s.07-.02.08-.05l.09-.52s-.02-.08-.06-.08l-2.12-.1s-.06.02-.07.05c-.05.2-.22.9-.33,1.57-.13.79-.09,1.15.14,1.61.23.46.26,1.39.34,2.18.08.72.14,3.48.15,3.94,0,.04.03.06.07.06l2.06-.05s.06-.03.06-.07l-.03-.82s-.03-.06-.07-.06"/><path class="cls-1" d="M25.07,8.84h-.44s-.06-.02-.06-.05c0-.42-.06-3.03-.13-3.28-.07-.27-.11-.3-.35-.33-.24-.04-.31-.28-.3-.5,0-.22.1-1.13.2-1.78.08-.51.17-.85.2-.97,0-.03.04-.05.07-.04l.4.08s.06-.01.07-.04l.15-.74s-.01-.06-.04-.07l-1.84-.44s-.06.01-.07.04l-.14.76s.01.06.04.06l.41.11s.05.04.04.07c-.05.22-.23,1.12-.29,1.62-.07.57-.19,1.49.08,1.57.28.07.4.09.43.48.03.36.15,2.99.17,3.41,0,.03-.02.06-.05.06h-.46s-.06.04-.05.07l.03.82s.03.05.06.05l1.92-.02s.06-.03.06-.06l-.04-.84s-.03-.05-.06-.05"/><path class="cls-1" d="M27.37,8.89c-.18,0-.46-.06-.53-.43-.07-.37-.08-2.01-.1-2.21-.02-.2,0-.42-.07-.46-.07-.05-.43-.08-.49-.15-.07-.07-.15-.26-.1-.72.05-.46.27-2.28.27-2.28.04-.22.37-.42.59-.35s.45.24.44.5c-.01.26-.12.84-.12,1.37s-.11.95-.11,1.22-.02.51.09.54c.11.03.36.09.43.11.07.03.09.07.1.18,0,.1.07,1.92.07,2.18s-.3.49-.48.49M28.68,6.41c-.12-.02-.43-.09-.54-.2-.13-.14-.03-.82.02-1.18.05-.35.01-.53-.01-.78-.03-.25.11-.65.1-1.19-.02-.54-.61-1.04-.9-1.28-.29-.24-.72-.39-.93-.37-.28.03-.7.37-.9.85-.13.31-.24,1.32-.31,1.91-.06.58-.03,1.04,0,1.16.02.1.37.13.46.17.09.04.1.33.14.57.02.17.03,1.85.12,2.5.09.65.71,1.33,1.52,1.23.82-.09,1.25-.98,1.26-1.36,0-.33.03-1.68.03-1.96,0-.03-.02-.05-.05-.06"/><path class="cls-1" d="M33.76,8.7c-.05.16-.11.24-.34.29-.22.05-.7-.05-.7-.05l.09-1.4s0-.03-.02-.03c-.08-.01-.32-.06-.42-.16-.13-.12-.12-.51-.1-.67.02-.16.01-.35-.03-.47-.05-.12-.06-.63-.08-.91-.02-.28-.01-1.6-.01-1.6,0-.35-.06-.55-.09-.64-.01-.03.01-.06.04-.06.11,0,.33,0,.53.02.27.03.4.22.43.48.02.21.1,1.15.08,1.4-.02.25-.11.33-.02.77.09.44.32,1.37.35,1.6.03.24.05.35.11.4.05.04.16.07.22.09.02,0,.03.02.03.04,0,.15-.04.76-.08.9M34.67,8.05c-.06-.02-.17-.06-.18-.19-.02-.18-.16-1.16-.35-1.73-.19-.58-.55-1.26-.32-1.7.23-.44.17-.73.14-1.12-.03-.38-.52-1.09-1.25-1.12-.62-.02-1.48.13-1.72.17-.03,0-.05.04-.04.07.07.15.26.58.3,1,.05.51-.08,2.23.02,2.46.1.23.09.38.06.63-.02.2.02.46.04.55,0,.02.02.03.04.04l.45.12s.03.02.03.04c-.02.19-.11,1.21-.11,1.6,0,.43,0,.83.05.87.05.04,1.27.19,1.65.17.37-.02.69-.25.95-.56.26-.31.25-.41.26-.68,0-.21.02-.46.02-.56,0-.03-.02-.06-.05-.06"/><path class="cls-1" d="M37.01,9.4c-.48,0-.5-.56-.48-.73.02-.16-.11-.93-.28-1.27-.17-.35-.39-.59-.56-1.61-.17-1.03-.27-1.41-.23-1.82.06-.5.45-1.36.9-1.23,0,0,.44.1.4.41-.04.31-.33.95-.26,1.57.07.62.12,1.22.51,2.2.35.87.54,1.19.54,1.68s-.07.82-.55.81M37.87,6.66c-.07-.12-.2-.17-.28-.36-.09-.18-.11-.4-.19-.98-.08-.58.18-1.53.24-2.02.06-.49-.56-.97-.76-1.08-.2-.11-1.1-.49-1.61,0-.51.48-.36,1.3-.43,1.45-.07.15-.26.29-.31.43-.05.15.04.52.13.85.09.33.11.45.17.78.07.33.24.84.41,1.23s.22.78.24,1.04c.02.26.04.23.08.25.06.03.04.08.05.35.01.42-.04.82.35,1.16.37.33,1.15.62,1.69.4,1.11-.44.74-1.8.65-2.22s-.37-1.15-.44-1.27"/><path class="cls-1" d="M43.33,2.68l-.79.03s-.07.03-.06.07c.02.26.07,1.16.07,1.25,0,.1-.02.13-.1.15s-.04.1-.04.19.01.54.02.86c0,.32-.14.69-.17.77-.03.08-.16.04-.24.03s-.08.09-.14.31c-.07.22-.07.87-.06,1.26,0,.22.01.71.01,1.08,0,.05-.08.06-.09,0-.06-.36-.13-.82-.14-1.12-.03-.54-.17-.98-.2-1.09-.03-.12.08-.61.02-.67-.06-.07-.08-1.02-.12-1.14-.04-.12-.09-.1-.14-.12-.06-.03-.03-.65-.09-1-.06-.35-.31-.84-.35-.88-.04-.04-.14-.04-.34-.06-.16-.01-.34-.07-.42-.09-.01,0-.02,0-.02.02.04.09.16.33.21.63.07.45.08,1.38.07,1.54,0,.02.01.03.03.03.03,0,.08.02.12.07.06.07.06.73.06.89,0,.02.02.04.04.04h.11s.05.02.05.04c.07.28.46,1.87.58,2.49.11.54.12,1.21.12,1.48,0,.05.05.09.1.06.13-.07.37-.18.52-.23.17-.06.39-.06.48-.06.03,0,.05-.02.05-.05,0-.33.06-2.28.1-2.55.04-.29.19-.58.29-.64.1-.06.11.03.23-.03.11-.06.23-.73.29-1.2.05-.41-.03-1.07-.05-1.21,0-.02,0-.03.02-.05.03-.02.07-.06.1-.1.03-.05-.03-.74-.04-.95,0-.04-.03-.06-.07-.06"/><path class="cls-1" d="M46.4,2.43s-.03-.03-.05-.03l-2.14.21s-.04.03-.04.05c.02.15.11.63.25,1.16.17.64.14.87,0,1.23-.13.35-.06,1.02-.08,1.34-.02.32-.17.39-.25.39s-.11.17-.14.4c-.03.23.06.93.03,1.2-.03.24.1.91.13,1.05,0,.02.02.03.04.03.16.03.95.17,1.26.21.28.04.66.05.78.06.02,0,.04-.02.04-.04,0-.07,0-.22,0-.38-.01-.17-.03-.34-.04-.41,0-.02-.02-.03-.04-.04-.06-.01-.22-.04-.44-.09-.24-.05-.59-.05-.71-.05-.03,0-.05-.02-.05-.05v-.31c0-.23-.09-.52-.11-.75-.02-.23.02-.56.14-.62.11-.07.16-.21.18-.44.02-.19-.09-.61-.13-.73,0-.02,0-.04.02-.05.08-.04.28-.15.54-.25.22-.09.36-.1.43-.09.03,0,.05-.02.05-.04v-.68s-.03-.04-.05-.04c-.08,0-.25,0-.42.04-.17.04-.39.17-.51.24-.03.02-.08,0-.06-.05.01-.05.04-.11.08-.2.11-.2.24-.32.3-.65.05-.27-.11-.79-.16-.95,0-.02,0-.05.03-.06l1.16-.25s.04-.03.03-.06l-.09-.29Z"/><path class="cls-1" d="M49.22,9.37l-1.17-.19s-.05-.04-.05-.07c.04-.19.17-.82.16-1.35-.02-.64-.09-.95-.07-1.31.02-.36.11-.98,0-1.63-.12-.65-.07-.91.11-1.05.18-.14.52-.22.54-.74.01-.52-.03-.7-.09-.71-.03,0-.05,0-.08,0-.03,0-.05-.01-.06-.04l-.03-.07s-.03-.03-.05-.03l-.87.09s-.05.03-.04.06l.03.13s.02.03.04.03c.04,0,.11,0,.14.11.05.16.22.88-.27,1.12-.43.21-.26.75-.26.99s-.05.84,0,1.24c.04.35.16.69.06,1.38-.1.69-.16,1.14-.08,1.7.06.43.09.71.11.81,0,.03.02.05.05.05l1.75.41s.05,0,.05-.03l.15-.83s-.01-.05-.03-.05"/><path class="cls-1" d="M53.26,5.63c-.2-.4-.56-.75-.23-1.44.33-.69,1.01-1.29,1.08-1.73.07-.44,0-.93-.18-1-.48.06-.74.09-.85.11-.03,0-.04.04-.02.06.07.07.17.23.14.54-.04.46-.15.87-.55,1.22-.4.35-.78,1.03-.54,1.54-.87,0-1.41.01-1.41.01,0,0-.07-.69.19-1.07.26-.37.57-.61.72-.92.22-.46.08-.97.03-1.13-.01-.03-.04-.05-.07-.05l-.87.09s-.04.03-.03.05c.05.08.14.24.15.42.01.22,0,.52-.12.78-.13.28-.52.52-.65.77-.13.25-.22.71-.18,1.2.03.5.26,1.44.28,2.09.02.56-.26,2.94-.29,3.24,0,.02,0,.03.03.04l.85.18s.04,0,.04-.03c.04-.31.33-2.55.29-3.26-.04-.76-.2-1.58-.2-1.58l1.48-.17s.11.51.04,1.19c-.07.68-.09,1.54-.13,2.08-.03.48-.19,1.36-.22,1.57,0,.02.01.04.04.04.09-.01.31-.03.45-.02.14.01.3.01.36.01.02,0,.03-.01.03-.03.03-.24.27-1.87.26-2.34,0-.51.29-2.07.09-2.47"/><path class="cls-1" d="M56.28,7.81c-.09-.07-.22-.17-.37-.21-.26-.08-.43-.11-.43-.11,0,0,.03-.4-.18-.54-.21-.14-.36-.41-.29-.77.07-.37.46-1.65.46-1.65,0,0,.13-.62.41-1.11.28-.49.46-.43.68-.87.1-.2.18-.39.24-.53.02-.05.1-.03.09.02-.02.17-.05.37-.13.51-.17.29-.49.57-.6,1.26-.11.69-.35,2.29-.35,2.63s.02.83.26,1.06c.12.11.19.21.24.28.02.02-.01.05-.04.03M57.17,8.63c-.35-.32-.59-.75-.49-1.56.1-.81.33-3.19.41-3.54.09-.35.21-.7.51-1.2.25-.41.16-.94.12-1.1,0-.03-.04-.05-.07-.05l-1.69.04s-.08.05-.06.09c.04.12.1.34.05.57-.07.34-.19.76-.48,1.08-.29.31-.59.5-.88,1.32-.29.82-.5,1.34-.39,1.63.11.29.46.42.41.81-.04.36-.65,3.43-.74,3.87,0,.03.01.06.04.06l.83.15s.06-.01.06-.04l.49-2.33s.02-.03.04-.03l1.33.22s.03.02.03.03l-.03,2.35s.02.05.04.05l.86.2s.06-.01.07-.05c.02-.23.09-1.02.03-1.43-.07-.48-.16-.85-.51-1.17"/><path class="cls-1" d="M61.55,3.04s.06-.01.07-.04c.03-.08.07-.28-.02-.6-.12-.44-.54-.87-.9-.98-.35-.11-.78-.07-.95.05-.19.12-.83.74-.91.91-.08.17-.19.39-.27.8-.09.41-.98,4.88-.98,4.88,0,0-.18.62.34,1.2.52.58.45,1.37.88,1.83.31.34.84.72,1.16.79.44.1.47-.03.42-.28-.04-.18-.08-.29-.09-.34,0-.02-.02-.03-.03-.04l-.54-.31s-.03,0-.03.02l.03.15s.02.15-.12.07c-.1-.06-.53-.57-.83-1.06-.11-.18-.24-.33-.28-.5-.17-.61-.04-1.07,0-1.28.05-.21,1.1-5.46,1.1-5.46,0,0,.15-.61.54-.6.37.02.57.31.55.58,0,.03.02.06.05.06l.83.14Z"/><path class="cls-1" d="M64.23,3.67c-.08.4-1.36,6.27-1.46,6.81-.1.54-.21,1.24-.22,1.41-.01.22-.25.36-.43.34-.18-.02-.58-.28-.57-.65,0-.37.16-1.6.49-3.17.33-1.58,1.13-5.09,1.13-5.09.12-.37.5-.32.69-.27.11.03.45.21.37.61M64.05,2.14c-.99-.2-1.64.34-1.81.75-.17.41-1.21,5.81-1.21,5.81,0,0-.32,1.62-.32,2.44s.96,1.62,1.16,1.78c.21.16.49.19.75.18.26,0,.63-.2.78-.78.15-.58.24-1.36.4-2.05.16-.69,1.45-6.04,1.49-6.71.04-.67-.26-1.22-1.24-1.42"/></svg>