<?xml version="1.0" encoding="UTF-8"?><svg id="Camada_1" xmlns="http://www.w3.org/2000/svg" viewBox="0 0 63.12 12.54"><defs><style>.cls-1{fill:#010101;}</style></defs><path class="cls-1" d="M1.74,11.66c-.21.14-.72.05-.72.05,0,0,.07-1.37.04-2.01-.04-.64-.11-1.34-.11-1.82s-.02-1.25.01-1.57c.04-.32,0-.76,0-.76l-.07-2.61s.35-.07.7.06c.36.14.34.52.34.52,0,0,.15,6.64.17,7.29.01.65-.14.7-.35.84M2.97,6.23s-.03-2.65-.03-2.78c0-.27-.15-.72-.57-1.03-.41-.31-.5-.34-1.2-.4l-.81-.03c-.06,0-.11.04-.11.1-.02.28-.06,1.05-.05,1.52.02.58.03,1.93.03,1.93,0,0-.03.34-.11.84-.08.5-.05,1.19-.05,1.71s.07.83.1,1.22c.03.39,0,1.86,0,1.86,0,0,.02.44-.03.71-.03.17-.1.39-.14.53-.02.06.03.12.09.11l.9-.05s.39,0,.78-.23c.39-.22.75-.56.86-.69.11-.13.38-.59.39-.96,0-.37-.05-4.37-.05-4.37"/><path class="cls-1" d="M5.99,7l-1.12-.03s.05-2.27-.01-2.67c-.06-.4-.19-.86-.19-1.01v-.24h1.05s.02-.02.02-.03c0-.09,0-.42.04-.54.03-.11.05-.26.06-.33,0-.02-.01-.03-.03-.03-.06.02-.2.05-.31.05-.12,0-1.19.02-1.48.02-.04,0-.08.03-.08.08-.02.22-.08.87-.08,1.11,0,.28.09.8.11,1.53.01.73,0,4.18,0,4.18,0,0,.05,1.02-.13,1.46-.22.55-.53.8-.71,1.18-.11.24-.16.42-.19.52,0,.04.02.08.06.08l1.92-.13s.06-.03.06-.07l-.09-.8s-.03-.06-.06-.05l-.95.07s.14-.4.45-.72.54-.84.55-1.33c.01-.5.01-1.38.01-1.38h1.17s.05-.03.05-.06l-.07-.8s-.02-.05-.05-.05"/><path class="cls-1" d="M9.92,4.77l.02-2.71s-.03-.07-.07-.07l-.78.05s-.06.03-.06.07c0,.41,0,2.73-.02,3.31-.02.64-.12.94-.18,1.17-.06.23-.41.62-.67.87-.26.25-.62.62-.76.97-.14.35-.09.99-.09.99l.13,1.41s-.03.03-.03,0c-.11-.29-.36-1-.43-1.31-.09-.39-.03-.79.09-.99.13-.24.36-.47.59-.71s.29-.38.37-.72c.08-.34-.15-1.53-.15-1.53l-.6-3.43s-.03-.05-.07-.05h-.71s-.06.04-.07.07c0,.36.04.63.09,1.07.05.46.55,3.13.55,3.13,0,0,.24,1.01.13,1.53-.11.52-.38.68-.53.84s-.4.43-.48.87c-.08.43.05.76.09,1.02.04.22.32.9.4,1.09.01.03.04.04.07.03l1.55-.67s.03-.03.03-.05c0-.06-.02-.18-.04-.36-.03-.26.04-.6.02-.98-.02-.39-.08-.38-.1-1.21-.02-.83.2-1.11.38-1.33.21-.26.83-.63,1.13-1.21.28-.55.21-1.16.21-1.16"/><path class="cls-1" d="M12.11,4.03c-.26.39-.79.85-.85,1.12-.06.27-.13.56,0,1.09.12.46.22,1.08.25,1.25,0,.02,0,.05-.03.06l-.98.44s-.04,0-.04-.02c-.02-.26-.13-1.64.05-2.04.2-.44.37-.67.7-1,.33-.33.72-.65.81-1.2.06-.37.11-.75.14-.96,0-.03.04-.03.05,0,.04.31.1.98-.1,1.28M12.91,1.83l-1.54.07s-.07.03-.07.07c0,.32-.05,1.68-.06,1.87-.02.22-.03.54-.3,1.09-.27.54-.83.84-1.16,1.24-.32.4-.28,1.2-.24,1.64.05.44.09.84-.02,1.39-.1.48.07,1.27.12,1.46,0,.02.03.04.06.04l.66-.11s.06,0,.09-.09c.03-.1.02-.71-.03-1.21-.03-.31-.05-.56-.06-.71,0-.08.05-.16.12-.19l1.01-.35s.08,0,.09.05l.05.15c.07.22.09.63.06,1.02-.02.31,0,.76.02.94,0,.04.04.07.08.07l.76-.04s.08-.04.07-.09c-.02-.15-.06-.51-.06-.89,0-.5-.15-1.62-.22-2.08-.07-.46-.28-1.87-.28-1.87,0,0-.06-.64.17-.97.23-.32.48-.56.7-1.06.19-.42.09-1.16.05-1.38,0-.04-.04-.06-.08-.06"/><path class="cls-1" d="M17.42.86l-.77.06s-.05.03-.05.06c0,.16,0,.63-.03.73-.03.13-.09.31-.09.66s.06.66-.08.86c-.12.17-.21.19-.31.36-.09.15-.13.4-.03.85.1.45.25.68.29,1.14.03.46.12,1.28.08,1.79-.03.4-.03,1.57-.02,2.06,0,.02-.02.02-.03,0l-.22-1.76s-.15-1.48-.29-1.95c-.15-.47-.47-1.03-.49-1.34-.01-.23,0-.31.08-.44.09-.14.09-.19.05-.34-.05-.15-.14-.77-.06-.94.08-.17.32-.4.27-.68-.04-.22-.18-.55-.24-.69-.01-.03-.05-.05-.08-.03l-.95.41s-.04.03-.04.05c0,.16-.05.74-.28,1.07-.27.38-.7.81-.73,1.18-.04.37.04.86.06,1.4.02.54,0,.94-.06,1.29-.06.34.11.61.05,1.47-.05.74-.02,1.8-.01,2.08,0,.04.03.07.07.07h.71s.07-.03.07-.07c.01-.43.08-2.75.07-3.08-.01-.37-.09-.83-.04-.97.06-.14.07-.47.04-.85s-.29-1.83.17-2.42l.42-.54s.02,0,.01,0c-.04.08-.11.23-.19.4-.13.25-.28.49-.16,1.11.12.62.16.65.15.82-.01.17-.02.35.09.65.11.29.23.74.28,1.11.04.34.42,3.39.47,3.8,0,.03.02.04.05.05l1.48.03s.04-.01.05-.03c.03-.08.11-.3.13-.78.03-.63.03-2.56.03-2.56,0,0,0-1.04-.18-1.54-.18-.47-.3-.65-.27-1.1.03-.45.08-.71.08-.71,0,0,.06-.44.19-.59.13-.15.28-.26.3-.77,0-.42.04-1.1.04-1.3,0-.03-.03-.06-.06-.06"/><path class="cls-1" d="M20.6.83c-.12,0-.47,0-.73.01-.29.01-1.04-.05-1.23-.07-.02,0-.04.02-.04.04,0,.09,0,.31,0,.71-.01.53-.02.68-.34,1.25-.23.4-.35,1.71-.32,2.16.04.52.35.89.46,2.34.09,1.16-.33,2.62-.41,2.88,0,.02,0,.04.03.04l1.97.09s.04-.01.04-.03l.04-.83s-.01-.04-.03-.04l-1.05-.07s-.04-.02-.03-.04c.04-.14.18-.62.29-1.44.12-.86-.19-1.73-.28-1.95,0-.02,0-.05.03-.05l1.1.05s.04-.02.04-.04c0-.07-.03-.24-.05-.39-.03-.16-.03-.35-.02-.43,0-.02-.01-.03-.03-.03l-1.18-.02s-.03-.02-.03-.04c0-.16.04-.84.13-1.3.11-.52.19-.94.34-1.24.12-.24.13-.57.13-.68,0-.02.02-.04.04-.04l1.08-.04s.04-.02.04-.04l.07-.75s-.02-.04-.04-.04"/><path class="cls-1" d="M23.39,1.34c-.13-.01-.42-.04-.78-.09-.38-.06-.84-.18-1.01-.23-.04-.01-.07.01-.08.05l-.1.62s.01.06.04.07l.42.12s.02.02.02.03c-.01.14-.08.8-.18,1.4-.11.67-.24,1.3-.28,1.62-.08.67.28,1.97.31,2.37.03.4-.11,1.2-.2,1.49-.07.23-.11.54-.13.67,0,.03-.03.06-.06.05l-.37-.02s-.06.02-.06.06l-.03.73s.03.06.06.06c.1,0,.34,0,.68-.06.41-.06.97-.18,1.13-.22.03,0,.05-.03.05-.06v-.32s-.01-.06-.05-.06l-.38-.02s-.05-.02-.06-.05c0-.06-.01-.17,0-.42.02-.45.18-.87.26-1.57.07-.69-.12-1.13-.23-1.9-.11-.76.06-1.14.13-1.51.11-.53.27-1.73.31-2.03,0-.03.03-.06.07-.05l.4.03s.06-.02.07-.05l.1-.62s-.02-.07-.06-.07"/><path class="cls-1" d="M25.9,2.59c0,.13-.07,1.39-.15,1.91-.08.52-.15.88-.17,1.27-.02.4.03.6.06,1.01s-.03.72-.05,1.07c-.02.36.01.7,0,.94,0,.24-.09.31-.39.43-.3.12-.53.1-.59.08-.07-.02-.06-.13-.05-.37.01-.24-.06-.31.02-.8.07-.49.11-.87.11-1.22s-.1-.74-.14-1.22c-.04-.47.04-.66.13-1.11.09-.45.07-.42.11-.83.04-.4.04-.95.09-1.25.05-.31.3-.55.64-.46.29.08.4.34.39.53M24.99,1.22c-.44.13-.92.63-1.01,1.3,0,0-.05.87-.12,1.47-.07.61-.19.74-.21,1.44-.01.49.2,1.62.19,1.93-.02.31-.13.56-.17,1.18-.04.63-.03.83.03.94.1.19.38.23.84.35.46.12.94-.04,1.15-.16s.33-.22.5-.45c.17-.23.29-.63.33-1.02.05-.39-.03-1.71-.03-2.04s.05-.9.12-1.21c.09-.39.11-.98.11-.98,0,0,.02-.7.06-1.21.05-.51-.1-.81-.39-1.17-.28-.36-.9-.51-1.41-.36"/><path class="cls-1" d="M31.81,3.07s-.04,1.83-.08,2.04c-.04.2-.04.83-.04,1.22s-.1.67-.21.84c-.13.21-.1.94-.11,1.2,0,.14-.23.37-.45.37-.14,0-.39,0-.5,0-.03,0-.05-.02-.05-.05,0-.09,0-.29,0-.58-.02-.39.03-.76.17-1.1.14-.35.11-.74.12-1.12,0-.39.02-.77.08-1.27.06-.46.09-1.88.09-2.13,0-.02.02-.04.04-.04.1,0,.4.01.43.01,0,0,0,0,0,0,0,0,0,0,0,0,0,0,0,0,0,0,0,0,0,0,0,0,.05,0,.26.04.37.16.17.18.15.45.15.45M32.32,1.97c-.24-.22-.53-.33-.8-.35l-1.5-.11s-.04.02-.04.04c-.01.34-.11,2.68-.18,3.32-.08.69-.08.66-.08,1.16s.02.42-.03.76c-.06.35-.14.38-.17.79-.03.42-.03,1.26-.02,1.64,0,.24.01.36.01.41,0,.02.02.04.04.04.23,0,1.45-.05,1.57-.06.13-.02.51-.05.83-.47.32-.42.32-.66.32-.9s-.06-.93.06-1.14c.13-.21.21-.24.25-.54.04-.31.13-2.83.13-2.83,0,0,.04-.58,0-.91-.04-.33-.16-.63-.39-.85"/><path class="cls-1" d="M35.52,4.52c-.02.19-.06.34-.03.63.03.29.02.85-.01,1.05-.04.24-.16.22-.31.31-.17.11-.12.48-.12.61s.05,1.12,0,1.23c-.04.11-.16.38-.49.39-.33,0-.52-.2-.53-.5-.01-.29-.04-1.12-.03-1.2,0-.07.01-.28.15-.37.14-.08.21-.13.24-.36.02-.22.07-2.53.07-2.53,0,0,0-.76.03-.88.04-.19.26-.41.51-.39.25.02.49.19.5.46,0,.27.04,1.35.02,1.54M36.41,2.85c-.01-.14-.06-.38-.22-.61-.38-.55-1.05-.57-1.12-.57-.7,0-1.4.52-1.45,1.23-.04.61-.09,3.27-.12,3.5-.02.23-.06.31-.19.43-.13.12-.16.29-.18.43-.02.22-.02.96.04,1.24.05.26.36,1.28,1.55,1.12,1.19-.16,1.23-1.18,1.23-1.38s-.05-1.51-.03-1.73c.01-.18.24-.25.35-.36.21-.18.08-1.24.11-1.53.06-.52.02-1.77.02-1.77"/><path class="cls-1" d="M42.22,1.4l-.77.15s-.02.01-.03.02c-.03.08-.15.39-.14.8,0,.48.05.54,0,.62-.05.08-.11.13-.13.22s.06,1.16-.04,1.4-.21.36-.38.46c-.17.1-.31.14-.35.33-.04.16-.18,2.37-.23,3.09,0,.03-.04.03-.04,0l-.3-2.35s-.11-.72.07-.84c.18-.12.31-.19.31-.42,0-.26-.02-.7-.17-1.16-.16-.46-.19-1.51-.19-1.51l.03-.44s-.02-.04-.04-.04h-.84s-.04.02-.04.04c-.02.15-.07.73.04,1.37.13.75.31,1.55.33,1.82.02.25.02.43-.11.5-.07.03-.22.08-.26.24-.02.1-.02.32-.01.49,0,.1.01.19.02.28l.34,2.86s.03.06.07.06l1.58-.04s.06-.03.07-.06c.02-.31.13-1.75.14-2.29.02-.61.02-1.46.09-1.72.06-.27.26-.36.26-.36,0,0,.51-.22.55-.82.04-.6-.03-1.05.02-1.16.05-.1.17-.2.17-.33s-.06-.89,0-1.01c.02-.07.04-.13.05-.17,0-.03-.02-.05-.05-.05"/><path class="cls-1" d="M45,.86s-.04-.05-.07-.04l-1.96.41s-.07.05-.08.09c0,.06,0,.16.02.26.04.17.16.63.13.75-.02.12-.03.23,0,.44.03.21.16.57.05.73-.11.17-.26.32-.3.43-.04.11-.07.56-.14.68-.07.12-.17.28-.17.63,0,.33.13,3.67.15,4.07,0,.02.02.04.04.04l2.04-.05s.04-.02.04-.04l-.04-.85s-.02-.04-.04-.04l-1.13.04s-.04-.02-.04-.04l-.08-3.75s.04-.07.07-.06l1.04.18s.09-.03.09-.07l.04-.65s-.02-.07-.06-.08c-.21-.04-.83-.15-.9-.15-.05,0-.14.01-.19.02-.03,0-.05-.02-.05-.05,0-.08.03-.23.11-.3.12-.09.35-.14.42-.25.07-.11.09-.39.06-.56-.03-.17-.11-.87-.11-.87l1.15-.38s.04-.04.04-.07l-.11-.46Z"/><path class="cls-1" d="M47.87,8.29l-1.16.02s-.02,0-.02-.02c0-.1,0-.57-.07-1.47-.02-.29.07-.57.03-.8-.09-.59-.04-.81.03-1.31.04-.25-.1-.55-.12-.84-.02-.17.11-.57.46-.97.35-.4.24-.87.22-1.4-.02-.47-.23-1.15-.27-1.29,0-.02-.02-.02-.04-.02l-.86.29s-.02.02-.02.04c.31,1.26.29,1.42.29,1.85s-.21.43-.41.64c-.2.21-.17.71-.18.94,0,.23-.05.79-.09,1.07-.03.29.04.58.04.83,0,.66.08,3,.09,3.36,0,.03.02.05.05.04l2.05-.07s.04-.02.04-.04l-.02-.82s-.02-.04-.04-.04"/><path class="cls-1" d="M51.86.5s-.01,0-.02-.01l-.74-.09s-.04.02-.03.04c.03.05.08.14.1.24.04.16.04.19.06.51.01.32-.11.66-.35,1.33-.24.67-.32,1.07-.41,1.55-.07.38-.04.65-.03.75,0,.02-.01.04-.03.03l-1.17-.2s-.06-.03-.06-.06c-.02-.1-.06-.35-.04-.58.02-.3.21-.65.27-1.12.06-.48.14-.85.33-1.4.19-.54.16-.79.17-.96,0-.18-.1-.38-.15-.41-.04-.02-.61-.1-.76-.12-.02,0-.04.02-.03.04.03.12.11.47.08.68-.05.26-.18.7-.2,1.03-.02.33,0,.97-.09,1.33-.1.43-.46.77-.45,1.23,0,.46.29.58.33,1.03,0,0,.04.31-.02.63-.06.31-.08.37-.06.55.02.18.04,1.04.04,1.04l.02,1.6s0,.02.02.02h.85s.02-.02.02-.03c0-.18-.01-1.58.02-1.77.04-.2,0-.39-.02-.57-.02-.17.04-.59.06-.9.01-.26-.06-.56-.08-.64,0-.01,0-.02.02-.02l1.17.22s0,0,.01,0c0,.01.04.05.11.16.09.15.19.5.21.76.02.26-.05.75-.09.87-.04.12.02.11.03.22.01.19-.02,1.47-.02,1.65,0,.01,0,.02.02.02l.91.03s.02,0,.02-.02c0-.09-.03-.4-.04-.61,0-.24.01-.49.05-.62.04-.13,0-.11-.04-.19-.03-.08.1-.77.1-.77,0,0,.06-.39-.24-.88-.29-.49-.41-.79-.44-1.27-.03-.48.12-.89.24-1.37.12-.48.41-1.2.5-1.55.1-.36.09-.53.04-.87-.04-.3-.17-.48-.2-.52"/><path class="cls-1" d="M54.51,3.03c-.24.62-.2,1.33-.21,1.79,0,.46-.08,1.4-.08,1.76,0,.44.26.74.38.88.02.02,0,.05-.03.04l-.79-.3s-.12-.16-.23-.34c-.11-.18-.22-.55-.17-.87.05-.31.32-1.76.5-2.27.18-.5.51-1.21.65-1.64.08-.25.08-.47.07-.61,0-.02.03-.03.03,0,.18.54.09.99-.12,1.55M55.27,7.73c-.32-.5-.1-1.91-.06-2.35.08-.78-.07-1.37,0-2.02.06-.48.24-1.07.31-1.64.06-.46-.06-.89-.11-1.04-.01-.03-.04-.06-.08-.06h-1.67s-.04.02-.04.04c.02.19.11,1.01.03,1.46-.09.52-.33.58-.69,1.55-.36.97-.36,1.26-.41,1.76-.1,1.12.36.98.53,1.73.1.46-.31,1.39-.39,1.64-.07.22-.07.46-.07.53,0,.01,0,.02.02.02l.73.17s.02,0,.03-.01c.05-.09.28-.57.41-.87.11-.27.16-.57.17-.67,0-.02.02-.04.05-.04.1,0,.35.02.56.07.22.06.42.13.48.16.01,0,.02.01.03.03.03.08.16.41.17.73,0,.33-.22,1.17-.25,1.32,0,.01,0,.02.02.03l.85.29s.03,0,.03-.02l.11-.43s.2-.83-.04-1.37c-.24-.54-.41-.52-.73-1.01"/><path class="cls-1" d="M58.71,10.23l-.5-.24s-.03.01-.02.03c.02.04.05.09.06.12.04.15-.15.11-.23.06-.23-.15-.34-.25-.53-.54-.19-.29-.26-.35-.45-.64-.19-.28-.19-.76-.14-1.3.05-.54.3-1.9.38-2.44.08-.54.11-.98.11-1.44s.15-1.55.19-1.74c.04-.19.15-.5.59-.42.36.06.41.4.41.51,0,.02.02.04.04.04l.82.08s.06-.02.06-.05c.02-.13.05-.51-.16-.87-.26-.45-.58-.6-1.01-.66-.93-.13-1.47.75-1.63,1.41-.17.66-.23,1.95-.29,2.87-.06.92-.36,1.63-.35,2.71,0,.7.31.87.57,1.2.26.33.29,1.13.43,1.39.09.17.29.56.96.75.67.19.85-.12.9-.22.08-.16-.09-.49-.14-.59,0-.02-.03-.03-.04-.04"/><path class="cls-1" d="M62.14,2.59c-.04.17-.35,1.43-.42,2.16-.08.73-.61,5.08-.66,5.48s-.09.76-.5.78c-.42.02-.57-.32-.57-.45,0-.13.2-1.68.26-2.18.06-.5.22-2.05.32-2.68.09-.55.26-2.34.35-2.81.09-.47.26-.81.69-.79.43.02.57.33.53.5M62.04,1.21c-.87-.23-1.6.32-1.83.69-.23.37-.26,1.01-.26,1.01,0,0-.05.33-.08.96-.03.63-.07,1.21-.24,1.95s-.27,2.08-.36,2.83c-.09.75-.17,1.16-.13,1.46.04.29.03.52.29.8.26.28.87.9,1.05.94.17.05.6.07.92-.23.32-.3.46-.51.55-1.27.09-.76.46-4.21.57-4.75.12-.54.57-2.7.6-2.94.05-.38-.21-1.22-1.08-1.45"/></svg>