<?xml version="1.0" encoding="UTF-8"?><svg id="Camada_1" xmlns="http://www.w3.org/2000/svg" viewBox="0 0 60.56 14.05"><defs><style>.cls-1{fill:#ffffff;}</style></defs><path class="cls-1" d="M1.78,11.1c0,.33.02.58.38,1.15.32.5-.06.63-.16.65-.01,0-.02,0-.03,0h-.59s-.02,0-.02-.02c0-.07-.02-.31-.11-.45-.43-.58-.7-1.64.01-2.79.54-.87.26-1.29.12-1.94-.14-.65.18-1.12.18-1.12,0,0,.51-.08.65-.08s.22.07.21.22c0,.14-.1.6-.04.9s.16.6.18.94c.02.34-.04.86-.43,1.4s-.36.82-.36,1.14M3.16,9.82c.18-.27.29-.77.2-1.3-.09-.54-.11-1.18-.09-1.57.02-.39.1-.9-.6-.97-.66-.06-1.57.17-1.68.19,0,0-.01,0,0,.01,0,.06.02.34-.25.58-.33.28-.26.84-.18,1.17.1.43.23.52.23,1.02s-.77,1.44-.77,2.22c0,.9.5,1.21.57,1.62.04.23.08.86.09.95,0,0,0,.01.01.01.11,0,1.07-.03,1.41-.06.46-.05.94-.31,1.04-.72.1-.4-.03-.52-.26-.91-.24-.39-.37-.97-.22-1.44.16-.49.33-.53.51-.8"/><path class="cls-1" d="M5.78,5.53s-.31-.02-.56,0l-.87.05s-.02,0-.02.02c0,.24-.08,3.06-.08,3.42,0,.37-.01.84-.2,1.02-.19.18-.47.31-.5.74-.01.18-.1.56.1,1.02.21.46.47.74.51,1.21.02.29.05.61.06.68,0,0,0,.01.01.01h1.97s.01,0,.01-.01l-.08-.81s0-.01-.01-.01h-1.13s-.01,0-.01,0c0-.05-.02-.26-.17-.47-.17-.24-.45-.77-.43-1.14.02-.37.04-.91.32-.92.27-.01,1.08.04,1.14.05.06,0,.2,0,.24-.09.02-.06.04-.11.04-.13,0-.01,0-.02-.02-.02l-1.11-.12s-.02-.01-.01-.02c.03-.06.11-.29.12-.7.02-.47.08-2.68.09-2.91,0-.01,0-.02.02-.02h1.11s.03-.02.03-.03c0-.1,0-.43-.16-.61-.16-.19-.41-.19-.41-.19"/><path class="cls-1" d="M9.02,5.99s-.01,0-.01.01c-.01.1-.12.83-.11,1.35,0,.56.06,2.36.04,2.56-.02.27-.18.5-.47.56-.21.04-.3.31-.33.65-.05.44,0,.76.16,1.13.14.32.13.56.13.63,0,0,0,0,0,0-.02-.05-.08-.17-.16-.29-.15-.23-.22-.29-.37-.49-.17-.22-.27-.51-.3-.96s.05-.67.24-.7c.21-.03.16-.53.16-.81,0-.41-.08-1.17-.11-1.71-.04-.74-.17-.86-.32-1.26-.12-.33-.23-.67-.25-.75,0,0-.01-.01-.02-.01-.03.01-.11.04-.2.03-.13-.02-.34-.06-.43-.07-.01,0-.03.01-.02.03.05.08.18.28.32.57.17.37.18.91.21,1.59.03.68.05,1.76.02,1.96-.02.21-.08.37-.23.42-.24.08-.22.74-.15,1.09.08.4.41.69.64,1.11.21.37.25.91.25,1.01,0,0,0,.02.02.02h1.56s.02,0,.02-.02c0-.09,0-.49,0-.74,0-.27-.05-.47-.22-.85-.17-.38-.18-.58-.13-.96.05-.38.21-.54.42-.61.21-.06.36-.23.39-.62.05-.56-.01-1.24-.04-1.83-.03-.56.11-1.84.12-1.99,0,0,0-.01-.01-.01l-.81-.02Z"/><path class="cls-1" d="M12.38,10.26c-.04.16-.24-.02-.28.21-.08.38.06.96.06.96l-1.1.03s-.07-.57.15-.95c.13-.23.43-.04.52-.31.2-.58.13-1.44.14-2.02.02-1.04.1-1.58.1-1.58,0,0,.08.68.25,1.52.22,1.08.23,1.89.17,2.14M13.07,11.49c-.15-.31-.15-.93-.12-1.12.03-.19.28-.09.31-.25.03-.15,0-.88-.12-1.67-.11-.79-.37-2.49-.37-2.49,0,0-.3,0-.68.04-.38.03-.94.03-.94.03,0,0-.1,1.62-.06,2.21.04.59-.08,1.69-.16,1.95-.08.25-.27.28-.48.34-.2.06-.2.41-.21.85,0,.44.12.81.24,1.14.1.29.08.9.07,1.07,0,.03.02.05.04.05l.72.03s.05-.02.05-.05c0-.17,0-.72,0-.89,0-.27-.18-.7-.18-.7l1.27-.09s.06.07.13.22c.08.15.15.33.22.65.06.28.1.73.11.86,0,.02.02.04.04.04l.69.03s.05-.02.05-.05c-.02-.21-.12-1.01-.17-1.32-.06-.37-.3-.58-.45-.89"/><path class="cls-1" d="M17.86,6.23c-.05-.23-.09-.41-.1-.46,0,0,0-.01-.02-.01h-.73s-.02,0-.02.02c.03.09.14.39.14.87,0,.75-.03,1.12.06,1.63.11.59.17,1.14.07,1.22-.13.1-.36,0-.41.16-.06.19-.04.83.11,1.31.17.58.19,1.09.13,1.57-.04.37-.17.86-.17.86,0,0,.05-.79.02-1.31-.04-.56-.19-.75-.42-1.32-.28-.71-.25-1.13-.06-1.15.16-.01.14-.08.13-.19,0-.05-.03-.25-.06-.41-.03-.24-.11-.44-.17-.8-.08-.55-.14-1.24-.23-1.72-.08-.42-.17-.68-.21-.77,0-.02-.03-.04-.06-.04l-1.46.1s-.04.02-.04.04c.01.34.11,2.61.13,2.98.02.39.07,1.18-.11,1.24-.19.06-.38-.07-.4.34-.02.43.02.94.29,1.51.25.52.11,1.65.08,1.85,0,.02.01.03.03.03l.61.02s.02,0,.03-.02c.04-.13.24-.83.21-1.4-.04-.78-.35-1.17-.4-1.64-.05-.48-.03-.84.18-.87.21-.03.29.03.29-.13,0-.13-.04-2.39-.06-3.21,0-.03.04-.03.05,0,.14.82.54,3.1.45,3.22-.1.13-.26-.02-.24.22.03.55.08.73.47,1.59.47,1.03.09,2.29.09,2.29l1.48.18s.04-.35.12-.79c.09-.45.21-.93.23-1.26.07-.93-.23-1.31-.25-2.19,0-.23.03-.38.16-.45.05-.02.2-.05.28-.06.03,0,.05-.03.05-.05.05-.56-.19-1.45-.21-1.75-.02-.37-.03-1.01-.09-1.29"/><path class="cls-1" d="M19.96,8.6c.02-.35-.3-2.14-.3-2.14l1.14-.35-.03-.61s-.34.07-.77.13c-.43.06-1.24.09-1.24.09,0,0,.38,2.79.4,3.09s-.13.38-.27.4c-.15.02-.16.29-.2.64-.05.35.18.98.17,1.52-.02.53-.18,1.25-.22,1.61-.03.36,0,1.05,0,1.05,0,0,.25-.05.49-.15.24-.1.59-.32.79-.47.2-.14.41-.2.41-.2l.18-.37s-.08.05-.33.21c-.26.15-.72.24-.72.24,0,0,.03-1.13.07-1.5.04-.37.09-.7.04-1.22-.05-.52-.02-1.1-.02-1.1h1.23l.09-.61-1.15.17s.24-.08.26-.43"/><path class="cls-1" d="M23.27,4.78s-.33.05-.78.18c-.45.13-.91.33-.91.33l.02.6.49-.11s.18,1.31.25,1.68,0,.68-.09.94c-.1.25-.09.47-.1.84,0,.37-.08,2.19-.11,2.52-.02.26-.23.52-.33.62-.03.03-.06.05-.1.05-.1.01-.3.05-.39.11-.09.06-.12.28-.13.38,0,.03.02.05.05.05.16-.03.63-.13.85-.17.23-.04.66-.05.8-.06.02,0,.04-.02.04-.05l.02-.55s-.03-.06-.06-.05l-.33.11s-.05-.03-.02-.05c.06-.05.14-.11.24-.18.19-.13.2-.54.23-.87.02-.33.13-2.41.13-2.79,0-.38.11-.35.13-.7.01-.35-.26-1.99-.26-1.99l.46-.09-.11-.76Z"/><path class="cls-1" d="M26.14,7.16c0,.58-.11,1.17-.19,1.5-.09.32-.09.51-.03.78.05.21.14.47.07.67-.02.07-.09.12-.15.17-.23.2-.51.4-.51.4,0,0-.02.12,0,.49,0,.24.09.51-.33.68-.21.09-.61,0-.6-.62,0,0,.17-.12.35-.22.15-.09.3-.17.3-.32,0-.56-.05-.93,0-1.3.07-.62.12-1.37.11-1.92,0-.55-.03-.89-.1-1.54-.02-.18-.03-.34,0-.44.09-.28.34-.3.34-.3,0,0,.47-.1.59.33.12.43.14,1.07.14,1.65M25.23,4.34c-.56.1-.87.5-.99,1.03-.13.53.11,1.05.12,1.59,0,.53-.11,2.13-.13,2.56-.02.42-.02,1.42-.05,1.68-.02.22-.43.4-.56.46-.03.01-.04.04-.04.07.04.23.14.36.27.51.28.33.71.52,1.05.52.51,0,1.29-.45,1.3-1.24,0-.79-.09-1.43-.06-1.5.03-.07.4-.39.54-.52.15-.13-.09-.86-.14-1.22-.05-.36.22-1.3.22-1.3,0,0,.2-.78,0-1.69-.2-.91-1.11-1-1.55-.92"/><path class="cls-1" d="M30.86,9.37c0,.33-.05.32-.16.53-.11.21-.04.5-.21.7-.13.16-.62.28-.8.32-.03,0-.05-.02-.04-.05.05-.13.17-.44.23-.69.08-.32-.02-.88-.09-1.59-.07-.71-.13-1.63-.11-2.28.02-.65.07-1.21-.02-1.81-.09-.6,0-.83,0-.83,0,0,.08-.1.45-.14.41-.05.59.41.58.7-.01.24-.05,1.7-.04,2.53,0,.84.22,2.27.21,2.6M31.51,5.47c-.02-.35.08-1.51-.07-1.88-.15-.37-.32-.58-.58-.69-.26-.1-.6-.09-.92.07-.31.16-.64.48-.64.48,0,0-.43.85-.46,1.2-.04.35.15.9.22,1.34.1.69-.13.94-.17,1.38-.05.65.21,2.28.21,2.86s-.11.79-.22,1.06c-.08.21-.09.41-.09.49,0,.02.02.04.04.04.06,0,.19-.02.34-.05.21-.04.6-.03,1.13-.1.53-.07,1.02-.64,1.09-.96.08-.33,0-.61,0-.93s.22-.58.25-.87-.08-1.02-.13-1.46c-.05-.43.02-1.48,0-1.97"/><path class="cls-1" d="M34.26,3.77c-.04.26-.14.55-.24.71-.15.25-.22.59-.15.98.1.6.24.89.23,1.34,0,.35-.1.8-.11,1.01-.01.21.05.31.09.88.04.57.03.9-.24,1.12s-.6.38-.68.32c-.07-.06-.08-.06-.04-.3.04-.24-.06-.69-.09-1.1-.03-.41.15-.57.18-.97.06-.59-.33-1.91-.23-2.36.1-.45.26-.84.26-1.31,0-.39.07-.77.6-.77.2,0,.44.18.41.44M35.03,3.19c-.09-.19-.35-.73-1.14-.74-.79-.01-1.35.64-1.43.98-.07.29-.06.66-.05,1.05.02.54-.12,1.05-.15,1.68-.02.46.05.85.15,1.53.1.68.08.61-.07,1.05-.15.46-.12.86-.08,1.23.02.19.08.58.18.69.13.14.45.01.66,0,.38,0,.73-.14,1.09-.5.57-.58.64-1.29.68-1.64.06-.58-.09-1.1-.09-1.35,0-.37.11-.78.02-1.28-.09-.49-.18-.97-.2-1.18-.01-.22.08-.63.26-.84.2-.24.26-.5.16-.69"/><path class="cls-1" d="M39.08,1.81c-.09.21-.09.52-.07,1.01.02.49.16,2.58.14,3.25s-.28,1.41-.33,1.94c-.03.34-.13,1.02-.19,1.47,0,.05-.08.05-.08,0-.03-.84-.1-2.68-.09-3.24.01-.94-.81-3.16-.7-3.79.04-.23.2-.24.37-.32.17-.08.13-.14.13-.14,0,0-.18.07-.32.11-.11.03-.32.09-.4.11-.02,0-.03.02-.03.04-.01.04-.04.13-.13.24-.12.14-.29.1-.38.35-.1.25,0,.41.09.91.09.5.46,2.08.54,2.58.08.5.05,1.04.02,1.66-.03.58.11,2.11.13,2.37,0,.02.02.04.04.04h1.57s.04-.02.04-.04c.04-.34.34-2.99.46-3.69.13-.75.12-1.31.03-2.7-.09-1.39-.05-1.98-.02-2.34.02-.2.06-.31.1-.37.01-.02,0-.04-.03-.03l-.8.39s0-.03-.09.18"/><path class="cls-1" d="M42.93,4.91l-1.01.05s-.05-.02-.05-.04c-.02-.13-.09-.52-.14-.94-.06-.47-.16-2.6-.17-2.87,0-.02.01-.03.03-.03l1.1-.07s.04-.02.04-.04l.04-.73s-.02-.05-.05-.04c-.08,0-.24.03-.48.1-.35.09-1.45.62-1.45.62-.18.39-.06,1.04.02,2.22.09,1.18.27,1.68.36,2.56.09.88-.03,1.39-.1,2.32-.06.83-.05,2.1-.05,2.35,0,.02.02.04.04.04h1.96s.04-.02.04-.04v-.79s0-.05-.03-.05h-1.09s-.04-.02-.04-.05c.01-.3.08-2.03.13-2.48.04-.41,0-.98-.01-1.15,0-.03.02-.05.05-.05l1.01-.04s.05-.03.05-.06l-.13-.76s-.03-.04-.05-.04"/><path class="cls-1" d="M46.12,9.38c-.08.02-.21.06-.35.09-.3.06-.78.08-.78.08v-.97s.11-1.74,0-2.14c-.1-.4-.11-1.15-.11-1.15l-.27-5.23s-.01-.03-.03-.03c-.06,0-.19,0-.38,0-.19,0-.35.02-.41.03-.02,0-.03.02-.03.03l.13,3.26s.13,2.26.23,2.84c.09.59.1,1.04.02,1.98-.04.51,0,2.15,0,2.15,0,0,.13,0,.34-.06.21-.06.6-.18.85-.31.2-.11.52-.19.65-.22.03,0,.05-.03.05-.06s0-.07.02-.11c.02-.05.06-.11.09-.16.01-.02,0-.04-.02-.03"/><path class="cls-1" d="M49.85,4.38c-.06-.35,0-.67-.04-1.03-.05-.36-.23-.72-.39-1.2-.16-.48.09-1.72.09-1.72l-.86-.12s-.02.21-.05.44c-.03.23,0,.48.16,1.02.17.54.18.9.14,1.41-.05.5.12,1.51.12,1.51,0,0-.37-.02-.64-.04-.27-.01-.71.04-.71.04,0,0,0-.47-.04-.95-.03-.49-.08-1.08-.12-1.48-.04-.39-.03-.69-.02-1.19,0-.5-.09-.96-.09-.96l-.8-.1s.03,1.03.03,1.69.14,1.15.14,2.05.14,4.49.17,4.79c.02.3.05.44-.08.53-.13.09-.07.61-.07.61l.88.05s0-.19,0-.56.05-.42.11-.59c.06-.17,0-.41,0-.66s-.08-2.35-.08-2.35l1.38-.09s.04,1.08.06,2.09-.09,2.25-.09,2.25h.88s.03-.15.08-.58c.05-.43.06-2.82-.01-3.31s-.09-1.2-.15-1.55"/><path class="cls-1" d="M52.17,7.02s-.07-.37-.04-.81c.04-.43.12-1.15-.04-1.39-.16-.25-.57-.5-.57-.83,0-.39.26-1.63.43-2.35.01-.05.09-.04.08.01-.05.67-.12,1.75-.1,2.06.02.45-.01.67.38,1.12s.73.7.8,1.31c.07.61.09,1.1.09,1.1l-1.04-.22ZM54.09,6.78c-.09-.25-.23-.51-.59-.85-.36-.34-.53-.57-.67-1.02-.13-.46.14-4.11.14-4.11l-1.7-.21s-.31,1.52-.42,1.95c-.11.43-.1.73-.05,1,.05.27.33.58.43.76.1.19.01.94,0,1.24-.02.3.04.65.02,1.18-.02.53-.17,2.18-.21,2.46-.03.22-.16.43-.21.51-.01.02,0,.04.02.04l.82.08s.02,0,.03-.01c.04-.09.24-.49.31-.73.09-.27.05-1.2.05-1.2l1.33.14s0,.32,0,.51c0,.19.01.68.01,1,0,.26-.09.64-.12.77,0,.03,0,.05.04.06.18.04.81.17.87.16.07-.02.07-.75.1-1.15.03-.4-.09-.92-.09-1.35s-.03-.97-.11-1.23"/><path class="cls-1" d="M56.85,9.59s-.04,0-.04.02c0,.05,0,.14-.01.21-.04.17-.18.25-.46.16-.28-.09-.43-.24-.41-.99.02-.73-.52-1.23-.91-1.7-.39-.47-.32-1.07-.27-1.58.05-.5.4-3.11.45-3.39s.29-.44.61-.39c.36.06.38.4.38.53,0,.02.02.04.04.05l.81.08s.05-.01.05-.04c.09-.64-.29-1.52-1.34-1.53-1.05,0-1.46.85-1.5,1.49-.04.49-.4,2.9-.34,3.4.08.67.91,1.07,1.11,1.68.19.61-.06,1.01-.04,1.91.03,1.01.83,1.39,1.32,1.46.49.06.98-.12,1.19-.5.1-.18,0-.44-.05-.54-.01-.03-.03-.05-.06-.06l-.53-.27Z"/><path class="cls-1" d="M59.42,4.64c-.16.84-.37,1.35-.42,2.06-.04.71,0,1.41-.06,1.97-.07.56-.08,1.01-.03,1.36.04.27.35.58.22.68-.13.1-.45-.05-.7-.28-.25-.23-.55-.67-.58-1.23-.04-.57.04-1.47.08-2.16.04-.7.27-1.38.38-2.07.07-.44.21-2.31.21-2.31.06-.18.31-.43.57-.4.26.03.47.21.49.4.02.19,0,1.15-.15,1.99M59.23,1.39c-.86-.07-1.29.41-1.51.91-.11.25-.24,1.68-.3,2.48-.06.8-.18,1.1-.35,2.09-.17.94-.1,1.78-.04,2.01.09.35.32.54.67,1.04.19.27.32.59.76.89.47.32.92.56,1.09.58.28.03.46-.09.48-.27.03-.3-.09-.46-.22-.89-.13-.43.2-1.41.12-2.33-.08-.92.04-1.82.16-2.57.12-.75.42-1.35.48-2.48.04-.94-.83-1.41-1.33-1.45"/></svg>