<?xml version="1.0" encoding="UTF-8"?><svg id="Camada_1" xmlns="http://www.w3.org/2000/svg" viewBox="0 0 44.19 28.15"><defs><style>.cls-1{fill:#010101;}</style></defs><path class="cls-1" d="M6.7,10.97c-.02.37.07,1.09-.82,1.01-.41-.04-.6-.06-.6-.06,0,0,.2-1.19.14-1.75-.06-.56-.28-.73-.72-1.24-.44-.51-.81-1.45-.64-2.21.18-.76.66-2.03.85-2.9.19-.87.23-.97.21-1.19.42.05.89-.01,1.13.32s.15.78,0,1.14c-.15.36-.37.68-.49,1.45s-.32,1.23-.34,1.76c-.02.53.16,1.44.24,1.77.08.33.26.71.59.95.34.24.47.57.45.94M7.29,10.52c-.19-.2-.26-.97-.3-1.24-.03-.28-.14-.73-.22-1.19-.07-.46-.02-1.09.01-1.27.03-.19.09-.65.11-1.09.01-.43.1-.7.38-1.14.28-.44.33-.61.4-1.14.07-.53-.22-1.06-.64-1.47-.42-.41-1.09-.51-1.6-.57-.47-.06-.98-.14-1.35-.21-.04,0-.08.02-.08.07,0,.48-.09,1.26-.21,1.77-.12.54-.7,2.15-.95,3.18-.25,1.03.3,1.8.9,2.39.6.59.48,1.26.47,1.81-.01.5-.17,2.17-.21,2.53,0,.04.02.07.06.07.17.02.65.07,1.64.18,1.26.15,1.93-.64,2.12-1.39.19-.75-.34-1.1-.53-1.3"/><path class="cls-1" d="M9.12,1.88c.37.05,1.87.23,2.76.26.04,0,.07.03.07.07,0,.43-.04.98-.07,1.19,0,.04-.04.06-.08.06-.46-.06-1.58-.18-1.58-.18-.05.54-.03.82-.31.92-.28.1-.36.09-.41.76-.05.68-.13,1.31-.1,1.97.34.03,1.21.08,1.66.06.04,0,.07.03.07.07,0,.33,0,.85.03,1.14,0,.04-.03.08-.07.07-.43-.01-1.7-.03-1.7-.03,0,0,.12.32.2,1.01.08.68.16,1.23.21,1.6.05.36.21,1.64.27,1.78.29.08.64.19,1.49-.02.04,0,.08.02.08.06.04.3.09.75.08,1.07,0,.04-.03.06-.07.06-.56.02-1.22-.11-1.49-.13-.26-.02-.89-.07-1.18-.12-.04,0-.06-.04-.06-.08.06-.47.22-1.35-.12-1.9-.36-.58-.3-.76-.34-1.05-.03-.29-.22-1.59-.27-1.81-.05-.22-.17-.83-.15-1.69.02-.86.02-1.87.27-2.16s.53-.57.61-1.26c.07-.63.12-1.31.1-1.63,0-.04.03-.08.08-.07"/><path class="cls-1" d="M12.93,2.25c.37.03.91.07,1.14.08.04,0,.06.03.07.06.02.4.03,1.21-.11,1.36-.14.15-.23.06-.3.35-.07.29-.18.73-.2.98-.02.25.05.37.05.58s.04.75.1.85c.06.1.24.3.3.69.06.39.1,1.08.14,1.35.04.27.21.79.28,1.26.06.47.14,1.84.13,2.6.03,0,.08,0,.08,0,0,0,.12-.84.16-1.07.03-.23.13-1.23.16-1.55.02-.31.06-.52.12-.86.06-.34.11-1.02.1-1.41-.01-.39-.08-.96-.09-1.33,0-.36.06-.66.13-.76.06-.1.12-.31.14-.44.02-.13.06-.19.08-.26.02-.08,0-.21.04-.29.04-.08.32-.33.42-.58.1-.24.29-.8.43-1.33,0-.03.03-.04.05-.05.21-.04.55-.13.8-.26.02,0,.04,0,.03.03-.17.43-.28.67-.33,1.02-.05.37-.07.63-.1.71-.03.08-.06.27-.05.45,0,.18-.05.48-.15.59-.1.11-.26.17-.25.69s.11,1.26.11,1.6c0,.35-.02,1.3-.12,1.88-.11.58-.23,1.7-.28,2.14-.05.42-.29,1.89-.33,2.33,0,.04-.03.06-.07.06-.57-.02-1.18-.09-1.37-.09-.16,0-.67,0-.85,0-.04,0-.07-.03-.07-.07,0-.26.02-1.17,0-1.6-.02-.5-.08-2.01-.22-2.48-.14-.47-.28-.97-.33-1.52-.04-.55-.13-1.15-.24-1.37-.11-.22-.17-.34-.18-.83,0-.49.08-1.4.15-1.71.07-.31.1-.43.27-.39.17.03.13-.17.14-.25,0-.07-.01-.82-.04-1.09,0-.04.03-.08.07-.07"/><path class="cls-1" d="M19.92,9.46c-.3-.01-.62,0-.7.01,0-.36.22-.57.23-1.23s0-1.2-.1-1.86c-.1-.66-.15-1.48-.17-1.73-.02-.25-.08-.96-.06-1.2.03-.36.34-.86.34-.86h.07s-.17.29-.14.61c.03.32.26,1.21.34,1.54.08.33.25,1.02.33,1.3.08.28.23.56.3.73.07.16.23.81.28,1.26.05.45.05.72.05.87s.03.63.03.63c0,0-.49-.05-.78-.06M21.99,13.5c-.03-.27-.08-1.07-.07-1.57.01-.57.03-1.48.03-1.91s-.09-1.58-.12-2.17c-.03-.59-.14-.99-.32-1.33-.18-.35-.39-1.27-.52-1.74-.13-.47-.33-1.34-.4-1.64-.07-.3-.17-.59-.25-1.01-.07-.39.03-.58.15-.89,0-.02-.02-.04-.04-.03-.64.5-1.59.44-2.05.5-.03,0-.06.03-.07.06-.02.24.02.79.05.85.03.07.01.37.03.55.02.18.05.37-.27.77s-.23.67-.22.85c.01.18.02.84.13,1.64.11.81.09,1.59.07,2.06s-.27.84-.28,1.42c0,.58-.18,1.61-.26,2.16-.06.45-.24,1.3-.3,1.58,0,.05.03.09.08.08.22-.03.79-.1,1.07-.14.03,0,.05-.03.06-.06.08-.53.29-1.24.36-1.65.07-.42.17-1.26.17-1.26,0,0,.5.02.75.04.25.02.6.03.91.03.05.22.01.95,0,1.27-.02.31-.03,1,.04,1.56,0,.04.04.06.07.06.42-.03.78,0,1.1,0,.04,0,.07-.04.07-.08"/><path class="cls-1" d="M22.27.23c.62-.06,1.45.07,2.13.33.03.01.05.04.04.07-.06.47-.17.96-.05,1.42.13.47.33,1.2.39,1.73.06.53.12,1.54.57,2.28.45.74,1.08,1.38,1.28,2.95.2,1.57.21,2.59.22,2.82,0,.23.03,1,.11,1.19h.07s-.04-.4-.04-.61c0-.22.06-1.38.07-1.72,0-.34.04-1.75-.16-2.32-.2-.56-.71-1.51-.75-2.05-.04-.54-.05-1.08-.07-1.39-.02-.3-.04-.67-.36-1.37-.31-.7-.1-1.16.02-1.52.09-.29.24-.75.29-.92.01-.03.04-.05.08-.05.1.02.33.04.71-.04.05-.01.09.03.08.08-.07.42-.21,1.19-.2,1.62.02.46.13,1.11.21,1.39.08.28.46,1.23.51,1.99.05.76.08,1.37.2,1.88.12.51.34,1.55.38,2.36.04.81.06,1.45.1,1.65.04.2.09.44.1.56,0,.12.03.48.06.61.02.09.08.29.12.4.01.04-.01.08-.06.09-.66.07-1.11,0-1.39,0-.24,0-.73-.01-.88-.01-.03,0-.05-.02-.06-.04-.06-.14-.26-.65-.32-1.19-.06-.63-.14-1.67-.16-2.31s-.15-2.18-.21-2.49c-.06-.31-.12-.47-.16-.71-.04-.24-.3-.9-.61-1.33-.3-.43-.95-1.17-1.11-2.18-.15-1.02-.13-1.8-.13-1.8l-.11-.02s-.15,1.3.17,2.29c.32.98.8,1.12.94,2.04.14.92.27,1.9.27,2.34s-.1,2.11-.2,3.08c-.09.94-.1,1.61-.05,2.2,0,.04-.03.07-.06.07-.41.02-.97.03-1.17.03-.04,0-.07-.03-.07-.07,0-.2,0-.86.1-1.92.11-1.29.23-2.67.24-3.04.02-.36.1-1.33-.08-1.85-.17-.52-.27-1.12-.32-1.46-.05-.34-.17-1.14-.48-1.77-.32-.64-.41-1.33-.39-1.85.02-.44.09-1.16.11-1.37,0-.03.03-.06.06-.06"/><path class="cls-1" d="M28.1.94c.81-.02,1.98-.1,2.78-.19.04,0,.07.02.08.06.06.43.07.89.05,1.22,0,.03-.03.06-.06.06-.6.08-1.64.13-1.64.13,0,0,.06,1.16.1,1.41.04.25.3,1.61.41,1.99.11.38.32,1.27.32,1.27,0,0,.67-.13,1.6-.47.04-.01.08,0,.09.04.14.44.24.9.24,1.15,0,.03-.02.06-.05.07-.58.18-1.16.31-1.63.36.07.55.08,1.28.08,1.68,0,.64-.17.98-.05,1.42.08.29.17.6.23.73.05.14.14.47.14.47,0,0,.67-.43,1.54-.47.03,0,.06.02.07.05.1.33.13.76.03,1.13,0,.02-.02.04-.04.04-.39.15-1.15.24-1.53.26-.31.01-.83.09-1.02.12-.04,0-.07-.02-.08-.06-.03-.18-.12-.68-.18-.83-.08-.18-.16-.58-.14-.93.02-.35-.04-.88-.11-1.44-.07-.56-.22-1.5-.24-1.95-.02-.45-.13-1.34-.42-2.31-.3-.97-.53-2.2-.58-3.23-.04-.86-.05-1.52-.05-1.72,0-.04.03-.07.07-.07"/><path class="cls-1" d="M32.25.65l2.68-.21s.07.03.07.07l-.02,1.18s-.03.06-.06.07l-.68.05s-.02.53.02.99c.04.46.08.84.27,1.14.19.3.34.68.4,1.03.06.35.1.63-.05,1.32-.14.69-.24,1.31-.17,2.13.07.82.23,1.47.3,1.97.07.5.1,1.14.1,1.14,0,0,.31-.07.51-.14.05-.02.1.02.09.07-.02.31-.1.84-.11,1.06,0,.02-.02.05-.04.06-.48.24-1.3.37-1.68.37-.26,0-.46.02-.57.03-.04,0-.08-.03-.07-.07.02-.21.08-.78.08-1.1,0-.04.03-.07.06-.07.23-.01.53-.03.53-.03,0,0-.1-.87-.17-1.24-.07-.36-.32-1.22-.2-1.81.12-.59.33-.96.31-1.78-.02-.82-.23-1.53-.37-2.01-.14-.48-.48-.98-.51-1.85-.03-.86-.03-1.08-.03-1.08,0,0-.46.06-.68.07-.04,0-.07-.03-.07-.07-.02-.41-.02-1-.03-1.19,0-.04.03-.07.06-.07"/><path class="cls-1" d="M39.2,4.93c-.23.18-.55.35-.49,1.06s.16,1.57.19,1.98c.03.41.13,1.64.13,1.97s-.07.67-.39.83c-.32.16-.64.15-.89-.09-.25-.24-.16-.73-.19-1.09-.02-.36-.11-1.64-.13-2.09-.02-.45-.09-1.39-.09-1.68s.02-.53.25-.67c.23-.14.37-.2.38-.73.01-.53-.13-.89-.32-.97-.19-.08-.26-.26-.31-.55-.05-.28-.36-1.4.35-1.61.43-.12.89.02.95.57.06.55.05,1.27.32,1.41.27.14.42.26.43.66.01.41.03.79-.2.97M40.32,5.18c.25-.3.35-.55.38-.95.03-.4-.08-.73-.36-.92-.29-.19-.32-.67-.39-1.44-.08-.76-.22-1.03-.66-1.49s-1.42-.45-1.97-.2c-1.6.75-1.35,2.09-1.3,2.58.05.48.15.75.36.9.21.15.33.62.35,1.02s-.09.51-.22.64-.28.33-.36.71c-.08.38.11,1.26.24,2.14s.14,1.76.09,2.59c-.05.83.78,1.44,1.64,1.45.86,0,1.57-.55,2.02-1.1.45-.55.26-1.36.19-2-.07-.64-.21-1.15-.36-1.6-.14-.45-.12-.98-.1-1.26.02-.29.2-.76.45-1.06"/><path class="cls-1" d="M2.52,25.37c-.38.05-.8.03-.8.03,0,0,0-1.03-.02-1.45-.02-.41-.07-.89-.06-1.06,0-.17-.03-.38-.16-.44-.13-.06-.12-.58-.03-.92.12-.45.58-1.05.57-1.81-.01-.65-.45-1.27-.61-1.61-.15-.34-.57-.91-.18-2.28.45.07.86.16,1.07.33.21.17.23.35.14.68-.09.33-.21.93-.04,1.45.21.62.64,1.19.64,1.72,0,.44-.1.78-.16,1.05-.07.27-.16.69-.07.94.1.25.23.3.23.81s-.05,1.3-.03,1.53c.02.24.19.95-.5,1.03M4.13,21.78c-.06-.17-.19-.52-.2-1.09-.01-.57-.18-1.39-.3-1.8-.11-.41-.16-1.2.02-1.78.18-.58.18-.8-.16-1.34-.34-.55-1.18-.75-1.52-.8-.33-.04-1.12-.3-1.69-.36-.03,0-.07.02-.07.05-.08.35-.24.96-.2,1.37.13,1.46.53,1.19.85,2.42.32,1.23.17,1.39-.26,2.1-.43.71-.43,1.2-.44,1.52-.02.32,0,.5.13.63.12.13.08.4.1.56.02.16.1.98.15,1.84.04.7.07,1.27.08,1.46,0,.04.03.07.07.06.15,0,.59-.02,1.74-.05,1.55-.05,1.75-1.24,1.73-1.65-.02-.41.06-1.35.1-1.9.05-.55-.06-1.08-.11-1.25"/><path class="cls-1" d="M7.92,22.55c-.08.69-.19,1.13-.26,1.7-.09.82.13,1.3-.33,1.43-.45.13-.98-.11-1-.77-.02-.66.16-1.8.22-2.18.06-.39.12-1.11-.17-2.33-.3-1.22-.58-1.67-.38-2.61.11-.49.17-1.03.67-1.09.49-.06,1.05.14.84.82-.17.55-.19,1.12-.12,1.46.08.35.32.8.41,1.39.1.59.2,1.48.11,2.17M9.1,21.36c-.08-.89-.23-1.18-.45-1.76-.22-.58.15-1.83.17-2.27.03-.61-.45-1.63-1.66-1.84-1.04-.18-1.67.56-2.03.98-.36.42-.42,1.28-.43,2.09,0,.81.39,1.8.61,2.86.22,1.06-.02,2.38-.1,3.26-.08.88.45,1.74,1.95,2.03,1.5.29,1.56-.9,1.58-1.3.02-.4.09-.93.2-1.74.11-.81.23-1.41.15-2.3"/><path class="cls-1" d="M11.78,15.97s.02-.08.06-.09c.16,0,.49-.02.64-.03.14,0,.37-.03.47-.05.03,0,.06.02.07.05.15.45.32,1,.38,1.49.06.52.12.74.16,1.03.04.29.08.87.08,1.66s0,1.8.06,2.57c.07.77.17,1.65.19,1.99.02.34.18,1.2.18,1.43s.03.44.03.44h.07s.08-.17.09-.48c0-.31.02-1.29.1-1.89.08-.61.29-1.64.36-2.2.08-.56.36-2.33.44-2.88.08-.55.17-1.87.14-2.31-.02-.34-.06-.71-.08-.87,0-.04.03-.07.07-.07l1.13-.03s.07.03.07.06c.01.24.04,1.09,0,2.03-.05,1.11-.28,2.79-.31,3.02-.03.23-.05.67-.12.95-.07.29-.3.93-.4,1.26-.11.33-.2.89-.19,1.42,0,.52,0,1.47-.04,1.95-.03.39-.06.92-.07,1.11,0,.04-.03.07-.07.06-.6-.03-.98-.11-1.28-.14-.25-.02-.7-.04-.86-.05-.04,0-.06-.03-.07-.06,0-.15-.03-.54-.06-.67-.04-.16-.13-.3-.12-.64,0-.34.03-.6,0-.69-.04-.09-.04-.24-.02-.29.02-.05-.08-.22-.15-.54-.07-.32-.14-.92-.2-1.54-.05-.62-.18-2.11-.16-2.75.02-.64,0-1.58-.08-1.88-.08-.3-.06-.53-.07-.65,0-.11-.34-1.4-.43-1.74"/><path class="cls-1" d="M17.45,15.73s.02-.08.06-.08c.25-.03,1.03-.12,1.43-.14.41-.01,1.13,0,1.33,0,.03,0,.06.02.06.05.03.09.08.31.1.71,0,.04-.03.07-.06.07-.55.04-1.57.06-1.57.06,0,0,.07.66.09,1.34.02.68,0,2.05.02,2.29.01.24.08.8-.06,1.23.61-.05,1.09-.11,1.52-.1.03,0,.05.03.04.06-.07.2-.14.41-.17.51-.01.03-.04.05-.08.05-.19-.04-.79-.14-1.57-.03-.09.34-.1.59-.14.83-.03.24-.14.69-.12,1.09.02.39.12.83.18,1.41.06.58.1,1.36.1,1.36l1.51-.07s.06.02.07.05c.03.09.08.34.12,1.01,0,.04-.03.07-.06.07-.41.04-.77.04-.99.06-.23.02-1.06.12-1.71.11-.04,0-.07-.03-.07-.07-.02-.66-.11-2.1-.13-2.51-.03-.43-.09-1.42-.1-1.77,0-.35-.02-.9.19-1.35.2-.44.26-.48.25-1.11,0-.64-.01-1.48,0-2.02,0-.54-.03-2.02-.09-2.41-.04-.29-.1-.57-.13-.7"/><path class="cls-1" d="M21.79,15.49c.41-.02.74.06,1.1.11.03,0,.05.03.06.05.08.43.12.61.13,1.01.01.42.02,1.01.03,1.39s.12,1.39.09,1.85c-.03.46-.14,1.19-.36,2.05-.23.86-.39,2.19-.43,2.48-.04.28-.15,1.15,0,1.73.07.26.18.56.18.56,0,0,.93.2,1.46.26.03,0,.05.02.06.05.06.31.11.75.12.91,0,.03-.03.06-.06.05-.23-.06-1.06-.28-1.3-.35-.26-.07-.74-.23-1.15-.23-.04,0-.06-.03-.07-.06-.03-.39-.06-.77-.29-1.23-.24-.48-.24-.71-.24-1.06,0-.35.06-.82.15-1.37.09-.55.31-1.94.44-2.33.13-.4.35-.9.26-2.15-.09-1.24-.09-1.6-.1-2.01,0-.37-.09-1.26-.15-1.63,0-.04.02-.08.06-.08"/><path class="cls-1" d="M25.6,15.68c.37.01.97.02,1.17.02.04,0,.07.03.07.06.02.46.07,1.06,0,1.51-.08.48-.11.97-.1,1.51.02.54.05.96,0,1.42-.05.45-.16,1.18-.15,1.33.45.03,1.13.33,1.67.4-.03-1.08.04-2.03.08-2.48.04-.45.17-1.75.24-2.17.07-.4.12-.99.12-1.44,0-.03.02-.06.05-.07.34-.07.66-.08.95-.15.04-.01.08.02.09.06.01.47-.04,1.17-.19,1.92-.16.8-.17,1.23-.16,1.86.02.63.02,1.55.05,1.73.03.19.04.53,0,.72-.03.19-.09.32-.08.52,0,.2.1.61,0,.94-.09.33-.23.55-.16,1.15.07.6.14,1.38.06,1.89-.06.38-.08.61-.08.7,0,.03-.02.05-.05.06l-1.04.33s-.1-.02-.09-.07c.03-.19.08-.62.06-1.07-.03-.61-.11-1.36-.11-1.73s.06-.64.14-.83c.08-.2.09-.72.05-.99-.5.02-1.2-.05-1.75-.11-.06.7-.1,1.38-.17,1.58-.07.2-.16.64-.09,1.6.06.83.13,1.83.15,2.08,0,.03-.02.06-.05.07-.43.1-.75.12-1.13.08-.03,0-.06-.03-.06-.06-.06-.84-.18-1.64-.19-2.37-.02-.75.14-1.45.2-1.99.07-.54.16-1.47.23-2.12.08-.64.21-1.36.23-1.99.02-.63.05-1.36.07-1.89.01-.46-.09-1.63-.11-1.94,0-.04.03-.08.07-.07"/><path class="cls-1" d="M33.64,23.31l-1.57.14c.02-.3.02-.7.2-1.17.18-.47.1-.92.07-1.41-.03-.49.07-.5.24-.93.18-.43.06-1.27.07-1.67s.13-1.84.13-1.84h.07s.03.99.06,1.29c.03.3.1.39.14.52.04.14.1.53.1.87s-.05.56-.1.71c-.05.15.01.2.02.33.01.13.02.28.13.52.11.24.17.87.19,1.26.02.39.11.8.14.95.03.15.12.17.1.43M34.83,25.29c-.03-.52.07-1.21.11-1.59.05-.38-.04-.63-.05-.76-.02-.13-.03-.3-.11-.48-.08-.18-.14-.64-.23-1.45-.1-.8-.31-1.34-.39-1.73-.09-.48.14-.69.1-1.27-.03-.49-.15-.8-.27-1.43-.1-.51-.06-1.18-.04-1.43,0-.05-.04-.08-.08-.07-.12.03-.36.09-.63.14-.39.07-1.04.04-1.46.05-.03,0-.06.02-.06.05-.08.32-.08,1.15-.08,1.38,0,.24-.15,1.48-.2,2.01-.05.53-.03,1.15,0,1.64.02.48-.17.63-.26.87-.1.24.03.66,0,1.09-.02.43-.24.59-.31.9-.07.31-.03,1.17,0,1.58.02.4-.06.85-.13,1.08-.07.23-.3.54-.37,1.03-.02.04.76-.22,1.14-.33.03,0,.05-.04.05-.07,0-.17.05-.39.18-.69.15-.33.37-.73.35-1.11.19-.05.45-.05.72-.11.27-.05.55-.11.99-.29,0,0-.14.49-.19,1.05-.04.44.07.81.12.93.01.03.04.05.07.04l1.1-.05s.07-.04.06-.08c-.03-.15-.09-.52-.11-.91"/><path class="cls-1" d="M37.98,15.46c.39-.18.63-.28.95-.36.03,0,.05-.04.05-.07-.02-.43-.15-1-.79-.98-.68.02-1.54.56-1.85,1.06-.31.5-.4.77-.44,1.29-.05.52-.2.73-.27,1.02-.07.3-.11.65,0,1.28.11.63.22.96.24,1.54.03.58.16,1.37.19,1.64s.11.87.09,1.1c-.02.22-.1.36-.19.94-.09.57-.33,1.12.02,1.55.35.42.83.81,1.66.79.84-.02,1.01-.11,1.41-.19.39-.08.73-.23.73-.66,0-.04-.03-.07-.07-.07-.41.01-.82.01-1.15-.06-.03,0-.05,0-.07.03-.12.16-.23.3-.79.19-.61-.13-.68-.39-.62-.63.06-.24.29-1.2.31-1.78.02-.72-.11-1.82-.2-2.33-.09-.51-.15-1.03-.18-1.41-.03-.38-.19-1.14-.25-1.4-.06-.26-.17-.77-.08-1.19.09-.41.16-.57.19-.67.02-.1.07-.27.22-.48.3-.43.88-.56.83-.18,0,.03.03.06.06.05"/><path class="cls-1" d="M42.79,25.54c-.44.3-1.03.17-1.1-.35-.07-.52-.15-1.11-.3-1.68-.15-.58-.34-1.04-.2-2.09.14-1.05.36-2.01.42-2.5.05-.49-.07-1.1-.21-1.8-.14-.7-.43-1.74-.49-2.29-.06-.55.15-.72.33-.83.17-.11.79-.28.98.24.19.52.21.87.27,1.16.09.43.33,1.4.38,1.87.04.44-.15.98-.23,1.48-.06.39-.08.94-.15,1.32-.07.38-.17,1.06-.14,1.8.02.74.17,1.39.39,2.08.22.68.51,1.3.07,1.59M44,24.56c-.29-.59-.41-1.17-.52-1.86-.11-.7-.08-2.2-.04-3.17.05-.98.27-1.83.42-2.6.16-.77-.02-1.44-.08-1.75-.06-.31-.14-.88-.57-1.73-.39-.77-1.6-.72-2.14-.45-1.47.72-1.52,1.61-1.37,2.46.14.86.42,2.16.66,3.25.24,1.09.1,1.6,0,1.98s-.27,1.22-.23,2.23c.05,1.01.33,1.9.35,2.21.02.31-.16.67.41,1.12.57.45,1.73.4,2.58.08.84-.33.8-1.17.52-1.76"/></svg>