<?xml version="1.0" encoding="UTF-8"?><svg id="Camada_1" xmlns="http://www.w3.org/2000/svg" viewBox="0 0 42.81 26.66"><defs><style>.cls-1{fill:#010101;}</style></defs><path class="cls-1" d="M4.92,4.75c.02.57.13,1.26.22,1.76.09.51.2.99.07,1.92-.12.93-.16,1.81-.19,2.11-.03.3-.12.76-.64.76s-.73-.02-.73-.02c0,0-.1-.4,0-1.22.1-.83.35-1.89.32-2.36-.03-.47-.06-.74-.21-1.48-.15-.74-.27-1.78-.05-2.33.23-.55.42-.8.42-1.21,0,0,.49-.03.74,0,.25.03.61.19.36.59-.25.4-.34.92-.32,1.48M5.99,1.99c-.49-.4-1.17-.4-1.62-.42-.36-.02-.96-.08-1.18-.1-.04,0-.08.03-.09.07-.02.2-.08.74-.13,1.16-.05.53-.38,1-.53,1.55-.16.55-.05,1.54.08,2.08.13.54.27,1.09.26,1.73,0,.65-.27.77-.33,1.53-.06.76-.16,1.21.06,1.91.23.7.44.55.74.56.31,0,1.09.09,1.69.21.6.12.86-.42,1.07-.72.2-.29.28-.83.33-1.91.05-1.08.08-2.1.08-2.67,0-.57-.24-1.71-.29-2.42-.04-.67.12-1.24.31-1.49.18-.25.03-.68-.46-1.09"/><path class="cls-1" d="M8.1,1.77c.36.02,1.77.12,2.57.09.05,0,.09.04.08.09,0,.11-.04.25-.21.38-.01,0-.03.02-.04.02-.38.04-.87.16-1.57.16-.27.36-.37.79-.33,1.27.03.48.08,1.86.1,2.1h1.49s.08.04.08.08l-.02,1.02c0,.05-.05.09-.1.08-.26-.05-.99-.17-1.43-.16-.03.48.05,1.67.07,2.26s-.14,2.58-.14,2.58l1.4.21s.07.04.07.08l-.05,1.04c0,.05-.05.09-.1.08-.29-.08-1.21-.3-2.46-.38-.05,0-.08-.04-.08-.09.1-1.07.16-2.62.16-3.3,0-.7,0-2.7-.03-3.08-.04-.38-.08-.64-.08-1.04s-.13-1.29-.09-1.63c.04-.34.2-.66.4-.94.17-.25.22-.63.23-.85,0-.05.04-.08.09-.08"/><path class="cls-1" d="M12.74,1.78s.04.03.02.05c-.26.23-.19.45-.16.88.04.46.08.85.16,1.67.08.82.11,1.68.13,2.37.02.68.08,2.47.08,3.17s.09,2.47.09,2.47h.08s.08-1,.16-1.6c.08-.6.35-2.53.42-3,.07-.46.29-2.17.33-2.55.04-.38.13-.91.25-1.23.12-.32.19-.94.22-1.44.03-.5,0-1.14.46-1.22.37-.07.78-.19.94-.24.02,0,.04.02.03.04-.06.12-.18.42-.19.83,0,.55-.07,1.08-.17,1.55-.1.46-.22.72-.32,1.55-.1.83-.27,2.06-.35,2.65-.07.59-.33,2.7-.41,3.19-.08.47-.28,1.87-.32,2.6,0,.05-.04.08-.09.08-.62-.05-1.26-.19-2.01-.19-.04,0-.08-.03-.08-.07-.11-.8-.19-2.36-.21-3.08-.02-.74-.04-2.29-.05-2.95-.02-.66-.08-2.11-.22-3.02-.14-.91-.2-1.56-.12-1.86.07-.24.23-.47.3-.55.01-.02.04-.03.06-.03l.97-.06Z"/><path class="cls-1" d="M18.97,9.52s-.9-.09-1.38-.08c.08-1.13.23-1.9.37-3.08.06-.5.24-1.75.39-2.37s.37-1.53.39-2.25h.15s0,.86,0,1.22c-.01.36-.04.96-.04,1.44s.05,2.19.05,2.65c0,.45.05,1.48.06,1.74.01.26.03.46,0,.73M19.88,11.56c-.06-.39-.11-.58-.12-.82,0-.24.03-.45.22-.81.2-.37.18-.81.16-1.1-.02-.28-.03-1.33-.07-2.36-.04-1.03-.04-2.18-.05-2.45,0-.27,0-1.26.04-1.72.03-.43,0-1.22-.09-1.79,0-.04-.05-.07-.09-.07-.34.05-.89.07-1.27.1-.34.03-.73.11-.87.14-.03,0-.06.03-.06.06-.05.23-.11,1.11-.18,1.77-.08.73-.25,1.14-.36,1.58-.1.44-.35,2.19-.41,2.69-.05.51-.23,1.76-.29,2.19-.06.43-.16,1.15-.23,1.8-.06.66-.17.83-.32,1.22-.2.52-.19,1.16-.17,1.39,0,.05.04.08.09.08.17-.01.56-.05.94-.07.04,0,.08-.04.08-.09-.05-.95.05-1.37.17-1.63.12-.26.3-.51.38-1.12.91.07,1.51-.15,1.51-.15,0,0-.28.5-.22,1.07.05.46.21,1.17.27,1.42.01.05.06.08.11.06l.88-.35s.05-.05.05-.08c-.01-.17-.06-.66-.11-.98"/><path class="cls-1" d="M22.32.39c.2,0,.81.02,1.99-.04.05,0,.09.04.09.09-.04.89-.07,1.78,0,2.65.07.9.16,1.88.21,2.3.05.43.07.98.11,1.19.04.21.03.65-.1.98-.13.34-.15.81-.1,1.27.05.46.11.89.11,1.1,0,.2-.09.54-.08.79.03,0,.09,0,.09,0,0,0,.04-.34.15-.54.11-.2.15-.48.15-.76,0-.28,0-1.2.08-1.52.07-.32.15-.45.25-.66.1-.2.23-.45.25-1.06.02-.61.07-1.9.07-2.22s.02-1.58.07-2.14c.05-.48.19-1.26.24-1.48,0-.04.04-.07.08-.07l.9-.02c.05,0,.09.04.08.1-.04.24-.14.89-.16,1.61-.03.91-.05,1.54-.05,1.96,0,.42,0,2.02-.17,2.42-.17.4-.42,1-.42,1.76s0,1.42-.16,1.78-.27.55-.28,1.24c0,.2,0,.4,0,.51,0,.04-.04.08-.08.08-.15,0-.47,0-.59.02-.16,0-.63.01-.9,0-.19,0-.43.01-.54.02-.04,0-.08-.02-.09-.07-.03-.17-.1-.57-.09-.74.02-.22.12-.43.04-.87-.08-.44-.16-.98-.14-1.35.03-.55.29-.73.29-1.11,0-.21-.05-.56-.06-.78,0-.22-.16-1.63-.18-1.98-.02-.35-.1-1.24-.1-1.74,0-.5.02-1.54.02-1.54h-.1s-.09,1.43-.15,2.19c-.07.76-.14,1.71-.16,2.46-.02.76-.07,1.39-.1,1.63-.02.25-.13.47-.35.83-.22.36-.3.76-.27,1.14.03.39.03.42.03.67s-.04.47-.15.65c-.09.14-.04.58-.01.75,0,.04-.02.08-.06.09l-.95.32s-.1-.01-.11-.06c-.02-.1-.05-.27-.02-.4.04-.2.13-.3.13-.66,0-.36-.1-1.07-.02-1.4.12-.48.42-.63.51-.99.07-.27.12-.64.13-1.23.01-.6.07-1.82.09-2.24.02-.41.18-2.23.23-2.71.05-.46.19-1.65.28-2.18,0-.04.04-.07.08-.07"/><path class="cls-1" d="M28.24.28s.04-.08.09-.07c.24.02.97.09,1.37.09.38,0,.96,0,1.17,0,.05,0,.08.04.08.08l-.02,1.08s-.04.08-.08.08c-.26,0-1.07,0-1.51-.03,0,.66,0,1.83-.06,2.39-.05.56-.29,1.63-.28,1.99.24.09.58.22.77.28.16.05.41.08.61.09.04,0,.08.04.08.08,0,.24,0,.47.01.61,0,.06-.04.1-.09.09-.43-.07-1.25-.26-1.49-.26-.03.51-.05,1.12-.06,1.41,0,.29-.07.97-.26,1.34-.19.36-.33.63-.31,1.04.33,0,1.04-.02,1.45-.03.05,0,.09.04.08.08,0,.33-.03.79-.04.97,0,.04-.04.08-.08.08l-2.55.04s-.08-.04-.08-.08c0-.25,0-.97.07-1.25.09-.33.31-.56.37-.9.06-.34.14-1.46.18-2.09.05-.63.11-1.51.19-1.81.08-.3.24-.69.24-.96s.01-1.36.02-1.73c0-.34.08-2.18.13-2.61"/><path class="cls-1" d="M32.06.39s.04-.07.07-.07c.17-.01.64-.05,1.05-.11.53-.07,1.05-.16,1.26-.21.05-.01.1.03.1.09l-.05.96s-.04.08-.08.08h-.64s0,.81-.03,1.38c-.03.57-.13,1.65-.2,2.21-.07.56-.19,1.2-.05,1.94.15.74.22,1.42-.03,2.09-.25.66-.73,1.01-.72,1.85.19.03.42.03.55.03.05,0,.09.04.08.09-.01.2-.05.71-.06.98,0,.05-.04.08-.09.08-.52-.03-1.89-.09-2.29-.09-.04,0-.08-.04-.08-.08-.01-.41-.01-.81.02-.98,0-.04.04-.07.08-.07.24,0,.62.02.62.02,0,0,0-.51.26-.96.25-.46.58-.91.56-1.73-.02-.82-.19-.97-.12-1.67.06-.7.13-1.35.14-1.72,0-.36.02-1.12.11-1.78.09-.67.15-1.09.15-1.36-.2.04-.38.08-.55.1-.05,0-.09-.04-.09-.09.02-.3,0-.66.03-.97"/><path class="cls-1" d="M37.85,7.67c0,.51-.16,1.46-.39,1.75-.27.33-.41.24-.61.98-.14.49-.66.57-.88.48-.42-.17-.49-.68-.21-1.11.23-.35.43-.5.55-.86.12-.36.22-1.04.17-1.91-.05-.86-.21-1.33-.31-1.76s-.23-1.37-.1-2.14c.12-.77.18-1.39.38-1.67.21-.3.8-.37.87.25.05.44-.01.92-.04,1.22-.06.67-.05,1.3.17,2.12.22.82.42,2.14.41,2.65M39,7.38c-.02-.35-.19-1.14-.24-1.58-.05-.44-.24-1.17-.34-1.67-.11-.49,0-1.27-.01-1.7-.02-.44.17-1.02-.47-1.91-.59-.82-1.45-.49-1.86-.11-.26.24-.58.66-.69,1.21s-.2,1.32-.32,1.97c-.12.65-.19,1.54.02,2.36.21.82.25,1.22.23,1.97-.02.75-.14,1.05-.53,1.51-.39.46-.51,1.15-.18,1.73.32.58.96,1.01,1.93.86.96-.15,1.39-1.01,1.51-1.66.16-.83.49-.53.73-1.15.2-.54.27-1.27.24-1.84"/><path class="cls-1" d="M2.92,21.38c-.02.36-.13,1.04-.2,1.33-.07.29-.14.8-.12,1,.06.62-.26.73-.48.54-.16-.14-.29-.18-.37-.2-.08-.02-.14-.07-.13-.25.01-.18.03-.92-.03-1.28-.06-.37-.14-.79-.07-1.24.07-.46.15-1.17.1-1.99-.05-.82-.07-.91-.11-1.58-.05-.86-.23-.56-.29-1.57-.05-.7-.05-1.3,0-1.91,0,0,.59,0,.79.03.2.02.58.22.55.77-.03.55-.11,1.32,0,1.77.11.44.33.83.32,1.22,0,.4.05.74.05.85s-.06.91-.05,1.07c0,.16.08,1.08.05,1.44M4.01,18.54c.02-.2-.04-.62-.16-.93-.12-.31-.18-.72-.17-1,0-.28.05-1,.07-1.52.01-.52-.12-1.08-.48-1.4-.36-.32-.81-.53-1.49-.53-.56,0-1.41-.04-1.69-.06-.05,0-.09.04-.09.09.03.22.09.78.08,1.12-.01.44-.15,1.38,0,2.11.15.73.23,1.09.25,1.68.02.59.11,1.16.06,1.73-.05.61-.06.94-.07,1.17,0,.23.06.55.15.76.09.21.12.52.1.96-.01.38-.07,1.66-.09,2.01,0,.05.04.09.08.09.16,0,.49,0,.72.07.3.1,1.01.52,1.37.51.36,0,.63-.16.85-.57.22-.41.18-.91.25-1.15.07-.24.2-.84.21-1.17.05-1.15-.13-1.32-.08-2.16.05-.84.1-1.61.12-1.8"/><path class="cls-1" d="M7.38,15.49c-.01.83-.05,2.1-.05,2.78s-.05,1.64-.06,2c0,.36,0,1.42-.05,1.91-.04.49-.11,1.17-.12,1.62,0,.45,0,.86,0,1.14,0,.28-.13.59-.62.56-.49-.04-.58-.73-.55-.99.04-.26.03-1.07,0-1.37-.04-.31-.04-.76,0-1.17.04-.4.17-.89.15-1.44-.02-.55-.12-1.22-.1-1.7.02-.48.05-.95.05-1.49s.02-2.06.03-2.41c0-.36.11-.73.77-.47.31.12.57.22.55,1.05M8.27,14.89c-.18-.13-.81-.51-1.21-.72,0,0-.23-.1-.83-.41-1.13-.58-1.3.48-1.33,1.07-.03.58-.02,1.47-.05,2.1-.04.64,0,1,.09,1.37.09.36.15,1.05.11,1.45-.04.4-.15,1.05-.17,1.64-.03.59.11,1.02.12,1.73.02,1.47-.55,1.99.16,2.87.82,1.01,1.96.71,2.48.34.6-.42.66-1.04.66-1.46s.04-1.16.07-1.7c.04-.55.07-1.56.09-2.11.02-.56.02-2.09.05-2.6.03-.51.03-2.09.04-2.62,0-.54-.08-.8-.26-.93"/><path class="cls-1" d="M11.76,15.18s.08.03.08.07c.03.2.11.78.15,1,.05.27.15.59.66.73s.46.52.48.88c.03.36.11,1.76.14,2.06.03.3.05,1.09.05,1.41s-.06,1.17,0,1.65c.06.47.12.89.15,1.27.04.38.14,1.31.14,1.31h.07s.06-1.11.08-1.57c.02-.46.05-1.51.17-2.06.12-.55.34-1.64.39-2.35.05-.71.14-1.02.14-1.42,0-.87-.34-.21-.43-1-.09-.79,0-1.04,0-1.4,0-.21-.01-.36-.01-.44,0-.05.04-.09.09-.08l.99.11s.07.03.07.07c.02.12.06.4.05.79,0,.52-.03,1.33.15,1.79.17.46.24.62.12,1.51-.12.89-.28,1.51-.35,1.99-.06.47-.13,1.5-.15,2.03s-.05,1.36-.1,1.68c-.04.27-.09.86-.1,1.06,0,.04-.04.07-.08.07l-2.1.15s-.08-.03-.09-.07c-.02-.18-.07-.67-.14-1.32-.08-.84-.26-1.58-.24-2.19.02-.61-.02-2.15-.05-2.84-.04-.69-.1-2.37-.15-2.75-.05-.38,0-.65-.47-.81-.47-.16-.8-.16-.83-1.2,0-.04.03-.08.07-.08.37-.04.86-.04,1.05-.05"/><path class="cls-1" d="M16.11,15.53c-.01-.05.03-.1.08-.1.6-.01,1.19-.07,1.45-.12.22-.04.87-.23,1.1-.3.04-.01.09.01.1.06l.14.56s-.01.08-.05.1c-.21.07-.87.28-1.48.32.08.6.18,1.1.26,1.47.07.36.23.63.24,1.19,0,.56-.03.92-.03.92,0,0,.79.01,1.43-.1.05,0,.09.03.1.08.02.39-.02.7-.03.81,0,.03-.03.06-.06.07-.14.05-.59.18-1.39.28-.03.68-.11.68-.09,1.27.02.59.04,1.55.07,2.01.03.46.07,1.36.07,1.36,0,0,.5-.02.78-.04.21-.02.55-.05.7-.06.04,0,.08.03.09.07l.07.69s-.03.09-.08.09l-2.61.07s-.08-.03-.08-.08c-.02-.29-.1-1.34-.11-1.92-.01-.67-.08-1.63-.04-2.12.04-.48.03-.78.03-1.29s.05-.84.1-1.19c.05-.35.14-.61-.13-1.31-.27-.7-.34-1.2-.4-1.69-.04-.38-.16-.9-.21-1.12"/><path class="cls-1" d="M20.24,14.58c.13-.03.42-.11.92-.37.05-.02.1,0,.12.05.26.84.45,1.77.49,2.31.04.56.05,1.32.03,2.03-.01.71.01,1.7.05,2.32.03.62.08,1.62.08,2.25,0,.63.09,2.12.09,2.12l1.43-.09s.09.03.09.08c0,.14.01.43.14.73.02.06-.02.12-.08.11-.43-.02-1.01-.04-1.38-.03-.34.01-.93.03-1.13.03-.04,0-.07-.03-.08-.07-.04-.19-.13-.74-.16-1.27-.03-.65-.07-2-.1-2.75-.03-.75-.08-1.82-.07-2.54,0-.72,0-1.21,0-1.67s.08-.87-.12-1.64c-.18-.72-.29-1.13-.36-1.53,0-.04.02-.09.06-.1"/><path class="cls-1" d="M23.72,13.74c.16.02.47.05.61.11.03.01.04.03.05.06.09.45.17.61.27.93.14.46.47,1.02.57,1.54.1.52.12,1.43.09,1.86-.03.55-.1,1.66-.1,1.66,0,0,.61.08.91.08.29,0,.85-.03.85-.03,0,0,.09-.76-.1-1.56-.18-.8-.43-1.3-.59-1.81-.15-.5-.4-1.35-.36-2.6,0-.04.03-.07.07-.08.31-.04.56-.06.99-.05.04,0,.08.04.08.08.03.72.06,2.04.17,2.7.11.69.18,1.02.44,1.91.27.89.29.96.32,1.63.03.66.03.79.07,1.15s.05.65.05.92.01.66.1.85c.09.19.17.1.19.71.02.53.07,1.95.08,2.31,0,.05-.03.08-.08.08l-.98.04s-.08-.03-.08-.07c-.02-.18-.07-.66-.07-1.11,0-.56-.03-1.32-.03-1.65s.02-.6-.15-.87c-.17-.27-.18-.38-.18-.67,0-.29.02-.75.02-.75-.56.04-1.31-.12-1.7-.25.08.34.24.77.26,1.28s.04,1.55.04,1.91.03,1.3.05,1.56c.02.17.06.4.09.52.01.05-.03.1-.08.1l-.96-.04s-.07-.03-.08-.06c-.04-.13-.12-.49-.13-.89-.01-.51-.05-1.32-.06-1.91,0-.58-.05-1.39-.06-1.76,0-.38-.05-.66-.12-.94-.07-.28-.11-.35-.12-.88,0-.53.02-1.4.05-1.95.03-.55.12-1.79-.02-2.27-.13-.45-.39-1.16-.47-1.71,0-.05.04-.1.09-.09"/><path class="cls-1" d="M30.86,22.8s-.13-.92-.22-1.44c-.09-.52-.23-1.84-.23-2.48,0-.64.04-2.23.06-2.67.02-.44.02-1.32.02-1.32h.11s.03.64.19,1.7c.16,1.07.38,2.57.57,3.4.19.83.84,2.22.92,2.57-.53.05-1.43.25-1.43.25M33.66,23.15c-.29-1.24-.67-1.85-.89-2.47-.23-.62-.51-2.51-.63-3.26-.12-.73-.34-2.57-.49-3.68,0-.04-.05-.08-.09-.07-.76.09-1.8.07-2.1.06-.04,0-.08.03-.08.08,0,.28-.04,1.23-.06,1.71-.02.57-.08,1.25-.08,1.97s.03,1.47.08,1.93c.05.46.13,1.35.16,1.7.03.36.23,1.19.24,1.81,0,.25-.04.44-.03.62,0,.18.05.4.05.77,0,.35-.07,1.29-.1,1.76,0,.05.03.09.08.09.25,0,.72-.01,1.05-.04.04,0,.08-.04.07-.08,0-.16,0-.36.04-.63.04-.31.04-.83.02-1.58.72.01,1.1-.07,1.67-.16.03.27.16.71.25,1.08.08.35.08.63.06,1.1,0,.05.04.09.09.08.3-.04.71-.07,1.01-.19.03-.01.05-.04.05-.07.05-.55-.06-1.33-.35-2.53"/><path class="cls-1" d="M36.34,15.35l1.07-.05s.08-.04.08-.09c-.02-.19-.13-.62-.54-.89-.54-.36-1.17-.56-1.68-.6-.51-.05-.89.06-1.25.56-.31.44-.37.81-.34,1.68.04.87.06,1.72.1,2.31.05.75.13,1.92.31,2.52.18.6.49,1.26.56,1.65.06.39.13.77.15,1.39.02.62.11,1.2.33,1.38.22.17,1.07.51,1.52.5.45,0,1.74-.2,1.78-1.71,0-.05-.04-.09-.09-.08-.32.03-.81.09-.98.11-.04,0-.06.03-.07.07-.02.1-.09.31-.39.47-.41.21-.77.14-.84-.24-.07-.37-.09-.85-.11-1.38-.03-.54-.26-1.24-.44-1.71-.18-.47-.38-.71-.44-1.69-.05-.98-.1-1.41-.1-1.96s-.02-1.05-.02-1.53-.15-1.06.29-1.27c.42-.2,1-.05,1.03.48,0,.04.04.08.09.08"/><path class="cls-1" d="M41.2,24.41c-.57.32-.87-.01-.86-.63,0-.36-.03-.96-.08-1.35-.05-.39-.13-.91-.49-1.53-.36-.62-.42-1.42-.41-1.75,0-.33.05-.88.07-1.23.01-.36.04-1.36.04-1.74s-.06-.76-.11-.9c-.05-.15-.1-.37.23-.37.43,0,1.06.14,1.16.83.08.53.11,1.08.07,1.6s-.13.78-.14,1.12c0,.34-.02.87.08,1.49.12.73.3,1.04.46,1.48.17.45.39.85.41,1.52.02.66.1,1.18-.43,1.47M42.3,20.99c-.27-.66-.31-1.1-.39-1.56-.08-.46.01-1.04.1-1.51.09-.47.07-1.25,0-1.84-.08-.59-.45-.83-.66-.95-.2-.12-.45-.34-.76-.53-.33-.2-.69-.41-1.32-.43-1.17-.03-1.19.49-1.15.76.03.27.11.68.1,1.24-.01.55-.03.85-.06,1.61-.03.76.05,1.69.11,2.24.06.55.18.64.29.78.11.14.27.4.36.81.08.41.13,1.02.16,1.66.03.64.07,1,.24,1.47.17.47.29.57.41.52,0,0,1.95-.95,2.46-1.2.51-.25.55-.55.62-1.07.07-.51-.24-1.34-.51-2"/></svg>