<?xml version="1.0" encoding="UTF-8"?><svg id="Camada_1" xmlns="http://www.w3.org/2000/svg" viewBox="0 0 129.2 11.29"><defs><style>.cls-1{fill:#fff;}</style></defs><path class="cls-1" d="M36.72,8.93c0-.3.45-.21.61-.51.08-.15.07-.27.09-.43.12-1.12.14-4.43-.02-5.5-.08-.52-.43-.72-.68-1.12l2.66-.36c.67-.02,1.87.31,2.41.7,1.96,1.42,2.05,5.84-.31,6.91-.12.06-.85.31-.89.31h-3.87ZM38.79,8.76c3.11.37,3.46-2.87,2.88-5.2-.42-1.72-1.29-2.27-3.05-2.19l.17,7.39Z"/><path class="cls-1" d="M6.66,8.25c.06.28-.24.11-.35.28-.35.5-.06,1.66-.18,2.28-2.07.92-5.01.64-5.83-1.78s.03-5.22,2.83-5.43c.7-.05,2.23.05,2.69.6.25.3-.18,1.46-.02,1.98-.49-.27-.44-.97-.71-1.44-.52-.88-2.21-1.13-2.95-.46-.94.86-.78,4.46-.28,5.57s2.08,1.55,3,.8c.38-.31.21-1.78,0-2.08-.17-.25-.65,0-.61-.33h2.41Z"/><path class="cls-1" d="M112.67.51c0,1.38-.29,2.76-.52,4.12.52,0,.73-.67,1.28-.68.21,0,1,.28,1.13.45.93,1.22-.49,3.7.51,5.04h-1.55c.15-.88.67-3.78.18-4.39-.35-.43-1.36-.27-1.53.22-.23.65-.29,2.36-.21,3.07.05.46.33.54.35.93-.32-.14-1.54-.14-1.54-.43,0-.03.29-.22.34-.52.14-.81-.06-2.03,0-2.92.08-1.16.52-2.69.53-3.78,0-.43-.4-.64-.36-.85.07-.37,1.05-.25,1.38-.26Z"/><path class="cls-1" d="M87.24,7.39c.12.56-.37.27-.74.38-.57.16-.68.66-1.06-.2-1.82,1.68-4.59.83-4-1.94.31-1.48,2.5-2.01,3.74-1.5-.05-.76.11-1.99-.69-2.32.15-.37,1.15-.33,1.46-.6.31,1.95.41,3.93.62,5.91.08.27.42.29.67.28ZM85.32,7.36c.07-.11.06-1.67.02-1.94-.17-1.12-1.28-1.72-2.22-1.03s-.76,4.18,1.38,3.44c.09-.03.79-.43.82-.47Z"/><path class="cls-1" d="M99.1,0c-.02.38-.61.29-.67.36-.42.5,1.82,4.61,1.87,5.48.23.05.19-.18.25-.34.32-.83,1.27-3.31,1.3-4.04.01-.27,0-.47-.17-.7-.25-.32-.77-.26-.87-.59h2.75c.09.56-.57.27-.94.69-.79.89-1.67,4.56-2.19,5.88-.09.24-.17.47-.39.64-.44-.87-.92-1.74-1.32-2.63s-1.48-4.02-2.11-4.42c-.26-.17-.63-.05-.61-.33h3.09Z"/><path class="cls-1" d="M61.12,4.12v.86c.27.06.12-.22.29-.35.52-.4,1.15-.66,1.82-.47,1.93.53.21,4.02,1.5,5.12l-1.89-.17c.09-.23.29-.31.34-.6.1-.55.08-3.19-.25-3.53-.51-.51-1.6-.15-1.77.64-.11.51-.11,2.65.13,3.04.06.09.67.18.35.45-.06.05-1.27.04-1.46,0-.74-.12-.15-.4-.08-.78.1-.55.08-2.5.01-3.1-.05-.46-.33-.54-.35-.93l1.37-.17Z"/><path class="cls-1" d="M120.4,8.76c-.44.87-1.53,1.32-1.89.17-.72.71-2.29,1.07-2.83,0-.67-1.34,1.63-2.27,2.65-2.25.11-.89.36-2.31-.93-2.05-.88.18-.07.65-.11.92-.15,1.1-1.6.53-1.02-.32.54-.8,1.19-1.07,2.15-.93,1.74.26.83,3.31,1.15,4.35.14.46.5.14.84.11ZM118.34,7.05c-1.51-.17-2.49,2.21-.6,1.89.87-.15.56-1.23.6-1.89Z"/><path class="cls-1" d="M58.15,4.34c.31.34.5,1.46.55,1.94.07.73-.32,2.51.7,1.96.12,1-1.59,1.26-1.72.17-.43-.05-.49.43-.94.51-1,.18-2.09-.32-1.98-1.45s1.88-1.22,2.73-1.49c.15-.78-.15-1.84-1.1-1.71-.81.11.1.66-.27,1.2-1.33.23-1.26-.72-.32-1.27.63-.36,1.83-.44,2.35.12ZM57.51,6.36c-.59.06-1.73.42-1.71,1.12.02.65.5.87,1.1.77.87-.15.56-1.23.6-1.89Z"/><path class="cls-1" d="M25.04,3.27c-.1,2.04-.32,4.08-.7,6.09,1,.38-.31.66-.84.79l-.09-.52c-.64.71-2.15,1.11-2.7.12-1.16-2.06,1.18-4.39,3.3-3.73-.17-.52.21-1.23.18-1.63-.03-.33-.43-.44-.35-.78l1.2-.34ZM22.58,6.22c-1,.31-1.29,2.58-.89,3.4s1.76-.04,1.94-.81c.08-.36.26-1.71.21-2.02-.1-.6-.74-.73-1.26-.57Z"/><path class="cls-1" d="M75.99,4.55c.77.04,1.5.73,1.76,1.42.86,2.33-1.56,4.44-3.78,3.27-.96-.51-1.1-1.81-.97-2.78.2-1.44,1.71-1.97,3-1.91ZM74.99,4.84c-.98.3-.92,2.48-.8,3.31.2,1.38,1.96,1.64,2.32.1.26-1.1.3-3.97-1.53-3.42Z"/><path class="cls-1" d="M48.58,6.19h-3.26c-.11,1.21.68,2.44,1.99,1.9.48-.2.61-.67,1.11-.7-.58,2.1-3.31,2.04-4.09.05-.47-1.22-.06-3.57,1.43-3.82,1.99-.34,2.85.66,2.83,2.57ZM47.55,5.84c-.04-2.64-2.37-2.79-2.23,0h2.23Z"/><path class="cls-1" d="M89.77,3.13c1.18-.19,2.38-.12,3.04,1,.38.64.26,1.48-.1,2.11-.77,1.39-4.16,1.63-4.94.17-.85-1.58.41-3.04,1.99-3.29ZM90.12,3.3c-1.75.2-1.58,2.2-.85,3.36.44.69,1.1.65,1.8.35,1.03-.44.86-3.91-.95-3.71Z"/><path class="cls-1" d="M66.45,6.87c-.21,1.28,1.01,2.42,2.23,1.8.06-.03.89-1,.86-.34-.01.27-.76.92-1.03,1.03-2.46.97-4.49-2.59-2.52-4.49.88-.85,2.86-.5,3.42.68,1.2,2.5-1.6,1.05-2.96,1.33ZM68.68,6.7c-.08-2.47-2.27-2.89-2.23-.17l2.23.17Z"/><path class="cls-1" d="M108.2,5.84l-2.92-.34c0,1.68,1.43,2.89,2.75,1.37.15.76-.6,1.36-1.29,1.39-.93.04-2.04-.95-2.36-1.78-1.56-4.12,4.38-5.18,3.82-.64ZM107.34,5.33c.09-2.71-2.01-3.03-2.06-.17l2.06.17Z"/><path class="cls-1" d="M11.64,8.76h-3.26c.16,1.21.55,2,1.94,1.68.5-.11.66-.64,1.15-.65-.74,2.01-3.65,1.78-4.09-.29-.78-3.69,4.32-4.52,4.26-.74ZM10.61,8.42c-.12-2.52-1.96-2.42-2.23,0h2.23Z"/><path class="cls-1" d="M19.89,9.97c-.28.53-.67.8-1.28.69-.24-.04-.41-.28-.52-.29-.17-.01-.67.4-1.04.45-1.79.27-1.68-1.49-.08-2.14,1.03-.42,1.59-.01,1.37-1.55-.08-.56-.92-.58-1.13-.26-.11.17.29,1.59-.77.95-.61-.37.56-1.34.98-1.43.6-.13,1.41-.17,1.75.42.59,1.04-.18,2.27.04,3.05.12.44.59.04.67.1ZM18.34,8.59c-.72-.11-2.23,1.06-1.38,1.64s1.54-.9,1.38-1.64Z"/><path class="cls-1" d="M27.92,5.03c2.65-.36,2.54,3.46.04,4.34-3.57,1.25-3.15-3.92-.04-4.34ZM27.56,5.36c-1.09.33-1.69,3.75-.55,3.93.94.15,1.46-.65,1.62-1.48.05-.26.19-1.3.18-1.52-.03-.78-.47-1.17-1.25-.93Z"/><path class="cls-1" d="M110.61.17l-.52,4.55c.2,1.35-.4,2.85.17,4.04l-1.37-.17c-.04-.31.22-.48.27-.77.18-1.04,0-2.52.08-3.61.05-.88.33-2.06.36-2.92.02-.66-.57-.56-.53-.68.15-.27,1.45-.52,1.55-.43Z"/><path class="cls-1" d="M51.16,3.61c.33.31-.33.33-.35.44-.13.76,1.2,2.26,1.21,3.16.25,0,.33-.48.42-.69.21-.48.84-1.83.53-2.24-.19-.26-.77.04-.61-.5h2.06c.13.51-.38.32-.64.56-.76.7-1.63,4.23-2.02,4.42-.3.14-.27-.21-.33-.35-.43-.94-1.42-3.72-2.07-4.3-.19-.17-.7-.14-.35-.5h2.15Z"/><path class="cls-1" d="M126.13,9.4c-1.02-1.02-1.46-4.08.52-4.02,1.73.05,2.79,2.27,2.52,3.81-.24,1.36-2.29.96-3.04.21ZM126.7,5.69c-.25.07-.42.34-.46.58-.16.96.15,3.97,1.61,3.5.97-.32.26-4.48-1.15-4.08Z"/><path class="cls-1" d="M122.51,8.55c.39.34,1.26.44,1.74.19.31-.17.24-.74.63-.4-.34,1.3-1.75,1.55-2.81.92-2.56-1.53-.88-5.63,1.78-4.35,1,.48.75,1.77-.09,1.12-.45-.35-.17-.41,0-.7.23-.38-.75-.39-1.03-.34-1.15.2-.96,2.91-.21,3.56Z"/><path class="cls-1" d="M32.65,5.27c-.08-.07,0-.42-.3-.28-.94.41-.63,3.25-.43,4.12h-1.72c.74-1.1.46-2.56.52-3.85l-.35-.19c.14-.28,1.47-.73,1.55-.6l.09.52c.36-.41.79-.77,1.37-.7.98.12.18,1.81-.72.98Z"/><path class="cls-1" d="M13.53,6.36v.86c.45-.24.74-.83,1.3-.86,1.25-.07.78,1.21.16,1.21-.37,0-.54-.58-.84-.51-.8.18-.57,1.42-.62,1.97-.03.35-.21.67-.19,1.03.02.46.36.54.36.94h-1.72c.75-.82.51-1.97.51-3.02,0-.57.33-.76-.33-1.19,0-.22,1.1-.43,1.37-.43Z"/><path class="cls-1" d="M71.78,4.64v4.21c0,.36.5.35.51.6h-1.89c.09-.23.29-.31.34-.6.07-.39.04-3.37-.08-3.53s-.39-.08-.44-.25c-.1-.33.09-.22.24-.27.42-.15.86-.19,1.31-.16Z"/><path class="cls-1" d="M71.03,2.59c.64-.18,1.08.97.47,1.17-1.12.37-1.19-.96-.47-1.17Z"/></svg>